<?xml version="1.0" encoding="UTF-8"?>
<svg id="Layer_2" data-name="Layer 2" xmlns="http://www.w3.org/2000/svg" xmlns:xlink="http://www.w3.org/1999/xlink" viewBox="0 0 32.62 16.87">
  <defs>
    <style>
      .cls-1 {
        fill: #2746d2;
      }

      .cls-2 {
        fill: url(#linear-gradient-5);
      }

      .cls-3 {
        fill: url(#linear-gradient-6);
      }

      .cls-4 {
        fill: url(#linear-gradient-4);
      }

      .cls-5 {
        fill: url(#linear-gradient-3);
      }

      .cls-6 {
        fill: url(#linear-gradient-2);
      }

      .cls-7 {
        fill: url(#linear-gradient);
      }

      .cls-8 {
        fill: #fcfafa;
      }
    </style>
    <linearGradient id="linear-gradient" x1="-92.77" y1="-3.03" x2="-93.58" y2="-13.54" gradientTransform="translate(109.59 4.39) rotate(-7.62)" gradientUnits="userSpaceOnUse">
      <stop offset=".16" stop-color="#fd3333"/>
      <stop offset=".52" stop-color="#7159eb"/>
      <stop offset="1" stop-color="#21a6fa"/>
    </linearGradient>
    <linearGradient id="linear-gradient-2" x1="-93.05" y1="-7.58" x2="-92.79" y2="-3.83" gradientTransform="translate(109.59 4.39) rotate(-7.62)" gradientUnits="userSpaceOnUse">
      <stop offset=".26" stop-color="#ff2929" stop-opacity="0"/>
      <stop offset="1" stop-color="#ff5959"/>
    </linearGradient>
    <linearGradient id="linear-gradient-3" x1="-303.78" y1="-63.3" x2="-304.38" y2="-71.11" gradientTransform="translate(310.84 -39.12) rotate(-21.99)" xlink:href="#linear-gradient"/>
    <linearGradient id="linear-gradient-4" x1="-303.99" y1="-66.68" x2="-303.8" y2="-63.89" gradientTransform="translate(310.84 -39.12) rotate(-21.99)" xlink:href="#linear-gradient-2"/>
    <linearGradient id="linear-gradient-5" x1="-258.51" y1="-47.16" x2="-259.11" y2="-54.98" gradientTransform="translate(-230.2 -39.12) rotate(-158.01) scale(1 -1)" xlink:href="#linear-gradient"/>
    <linearGradient id="linear-gradient-6" x1="-258.72" y1="-50.54" x2="-258.53" y2="-47.76" gradientTransform="translate(-230.2 -39.12) rotate(-158.01) scale(1 -1)" xlink:href="#linear-gradient-2"/>
  </defs>
  <g id="Layer_1-2" data-name="Layer 1">
    <g>
      <g>
        <g>
          <path class="cls-1" d="M16.06.28s-1.73,1.64.06,3.86-.83,3.17-1.49,1.91-.41-2-.41-2c0,0-1.69,1.59-.55,3.22s-.26,2.49-.88,1.71-.02-1.46-.29-2.07-.97-.49-.97-.49c0,0,.94.35.32,2.45s.3,6.43,5.72,5.54c4.08-.68,4.47-4.38,3.24-5.73s.03-2.68-1.01-4.3c0,0-.26,2.44-1.32,2.03s.16-.96-.31-2.3-1.74-1.77-2.12-2.66.01-1.18.01-1.18Z"/>
          <path class="cls-1" d="M17.55,0s-.7,1.06.15,1.71.85,1.18.85,1.18c0,0,1.41-.74.25-1.5s-1.24-1.09-1.25-1.39Z"/>
          <path class="cls-1" d="M12.63,3.78s-.37.81-.32,1.38.42.95.45.95.05-.32.22-1.09-.35-1.24-.35-1.24Z"/>
        </g>
        <path class="cls-7" d="M12.37,9.8c-.03-.06-.34,2.4,1.68,3.66s5.4.12,6.26-1.13.52-2.72-.34-3.56-.22-1.65-.27-1.85-.33-.18-.33-.18c0,0-.11.47-.74.55s-1.3-.35-1.17-1.1.5-1.38,0-2.36-1.3-1.39-1.45-1.37.83.85.9,2.05.18,2.41-.67,2.7-1.5.06-1.85-.57-.09-1.1-.22-1.08-.49.66-.11,1.53,1.26,2.31.17,2.91-1.74.05-1.87-.22Z"/>
        <path class="cls-6" d="M12.71,10.51s.38,3.29,3.71,3.18c3.33-.11,4.33-2.19,4.12-3.2s-1.07-1.66-1.24-2.13.06-1.02.06-1.02"/>
        <path class="cls-8" d="M16.66,9.14c.34-.06.71-.1,1.09-.13.04,0,.07,0,.11,0,.33-.01.52.1.6.42.12.48.22.97.22,1.48,0,.28-.11.43-.38.51-.45.13-.91.2-1.37.27-.4.06-.81.12-1.22.13-.3,0-.44-.1-.53-.39-.15-.48-.21-.97-.23-1.47-.02-.34.13-.51.47-.59.4-.09.8-.17,1.24-.23ZM17.37,10.33c-.33-.13-.63-.25-.94-.37-.05-.02-.05,0-.05.04.05.31.1.62.14.94,0,.04.01.07.06.03.26-.21.51-.42.79-.64Z"/>
      </g>
      <g>
        <g>
          <path class="cls-1" d="M2.13,6.49s-.94,1.5.75,2.77-.02,2.43-.72,1.65-.67-1.36-.67-1.36c0,0-.93,1.46.2,2.42s.27,1.84-.32,1.39-.28-1.05-.59-1.44-.79-.18-.79-.18c0,0,.74.08.68,1.71s1.4,4.58,5.14,2.93c2.82-1.24,2.41-3.98,1.27-4.72s-.47-1.94-1.52-2.91c0,0,.26,1.81-.58,1.7s-.06-.72-.65-1.6-1.58-.96-2.02-1.52-.21-.85-.21-.85Z"/>
          <path class="cls-1" d="M3.15,6.02s-.31.89.43,1.2.83.69.83.69c0,0,.88-.79-.09-1.12s-1.1-.56-1.16-.77Z"/>
          <path class="cls-1" d="M.31,9.65s-.11.65.02,1.06.48.61.5.6-.02-.24-.04-.83-.48-.83-.48-.83Z"/>
        </g>
        <path class="cls-5" d="M1.23,14.03s.2,1.79,1.89,2.32,3.91-.91,4.3-1.97-.13-2.05-.9-2.5-.46-1.15-.53-1.28-.27-.07-.27-.07c0,0,0,.36-.43.53s-1-.02-1.05-.58.11-1.09-.44-1.7-1.19-.76-1.3-.72.76.46,1.03,1.31.57,1.7.02,2.07-1.07.32-1.44-.07-.27-.77-.36-.74-.23.56.21,1.12,1.33,1.43.66,2.07-1.24.36-1.39.18Z"/>
        <path class="cls-4" d="M1.61,14.47s.88,2.3,3.25,1.6,2.71-2.38,2.38-3.06-1.08-1-1.29-1.3-.15-.74-.15-.74"/>
        <path class="cls-8" d="M4.11,12.92c.22-.15.47-.3.72-.44.02-.01.05-.03.07-.04.23-.12.4-.1.56.1.24.3.47.61.63.97.09.2.07.34-.1.48-.27.24-.57.43-.87.63-.26.17-.53.35-.82.48-.21.1-.34.07-.49-.1-.26-.29-.46-.62-.64-.95-.12-.23-.07-.4.14-.56.25-.19.51-.38.8-.56ZM4.99,13.53c-.27.01-.53.03-.78.04-.04,0-.04.02-.02.05.13.2.27.41.4.61.02.03.03.04.05,0,.11-.23.23-.46.35-.7Z"/>
      </g>
      <g>
        <g>
          <path class="cls-1" d="M30.49,4.51s.94,1.5-.75,2.77.02,2.43.72,1.65.67-1.36.67-1.36c0,0,.93,1.46-.2,2.42s-.27,1.84.32,1.39.28-1.05.59-1.44.79-.18.79-.18c0,0-.74.08-.68,1.71s-1.4,4.58-5.14,2.93c-2.82-1.24-2.41-3.98-1.27-4.72s.47-1.94,1.52-2.91c0,0-.26,1.81.58,1.7s.06-.72.65-1.6,1.58-.96,2.02-1.52.21-.85.21-.85Z"/>
          <path class="cls-1" d="M29.47,4.03s.31.89-.43,1.2-.83.69-.83.69c0,0-.88-.79.09-1.12s1.1-.56,1.16-.77Z"/>
          <path class="cls-1" d="M32.31,7.66s.11.65-.02,1.06-.48.61-.5.6.02-.24.04-.83.48-.83.48-.83Z"/>
        </g>
        <path class="cls-2" d="M31.39,12.05s-.2,1.79-1.89,2.32-3.91-.91-4.3-1.97.13-2.05.9-2.5.46-1.15.53-1.28.27-.07.27-.07c0,0,0,.36.43.53s1-.02,1.05-.58-.11-1.09.44-1.7,1.19-.76,1.3-.72-.76.46-1.03,1.31-.57,1.7-.02,2.07,1.07.32,1.44-.07.27-.77.36-.74.23.56-.21,1.12-1.33,1.43-.66,2.07,1.24.36,1.39.18Z"/>
        <path class="cls-3" d="M31.01,12.49s-.88,2.3-3.25,1.6-2.71-2.38-2.38-3.06,1.08-1,1.29-1.3.15-.74.15-.74"/>
        <path class="cls-8" d="M28.31,11.01c.23.11.48.25.73.39.02.01.05.03.07.04.21.14.28.29.19.52-.13.35-.29.7-.51,1.01-.12.17-.25.22-.46.15-.33-.11-.65-.27-.96-.43-.28-.14-.55-.28-.81-.45-.19-.13-.22-.25-.16-.47.11-.36.3-.69.49-1.01.13-.22.3-.26.54-.16.29.12.57.25.87.4ZM28.23,12.05c-.15-.22-.28-.43-.42-.64-.02-.03-.03-.02-.05,0-.11.21-.21.43-.32.64-.01.03-.02.05.02.04.25-.02.5-.03.76-.05Z"/>
      </g>
    </g>
  </g>
</svg>