<?xml version="1.0" encoding="UTF-8"?>
<svg id="Layer_2" data-name="Layer 2" xmlns="http://www.w3.org/2000/svg" xmlns:xlink="http://www.w3.org/1999/xlink" viewBox="0 0 15.53 19.62">
  <defs>
    <style>
      .cls-1 {
        fill: #2746d2;
      }

      .cls-2 {
        fill: url(#linear-gradient-2);
      }

      .cls-3 {
        fill: url(#linear-gradient);
      }

      .cls-4 {
        fill: #fcfafa;
      }
    </style>
    <linearGradient id="linear-gradient" x1="-547.79" y1="-107.67" x2="-548.9" y2="-122.19" gradientTransform="translate(525.87 -200.59) rotate(-34.07)" gradientUnits="userSpaceOnUse">
      <stop offset=".16" stop-color="#fd3333"/>
      <stop offset=".52" stop-color="#7159eb"/>
      <stop offset="1" stop-color="#21a6fa"/>
    </linearGradient>
    <linearGradient id="linear-gradient-2" x1="-548.17" y1="-113.95" x2="-547.81" y2="-108.77" gradientTransform="translate(525.87 -200.59) rotate(-34.07)" gradientUnits="userSpaceOnUse">
      <stop offset=".26" stop-color="#ff2929" stop-opacity="0"/>
      <stop offset="1" stop-color="#ff5959"/>
    </linearGradient>
  </defs>
  <g id="Layer_1-2" data-name="Layer 1">
    <g>
      <g>
        <g>
          <path class="cls-1" d="M2.1,1.26s-1.13,3.09,2.45,4.74.92,4.43-.67,3.28c-1.59-1.16-1.74-2.21-1.74-2.21,0,0-1.12,3.01,1.3,4.32s1.21,3.23-.03,2.65-.92-1.8-1.63-2.38-1.5-.01-1.5-.01c0,0,1.38-.15,1.91,2.84.53,2.99,4.33,7.77,10.48,3.33,4.63-3.35,2.83-8.17.48-9.07s-1.62-3.33-3.89-4.7c0,0,1.18,3.18-.39,3.32s-.4-1.29-1.8-2.66-3.25-1.12-4.26-1.98-.71-1.47-.71-1.47Z"/>
          <path class="cls-1" d="M3.76,0s-.21,1.74,1.24,2.02,1.77.94,1.77.94c0,0,1.29-1.78-.61-2.01-1.9-.23-2.21-.59-2.4-.95Z"/>
          <path class="cls-1" d="M0,7.71s.05,1.23.45,1.91,1.11.92,1.14.9-.14-.43-.4-1.48S0,7.71,0,7.71Z"/>
        </g>
        <path class="cls-3" d="M3.39,15.31c-.07-.06,1.06,3.18,4.33,3.49,3.27.31,6.76-3.18,7.05-5.25s-1.03-3.68-2.61-4.19-1.29-1.9-1.47-2.12-.51-.03-.51-.03c0,0,.15.64-.58,1.14s-1.82.36-2.12-.64-.23-2.02-1.45-2.91-2.47-.91-2.64-.8,1.55.53,2.37,1.99,1.71,2.86.83,3.76c-.87.89-1.82,1-2.64.43s-.79-1.3-.94-1.2-.2,1.12.81,1.96,2.97,2.08,2.01,3.5-2.12,1.13-2.45.87Z"/>
        <path class="cls-2" d="M4.25,15.97s2.49,3.84,6.54,1.65,4.01-5.38,3.13-6.49-2.35-1.4-2.84-1.86-.56-1.3-.56-1.3"/>
      </g>
      <path class="cls-4" d="M8.73,12.47c.37-.29.8-.58,1.22-.88.04-.03.08-.05.12-.08.39-.24.69-.22,1,.11.47.5.91,1.02,1.24,1.63.18.34.16.59-.11.87-.45.45-.95.84-1.46,1.22-.45.34-.89.68-1.38.96-.35.2-.59.16-.89-.12-.5-.47-.89-1.03-1.24-1.61-.24-.39-.18-.7.17-1.01.42-.37.85-.73,1.34-1.1ZM10.36,13.43c-.48.06-.93.12-1.38.17-.07,0-.06.04-.03.08.26.34.53.69.79,1.03.03.04.06.07.09,0,.17-.42.34-.84.53-1.28Z"/>
    </g>
  </g>
</svg>