<?xml version="1.0" encoding="UTF-8"?>
<svg id="Layer_2" data-name="Layer 2" xmlns="http://www.w3.org/2000/svg" xmlns:xlink="http://www.w3.org/1999/xlink" viewBox="0 0 51.67 35.95">
  <defs>
    <style>
      .cls-1 {
        fill: #2746d2;
      }

      .cls-2 {
        fill: url(#linear-gradient-5);
      }

      .cls-3 {
        fill: url(#linear-gradient-6);
      }

      .cls-4 {
        fill: url(#linear-gradient-4);
      }

      .cls-5 {
        fill: url(#linear-gradient-3);
      }

      .cls-6 {
        fill: url(#linear-gradient-2);
      }

      .cls-7 {
        fill: url(#linear-gradient);
      }

      .cls-8 {
        fill: #fcfafa;
      }
    </style>
    <linearGradient id="linear-gradient" x1="-310.3" y1="-75.22" x2="-311.21" y2="-87.04" gradientTransform="translate(336.57 -36.76) rotate(-22.94)" gradientUnits="userSpaceOnUse">
      <stop offset=".16" stop-color="#fd3333"/>
      <stop offset=".52" stop-color="#7159eb"/>
      <stop offset="1" stop-color="#21a6fa"/>
    </linearGradient>
    <linearGradient id="linear-gradient-2" x1="-310.62" y1="-80.33" x2="-310.33" y2="-76.12" gradientTransform="translate(336.57 -36.76) rotate(-22.94)" gradientUnits="userSpaceOnUse">
      <stop offset=".26" stop-color="#ff2929" stop-opacity="0"/>
      <stop offset="1" stop-color="#ff5959"/>
    </linearGradient>
    <linearGradient id="linear-gradient-3" x1="-523.43" y1="-180.06" x2="-524.1" y2="-188.84" gradientTransform="translate(532.9 -139.76) rotate(-37.31)" xlink:href="#linear-gradient"/>
    <linearGradient id="linear-gradient-4" x1="-523.66" y1="-183.85" x2="-523.44" y2="-180.72" gradientTransform="translate(532.9 -139.76) rotate(-37.31)" xlink:href="#linear-gradient-2"/>
    <linearGradient id="linear-gradient-5" x1="-81.51" y1="-.3" x2="-82.18" y2="-9.08" gradientTransform="translate(-33.99 15.56) rotate(-173.33) scale(1 -1)" xlink:href="#linear-gradient"/>
    <linearGradient id="linear-gradient-6" x1="-81.74" y1="-4.09" x2="-81.52" y2="-.96" gradientTransform="translate(-33.99 15.56) rotate(-173.33) scale(1 -1)" xlink:href="#linear-gradient-2"/>
  </defs>
  <g id="Layer_1-2" data-name="Layer 1">
    <g>
      <g>
        <g>
          <path class="cls-1" d="M16.23.74s-1.39,2.29,1.21,4.17.04,3.68-1.05,2.51-1.04-2.04-1.04-2.04c0,0-1.37,2.23.36,3.66s.46,2.77-.44,2.11-.45-1.58-.93-2.16-1.2-.25-1.2-.25c0,0,1.13.1,1.08,2.56s2.24,6.89,7.84,4.31c4.23-1.94,3.54-6.08,1.81-7.17s-.77-2.92-2.37-4.36c0,0,.44,2.73-.83,2.59s-.11-1.09-1.02-2.41-2.42-1.41-3.09-2.25-.33-1.28-.33-1.28Z"/>
          <path class="cls-1" d="M17.76,0s-.44,1.36.67,1.81,1.27,1.03,1.27,1.03c0,0,1.31-1.22-.17-1.7-1.48-.48-1.67-.81-1.77-1.14Z"/>
          <path class="cls-1" d="M13.56,5.56s-.16.99.06,1.6.74.91.77.9-.04-.36-.09-1.25-.74-1.25-.74-1.25Z"/>
        </g>
        <path class="cls-7" d="M15.06,12.17c-.05-.06.35,2.7,2.91,3.47s5.89-1.48,6.45-3.08-.24-3.1-1.42-3.76-.73-1.72-.84-1.92-.41-.1-.41-.1c0,0,.02.54-.64.82s-1.51,0-1.59-.85.14-1.65-.7-2.55-1.83-1.11-1.98-1.05,1.16.67,1.58,1.96.91,2.55.08,3.13-1.61.51-2.18-.07-.43-1.16-.56-1.1-.34.86.34,1.69,2.05,2.13,1.05,3.11-1.87.57-2.09.31Z"/>
        <path class="cls-6" d="M15.64,12.83s1.38,3.45,4.96,2.34c3.58-1.11,4.04-3.66,3.52-4.69s-1.66-1.49-1.98-1.93-.24-1.12-.24-1.12"/>
      </g>
      <g>
        <g>
          <path class="cls-1" d="M1.04,25.05s-.58,1.9,1.64,2.78c2.22.88.7,2.64-.29,2s-1.13-1.28-1.13-1.28c0,0-.57,1.85.93,2.57s.84,1.91.07,1.6-.62-1.05-1.07-1.38-.91.04-.91.04c0,0,.83-.14,1.25,1.65s2.88,4.54,6.44,1.65c2.68-2.18,1.43-5.03-.02-5.49s-1.09-1.96-2.51-2.7c0,0,.82,1.88-.12,2.02s-.28-.76-1.18-1.54-2-.57-2.64-1.05-.48-.86-.48-.86Z"/>
          <path class="cls-1" d="M2.01,24.24s-.07,1.06.82,1.18,1.1.5,1.1.5c0,0,.72-1.12-.44-1.19s-1.35-.28-1.48-.49Z"/>
          <path class="cls-1" d="M0,29.02s.07.74.34,1.14.7.52.72.5-.1-.25-.29-.88S0,29.02,0,29.02Z"/>
        </g>
        <path class="cls-5" d="M2.31,33.5s.75,1.88,2.74,1.96,3.97-2.15,4.08-3.41-.75-2.19-1.72-2.44-.84-1.11-.96-1.23-.31,0-.31,0c0,0,.11.38-.31.71s-1.09.28-1.3-.32-.21-1.21-.98-1.71-1.52-.47-1.62-.39.96.27,1.5,1.12,1.13,1.67.63,2.24-1.06.66-1.58.35-.52-.76-.61-.69-.09.68.56,1.16,1.87,1.15,1.33,2.04-1.24.75-1.45.61Z"/>
        <path class="cls-4" d="M2.84,33.86s1.63,2.23,4,.77c2.37-1.46,2.24-3.38,1.67-4.03s-1.47-.76-1.78-1.03-.38-.76-.38-.76"/>
      </g>
      <g>
        <g>
          <path class="cls-1" d="M47.8,13.52s1.47,1.34,0,3.23.74,2.63,1.27,1.57.32-1.67.32-1.67c0,0,1.44,1.3.51,2.68s.25,2.07.76,1.42,0-1.22.21-1.73.8-.43.8-.43c0,0-.78.3-.23,2.05s-.16,5.38-4.7,4.71c-3.42-.51-3.79-3.6-2.78-4.74s-.06-2.24.78-3.6c0,0,.25,2.04,1.13,1.67s-.15-.8.23-1.93,1.43-1.51,1.73-2.25-.03-.98-.03-.98Z"/>
          <path class="cls-1" d="M46.56,13.3s.6.88-.1,1.43-.69,1-.69,1c0,0-1.19-.6-.23-1.25s1.02-.93,1.03-1.18Z"/>
          <path class="cls-1" d="M50.72,16.4s.32.67.29,1.15-.34.8-.36.8-.05-.27-.2-.91.27-1.04.27-1.04Z"/>
        </g>
        <path class="cls-2" d="M51.02,21.42c.02-.05.31,2-1.36,3.08s-4.51.17-5.24-.86-.47-2.26.23-2.98.16-1.38.2-1.55.27-.16.27-.16c0,0,.1.39.63.45s1.08-.31.96-.94-.44-1.15-.03-1.97,1.07-1.18,1.19-1.16-.68.72-.72,1.73-.12,2.01.6,2.25,1.25.03,1.54-.5.06-.92.17-.9.42.54.11,1.28-1.02,1.94-.11,2.44,1.45.02,1.56-.21Z"/>
        <path class="cls-3" d="M50.74,22.01s-.27,2.75-3.05,2.7-3.65-1.77-3.49-2.61.87-1.4,1.01-1.79-.06-.85-.06-.85"/>
      </g>
      <path class="cls-8" d="M19.77,10.74c.34-.17.73-.34,1.11-.51.04-.02.07-.03.11-.04.35-.13.59-.07.78.25.29.47.57.96.73,1.5.09.3.03.5-.23.67-.43.29-.89.52-1.36.75-.41.2-.82.4-1.25.55-.31.1-.5.04-.69-.23-.32-.45-.55-.96-.74-1.48-.13-.35-.03-.59.3-.78.39-.23.79-.45,1.24-.66ZM20.92,11.75c-.39-.03-.76-.05-1.13-.08-.06,0-.06.02-.04.06.16.31.31.63.47.95.02.04.04.07.07.01.2-.31.41-.62.62-.94Z"/>
      <path class="cls-8" d="M47.5,21.33c.3.11.62.26.94.4.03.01.06.03.09.04.27.14.37.33.29.62-.13.45-.28.89-.52,1.29-.13.23-.29.3-.54.24-.42-.1-.82-.26-1.22-.42-.35-.14-.71-.28-1.04-.47-.24-.14-.3-.29-.24-.56.1-.46.29-.88.5-1.29.14-.28.34-.35.65-.26.36.11.72.24,1.11.39ZM47.51,22.62c-.2-.26-.39-.5-.58-.74-.03-.04-.05-.02-.06.01-.11.27-.22.55-.32.82-.01.03-.02.06.03.05.3-.05.61-.09.93-.14Z"/>
      <path class="cls-8" d="M5.14,31.4c.23-.23.49-.46.75-.7.02-.02.05-.04.08-.06.24-.19.45-.21.68,0,.36.3.7.61.97.99.15.21.16.38,0,.59-.26.34-.57.65-.88.95-.27.27-.54.54-.85.76-.22.17-.38.16-.61,0-.38-.28-.69-.62-.98-.98-.2-.24-.18-.45.03-.7.25-.29.51-.56.81-.85ZM6.32,31.91c-.32.08-.62.16-.91.24-.05.01-.04.03-.01.06.21.21.41.42.62.63.03.03.05.04.06,0,.08-.3.16-.6.25-.91Z"/>
    </g>
  </g>
</svg>