<?xml version="1.0" encoding="UTF-8"?>
<svg xmlns="http://www.w3.org/2000/svg" xmlns:xlink="http://www.w3.org/1999/xlink" viewBox="0 0 55.41 43.63">
  <defs>
    <style>
      .cls-1 {
        fill: url(#radial-gradient-2);
      }

      .cls-2 {
        fill: url(#linear-gradient-5);
      }

      .cls-3 {
        fill: url(#linear-gradient-4);
      }

      .cls-4 {
        fill: url(#linear-gradient-3);
      }

      .cls-5 {
        fill: url(#linear-gradient-2);
      }

      .cls-6, .cls-7 {
        fill: #fff;
      }

      .cls-6, .cls-8 {
        mix-blend-mode: overlay;
      }

      .cls-9 {
        fill: url(#radial-gradient);
      }

      .cls-10 {
        fill: url(#linear-gradient);
      }

      .cls-11 {
        isolation: isolate;
      }

      .cls-12 {
        fill: #5c4b44;
      }
    </style>
    <radialGradient id="radial-gradient" cx="52.97" cy="3.88" fx="52.97" fy="3.88" r="33.76" gradientUnits="userSpaceOnUse">
      <stop offset=".08" stop-color="#fffcfe"/>
      <stop offset="1" stop-color="#e1dedd"/>
    </radialGradient>
    <linearGradient id="linear-gradient" x1="34.4" y1="35.59" x2="49.08" y2="35.74" gradientUnits="userSpaceOnUse">
      <stop offset="0" stop-color="#e1dedd"/>
      <stop offset=".95" stop-color="#2e1d14"/>
    </linearGradient>
    <linearGradient id="linear-gradient-2" x1="30.34" y1="36.19" x2="31.95" y2="40.25" xlink:href="#linear-gradient"/>
    <linearGradient id="linear-gradient-3" x1="34.68" y1="34.47" x2="36.28" y2="38.53" xlink:href="#linear-gradient"/>
    <radialGradient id="radial-gradient-2" cx="23.51" cy="3.64" fx="23.51" fy="3.64" r="53.71" xlink:href="#radial-gradient"/>
    <linearGradient id="linear-gradient-4" x1="20.65" y1="4.09" x2="21.58" y2=".18" gradientUnits="userSpaceOnUse">
      <stop offset="0" stop-color="#e1dedd"/>
      <stop offset=".85" stop-color="#2e1d14"/>
    </linearGradient>
    <linearGradient id="linear-gradient-5" x1="28.23" y1="5.9" x2="29.16" y2="1.99" xlink:href="#linear-gradient-4"/>
  </defs>
  <g class="cls-11">
    <g id="Layer_2" data-name="Layer 2">
      <g id="Layer_1-2" data-name="Layer 1">
        <g>
          <g>
            <path class="cls-9" d="M27.06,43.38c-.35,0-.71-.01-1.08-.03-5.47-.28-9.71-4.38-9.64-9.35,0-.37.03-.72.08-1.05.22-1.58.88-3.05,1.96-4.38,2.16-2.67,7-5.91,17.77-6.17,8.24-.2,13.26-2.31,14.13-5.95.82-3.4-1.95-7.57-4.95-9.19-1.87-1.01-3.99-1.52-6.28-1.52-3.34,0-5.9,1.08-6.18,1.21-.31.14-.65.22-.99.22-.92,0-1.77-.54-2.15-1.38-.55-1.18-.03-2.59,1.15-3.14.15-.07,3.61-1.66,8.17-1.66,1.47,0,2.91.17,4.29.49,1.48.35,2.91.89,4.25,1.61,4.59,2.47,8.69,8.71,7.31,14.46-1,4.19-5.04,9.25-18.63,9.58-4.41.11-7.99.75-10.65,1.9-2.86,1.24-4.51,3.08-4.53,5.03-.03,2.37,2.27,4.41,5.14,4.55.29.01.58.02.86.02.95,0,1.82-.08,2.67-.26.85-.18,1.66-.44,2.49-.8.79-.35,1.53-.76,2.21-1.15l1.61-.92c1.97-1.11,4.35-2.31,7.77-2.47.28-.02.57-.02.87-.02,1.68,0,3.47.24,5.45.74.61.15,1.13.54,1.45,1.08.33.54.42,1.18.26,1.8-.1.4-.31.77-.59,1.07-.22.23-.48.41-.78.54-.3.12-.6.18-.92.18-.2,0-.39-.03-.58-.07-1.62-.41-3.02-.61-4.31-.61-.35,0-.69.02-1.01.04-2.46.21-4.18,1.21-6.18,2.36-2.63,1.52-5.6,3.23-10.43,3.23Z"/>
            <path class="cls-12" d="M39.05,1.24c1.33,0,2.76.14,4.23.48,1.37.32,2.78.83,4.19,1.59,4.51,2.43,8.54,8.54,7.19,14.19-.98,4.1-4.97,9.07-18.39,9.39-4.81.12-8.3.86-10.74,1.92-3.3,1.44-4.66,3.45-4.68,5.25-.03,2.5,2.38,4.65,5.37,4.8.3.02.59.02.87.02,1.01,0,1.91-.1,2.72-.26.93-.19,1.76-.48,2.54-.82.77-.34,1.49-.74,2.23-1.16.22-.13.45-.25.67-.39.31-.17.62-.35.93-.53,2.06-1.16,4.39-2.28,7.66-2.44.28-.01.57-.02.86-.02,1.56,0,3.34.22,5.38.73,1.14.28,1.82,1.44,1.54,2.57-.09.37-.28.7-.53.96-.2.21-.44.37-.7.48-.26.11-.53.16-.82.16-.17,0-.35-.02-.52-.07-1.7-.43-3.13-.62-4.36-.62-.36,0-.7.02-1.04.05-2.51.21-4.26,1.23-6.28,2.39-2.61,1.5-5.54,3.2-10.31,3.2-.34,0-.7,0-1.07-.03-5.34-.27-9.47-4.27-9.4-9.1,0-.34.03-.68.08-1.02.2-1.45.81-2.91,1.9-4.26,2.63-3.26,8.1-5.85,17.58-6.08,8.37-.2,13.47-2.38,14.37-6.14.84-3.51-2-7.8-5.08-9.46-2.18-1.17-4.42-1.55-6.39-1.55-3.54,0-6.25,1.21-6.29,1.23-.29.13-.59.19-.89.19-.8,0-1.57-.46-1.93-1.23-.49-1.06-.03-2.31,1.03-2.81.22-.1,3.59-1.63,8.06-1.63M39.05.74h0c-4.62,0-8.13,1.61-8.27,1.68-1.3.61-1.87,2.16-1.27,3.47.43.92,1.36,1.52,2.38,1.52.38,0,.75-.08,1.09-.24.27-.12,2.79-1.18,6.08-1.18,2.25,0,4.32.5,6.16,1.49,2.92,1.57,5.62,5.62,4.83,8.91-.84,3.52-5.78,5.57-13.9,5.76-10.87.26-15.76,3.55-17.95,6.26-1.11,1.36-1.78,2.88-2.01,4.5-.05.34-.08.69-.08,1.08-.07,5.1,4.27,9.32,9.87,9.6.37.02.74.03,1.09.03,4.89,0,7.89-1.73,10.54-3.26,1.99-1.15,3.69-2.14,6.09-2.34.32-.03.66-.04.99-.04,1.26,0,2.65.2,4.24.6.21.05.42.08.64.08.35,0,.69-.07,1.01-.2.34-.15.63-.35.87-.6.32-.33.54-.74.65-1.18.17-.68.07-1.39-.29-1.99-.36-.6-.93-1.02-1.61-1.19-2-.5-3.8-.75-5.5-.75-.3,0-.6,0-.89.02-3.48.17-5.89,1.38-7.88,2.5l-.55.31-.39.22-.43.25-.25.14c-.68.39-1.41.79-2.18,1.14-.81.36-1.61.62-2.44.79-.83.17-1.69.25-2.62.25-.27,0-.55,0-.84-.02-2.73-.14-4.93-2.07-4.9-4.3.02-1.85,1.62-3.6,4.39-4.81,2.63-1.14,6.18-1.77,10.55-1.88,13.74-.33,17.84-5.5,18.86-9.77,1.41-5.87-2.76-12.22-7.43-14.74-1.36-.73-2.81-1.28-4.31-1.63-1.39-.33-2.85-.5-4.34-.5h0Z"/>
          </g>
          <path class="cls-10" d="M51.62,36.57c-.29,1.14-1.44,1.82-2.57,1.54-2.2-.56-3.93-.7-5.4-.57-.28-1.94-.1-3.31.19-4.25,1.77-.09,3.81.1,6.24.71,1.14.28,1.82,1.44,1.54,2.57Z"/>
          <path class="cls-5" d="M32.34,37.81c.16.79.53,1.68,1.16,2.53,0,0-2.63.31-3.7-1.71.93-.19,1.76-.48,2.54-.82Z"/>
          <path class="cls-4" d="M36.7,38.82s-1.23-.21-1.88-1.49c-.11-.21-.19-.44-.25-.68.22-.13.45-.25.67-.39.31-.17.62-.35.93-.53-.05.32-.06.66-.01.97.2,1.32.54,2.12.54,2.12Z"/>
          <path class="cls-8" d="M45.21,22.91c-6.86,2.77-14.06.48-21.31,3.49-4.48,1.86-6.41,4.7-7.23,6.59.69-4.96,6.08-10.02,19.48-10.34,8.37-.2,13.47-2.38,14.37-6.14.84-3.51-2-7.8-5.08-9.46-6.08-3.28-12.62-.35-12.68-.33-1.07.49-2.32.02-2.81-1.04s-.03-2.31,1.03-2.81c.28-.13,5.87-2.67,12.3-1.15-.25.13-.45.28-.57.46-1.54,2.2,3.76,1.89,7.43,7.13,3.67,5.24,1.94,10.83-4.92,13.6Z"/>
          <path class="cls-8" d="M51.62,36.57c-.09.37-.28.7-.53.96-.02-.73-.48-2.55-4.47-3.01-5.02-.57-8.78,1.81-13.93,4.87-5.14,3.07-13.18.57-12.73-4.39.38-4.12,4.25-5.75,5.56-6.19-3.3,1.44-4.66,3.45-4.68,5.25-.03,2.5,2.38,4.65,5.37,4.8,1.38.07,2.55-.03,3.59-.24.93-.19,1.76-.48,2.54-.82.77-.34,1.49-.74,2.23-1.16.22-.13.45-.25.67-.39.31-.17.62-.35.93-.53,2.06-1.16,4.39-2.28,7.66-2.44,1.77-.09,3.81.1,6.24.71,1.14.28,1.82,1.44,1.54,2.57Z"/>
          <path class="cls-6" d="M50.38,38.01c-.41.17-.88.22-1.34.1-2.2-.56-3.93-.7-5.4-.57-2.51.21-4.26,1.23-6.28,2.39-2.61,1.5-5.54,3.2-10.31,3.2-.34,0-.7,0-1.07-.03-5.34-.27-9.47-4.27-9.4-9.1,0-.34.03-.68.08-1.02.2-1.45.81-2.91,1.9-4.26-1.06,1.85-2.11,4.7-1.05,7.78,1.81,5.26,7.01,6.92,12.36,6.02,5.35-.9,8.57-5.23,13.66-5.53,2.21-.13,4.61.39,6.84,1.02Z"/>
          <ellipse class="cls-7" cx="27.67" cy="42.65" rx=".96" ry=".4"/>
          <ellipse class="cls-7" cx="28.81" cy="42.05" rx=".55" ry=".3"/>
        </g>
        <g>
          <g>
            <path class="cls-1" d="M4.58,17.4c-.07,0-.13-.03-.18-.08L.32,13.06c-.07-.07-.09-.18-.05-.28.02-.04.52-1.12,1.66-2.66C4.2,7.06,9.38,1.74,18.61.52c1.29-.18,2.65-.27,4.03-.27.37,0,.75,0,1.13.02.6.02,1.22.05,1.85.11.56.05,1.1.11,1.62.17,1.55.21,3,.52,4.29.92,3.43,1.04,6.11,2.75,7.98,5.07,3.67,4.57,2.91,10.03,2.9,10.08-.02.12-.12.21-.24.21,0,0-37.59.56-37.59.56Z"/>
            <path class="cls-12" d="M22.64.5c.37,0,.74,0,1.12.02.6.02,1.21.05,1.84.11.56.05,1.09.11,1.61.17,1.57.21,2.98.52,4.25.91,3.78,1.15,6.25,2.99,7.86,4.99,3.64,4.53,2.85,9.89,2.85,9.89l-37.59.56L.5,12.89s.5-1.08,1.64-2.61C4.49,7.09,9.61,1.96,18.64.76c1.26-.17,2.59-.26,4-.26M22.64,0c-1.4,0-2.77.09-4.07.27C9.26,1.51,4.02,6.89,1.73,9.98.58,11.53.07,12.63.05,12.68c-.09.19-.05.4.09.55l4.08,4.26c.09.1.22.15.36.15,0,0,0,0,0,0l37.59-.56c.24,0,.45-.18.48-.42.03-.23.78-5.62-2.96-10.27-1.9-2.36-4.62-4.1-8.1-5.16-1.3-.4-2.76-.72-4.32-.93-.62-.08-1.14-.13-1.64-.18-.59-.05-1.2-.09-1.86-.11-.38-.01-.76-.02-1.13-.02h0Z"/>
          </g>
          <path class="cls-3" d="M23.76.52c.12.67.17,1.42.02,2.14-.42,2.07-2.92,3.91-2.92,3.91,0,0-.03-1.96-.63-3.43-.3-.74-.99-1.65-1.59-2.38,1.58-.22,3.29-.31,5.12-.25Z"/>
          <path class="cls-2" d="M31.46,1.71c-.73,2.88-4.69,4.65-4.69,4.65,0,0,.93-2.07.87-3.79-.02-.57-.2-1.19-.42-1.77,1.57.21,2.98.52,4.25.91Z"/>
          <path class="cls-6" d="M39.31,6.7c-2.81-2.29-7.12-4.47-13.63-5.27C14.72.08,6.25,6.36,2.13,10.28,4.49,7.09,9.61,1.96,18.64.76c1.58-.22,3.29-.31,5.12-.25.6.02,1.21.05,1.84.11.56.05,1.09.11,1.61.17,1.57.21,2.98.52,4.25.91,3.78,1.15,6.25,2.99,7.86,4.99Z"/>
        </g>
      </g>
    </g>
  </g>
</svg>