<?xml version="1.0" encoding="UTF-8"?>
<svg xmlns="http://www.w3.org/2000/svg" xmlns:xlink="http://www.w3.org/1999/xlink" viewBox="0 0 42.51 45.85">
  <defs>
    <style>
      .cls-1, .cls-2 {
        fill: none;
      }

      .cls-3 {
        fill: #fbfcf7;
      }

      .cls-4 {
        fill: url(#radial-gradient-7);
      }

      .cls-5 {
        fill: url(#radial-gradient-6);
      }

      .cls-6 {
        fill: url(#radial-gradient-5);
      }

      .cls-7 {
        fill: url(#radial-gradient-4);
      }

      .cls-8 {
        fill: url(#radial-gradient-9);
      }

      .cls-9 {
        fill: url(#radial-gradient-8);
      }

      .cls-10 {
        fill: url(#radial-gradient-3);
      }

      .cls-11 {
        fill: url(#radial-gradient-2);
      }

      .cls-12 {
        fill: #de3c3c;
      }

      .cls-13 {
        fill: url(#linear-gradient-8);
      }

      .cls-14 {
        fill: url(#linear-gradient-7);
      }

      .cls-15 {
        fill: url(#linear-gradient-5);
      }

      .cls-16 {
        fill: url(#linear-gradient-6);
      }

      .cls-17 {
        fill: url(#linear-gradient-9);
      }

      .cls-18 {
        fill: url(#linear-gradient-4);
      }

      .cls-19 {
        fill: url(#linear-gradient-3);
      }

      .cls-20 {
        fill: url(#linear-gradient-2);
      }

      .cls-21 {
        fill: #acd2e3;
      }

      .cls-22 {
        fill: #fff;
      }

      .cls-22, .cls-23, .cls-24 {
        mix-blend-mode: overlay;
      }

      .cls-25 {
        fill: url(#radial-gradient);
      }

      .cls-26 {
        fill: url(#linear-gradient);
      }

      .cls-27 {
        fill: #fc8d8d;
      }

      .cls-28 {
        isolation: isolate;
      }

      .cls-29 {
        clip-path: url(#clippath-1);
      }

      .cls-30 {
        fill: #feb6a8;
      }

      .cls-31 {
        fill: #170e02;
      }

      .cls-32 {
        fill: #c1bcd6;
      }

      .cls-33 {
        fill: url(#radial-gradient-12);
      }

      .cls-34 {
        fill: url(#radial-gradient-14);
      }

      .cls-35 {
        fill: url(#radial-gradient-13);
      }

      .cls-36 {
        fill: url(#radial-gradient-10);
      }

      .cls-37 {
        fill: url(#radial-gradient-11);
      }

      .cls-38 {
        fill: url(#linear-gradient-10);
      }

      .cls-39 {
        fill: url(#linear-gradient-11);
      }

      .cls-2 {
        stroke: #5c4b44;
        stroke-linecap: round;
        stroke-linejoin: round;
        stroke-width: .39px;
      }

      .cls-24 {
        opacity: .65;
      }

      .cls-40 {
        fill: #565173;
        opacity: .39;
      }

      .cls-41 {
        fill: #1c1b21;
      }

      .cls-42 {
        clip-path: url(#clippath);
      }

      .cls-43 {
        fill: #5c4b44;
      }
    </style>
    <radialGradient id="radial-gradient" cx="34.81" cy="30.83" fx="34.81" fy="30.83" r="3.94" gradientUnits="userSpaceOnUse">
      <stop offset=".08" stop-color="#fffcfe"/>
      <stop offset="1" stop-color="#e1dedd"/>
    </radialGradient>
    <radialGradient id="radial-gradient-2" cx="14.78" cy="35.4" fx="14.78" fy="35.4" r="17.22" xlink:href="#radial-gradient"/>
    <radialGradient id="radial-gradient-3" cx="-138.65" cy="-25.37" fx="-138.65" fy="-25.37" r="64.35" gradientTransform="translate(162.56 15.74) rotate(-8.78)" xlink:href="#radial-gradient"/>
    <radialGradient id="radial-gradient-4" cx="-138.67" cy="-25.25" fx="-138.67" fy="-25.25" r="63.5" gradientTransform="translate(162.56 15.74) rotate(-8.78)" xlink:href="#radial-gradient"/>
    <radialGradient id="radial-gradient-5" cx="1510.03" cy="-212.14" fx="1510.03" fy="-212.14" r="32.55" gradientTransform="translate(1478.21 -464.88) rotate(154.05) scale(1 -1)" xlink:href="#radial-gradient"/>
    <radialGradient id="radial-gradient-6" cx="-240.72" cy="-73.56" fx="-240.72" fy="-73.56" r="33.79" gradientTransform="translate(279.77 12.94) rotate(-15.05)" xlink:href="#radial-gradient"/>
    <linearGradient id="linear-gradient" x1="-209.38" y1="-37.18" x2="-202.83" y2="-37.18" gradientTransform="translate(245.36 13.09) rotate(-13.13)" gradientUnits="userSpaceOnUse">
      <stop offset="0" stop-color="#e1dedd"/>
      <stop offset=".85" stop-color="#2e1d14"/>
    </linearGradient>
    <linearGradient id="linear-gradient-2" x1="-210.75" y1="-34.08" x2="-207" y2="-34.08" xlink:href="#linear-gradient"/>
    <linearGradient id="linear-gradient-3" x1="-209.8" y1="-41.11" x2="-204.38" y2="-41.11" xlink:href="#linear-gradient"/>
    <linearGradient id="linear-gradient-4" x1="1349.6" y1="-37.18" x2="1356.15" y2="-37.18" gradientTransform="translate(1334.22 -240.86) rotate(166.87) scale(1 -1)" xlink:href="#linear-gradient"/>
    <linearGradient id="linear-gradient-5" x1="1348.23" y1="-34.08" x2="1351.98" y2="-34.08" gradientTransform="translate(1334.22 -240.86) rotate(166.87) scale(1 -1)" xlink:href="#linear-gradient"/>
    <linearGradient id="linear-gradient-6" x1="1349.18" y1="-41.11" x2="1354.6" y2="-41.11" gradientTransform="translate(1334.22 -240.86) rotate(166.87) scale(1 -1)" xlink:href="#linear-gradient"/>
    <radialGradient id="radial-gradient-7" cx="-109.62" cy="25.2" fx="-109.62" fy="25.2" r="31.41" gradientTransform="translate(113.25 -26.88) rotate(-6.58)" xlink:href="#radial-gradient"/>
    <radialGradient id="radial-gradient-8" cx="-151.93" cy="-28.57" fx="-151.93" fy="-28.57" r="32.31" gradientTransform="translate(162.56 15.74) rotate(-8.78)" xlink:href="#radial-gradient"/>
    <clipPath id="clippath">
      <path class="cls-1" d="M25.86,19.81s-.6,2.15.58,4.03c1.74,2.76,5.06,1.56,5.97-.05s-.33-3.49-.33-3.49c0,0-2.3-4.49-6.22-.49Z"/>
    </clipPath>
    <linearGradient id="linear-gradient-7" x1="436.92" y1="-64.11" x2="436.92" y2="-67.48" gradientTransform="translate(466.63 -38.44) rotate(163.35) scale(1 -1)" gradientUnits="userSpaceOnUse">
      <stop offset="0" stop-color="#95b7c5"/>
      <stop offset=".24" stop-color="#8fb4c7"/>
      <stop offset=".53" stop-color="#80add0"/>
      <stop offset=".85" stop-color="#67a2dd"/>
      <stop offset="1" stop-color="#599ce5"/>
    </linearGradient>
    <radialGradient id="radial-gradient-9" cx="-273.73" cy="-71.06" fx="-273.73" fy="-71.06" r="4.07" gradientTransform="translate(312.33 7.71) rotate(-16.65)" gradientUnits="userSpaceOnUse">
      <stop offset=".14" stop-color="#1e0f26"/>
      <stop offset="1" stop-color="#000"/>
    </radialGradient>
    <clipPath id="clippath-1">
      <path class="cls-1" d="M17.41,22.08s1.69,1.45,1.75,3.67c.09,3.26-3.34,4.11-4.98,3.28s-1.66-3.08-1.66-3.08c0,0-.58-5.01,4.89-3.87Z"/>
    </clipPath>
    <linearGradient id="linear-gradient-8" x1="-510.13" y1="-68.56" x2="-510.13" y2="-71.92" gradientTransform="translate(524.99 -56.18) rotate(-17.16)" xlink:href="#linear-gradient-7"/>
    <radialGradient id="radial-gradient-10" cx="673.33" cy="-75.51" fx="673.33" fy="-75.51" r="4.07" gradientTransform="translate(678.88 -103.69) rotate(162.84) scale(1 -1)" xlink:href="#radial-gradient-9"/>
    <linearGradient id="linear-gradient-9" x1="-282.3" y1="-63.84" x2="-282.09" y2="-66.06" gradientTransform="translate(312.33 7.71) rotate(-16.65)" gradientUnits="userSpaceOnUse">
      <stop offset="0" stop-color="#feb6a8"/>
      <stop offset="1" stop-color="#feb6a8"/>
    </linearGradient>
    <linearGradient id="linear-gradient-10" x1="-390.01" y1="-125.65" x2="-389.59" y2="-121.32" gradientTransform="translate(423.91 -12.36) rotate(-23.08)" gradientUnits="userSpaceOnUse">
      <stop offset="0" stop-color="#fff73b"/>
      <stop offset="1" stop-color="#ffba00"/>
    </linearGradient>
    <linearGradient id="linear-gradient-11" x1="-377.28" y1="-124.08" x2="-376.85" y2="-119.75" xlink:href="#linear-gradient-10"/>
    <radialGradient id="radial-gradient-11" cx="-491.86" cy="-176.15" fx="-491.86" fy="-176.15" r="19.82" gradientTransform="translate(537.74 -56.04) rotate(-30.75)" xlink:href="#radial-gradient"/>
    <radialGradient id="radial-gradient-12" cx="22.37" cy="46.27" fx="22.37" fy="46.27" r="18.59" gradientUnits="userSpaceOnUse">
      <stop offset=".28" stop-color="#fffcfe"/>
      <stop offset="1" stop-color="#e1dedd"/>
    </radialGradient>
    <radialGradient id="radial-gradient-13" cx="408.57" cy="9.25" fx="408.57" fy="9.25" r="19.73" gradientTransform="translate(438.98 6.23) rotate(176.25) scale(1 -1)" xlink:href="#radial-gradient"/>
    <radialGradient id="radial-gradient-14" cx="35.53" cy="40.61" fx="35.53" fy="40.61" r="15.53" xlink:href="#radial-gradient"/>
  </defs>
  <g class="cls-28">
    <g id="Layer_2" data-name="Layer 2">
      <g id="Layer_1-2" data-name="Layer 1">
        <g>
          <path class="cls-25" d="M30.03,33.07c-.1,0-.18-.08-.2-.18,0-.06-.13-1.41,2.65-3.12,2.12-1.3,4.34-1.44,5.19-1.44.3,0,.47.02.47.02.08,0,.15.06.17.14l1.46,4.57c.02.06,0,.13-.03.18s-.1.08-.16.08c0,0-9.56-.26-9.56-.26Z"/>
          <path class="cls-43" d="M37.67,28.54c.29,0,.45.02.45.02l1.46,4.57-9.55-.26s-.15-1.26,2.56-2.92c2.05-1.26,4.18-1.41,5.08-1.41M37.67,28.14c-.87,0-3.13.14-5.29,1.47-2.85,1.74-2.77,3.16-2.75,3.31.02.2.19.35.39.36l9.55.26s0,0,.01,0c.13,0,.25-.06.32-.16.08-.11.1-.24.06-.37l-1.46-4.57c-.05-.15-.19-.27-.35-.28,0,0-.18-.02-.49-.02h0Z"/>
        </g>
        <g>
          <path class="cls-11" d="M17.99,42.08c-.32,0-5.92-.92-7.17-2.86-.3-.47-.33-.96-.1-1.46,1.29-2.81,7-3.96,7.25-4,.01,0,.03,0,.04,0,.05,0,.09.02.13.05.05.04.07.1.07.16.02,7.9,0,7.94-.01,7.99-.03.08-.12.14-.21.14h0Z"/>
          <path class="cls-43" d="M18,33.95s.02,7.86,0,7.92c0,0,0,0-.01,0-.36,0-8.32-1.34-7.09-4.03,1.26-2.75,7.1-3.89,7.1-3.89M18,33.54s-.05,0-.08,0c-.25.05-6.06,1.22-7.39,4.12-.26.56-.22,1.13.12,1.65,1.31,2.05,7,2.95,7.34,2.95.17,0,.34-.11.4-.28.03-.08.04-.12.02-8.05,0-.12-.05-.24-.15-.31-.07-.06-.16-.09-.26-.09h0Z"/>
        </g>
        <g>
          <g>
            <path class="cls-10" d="M18.25,35.37c-2.04,0-3.94-.21-5.67-.62-.89-.2-1.78-.49-2.64-.85-.98-.39-1.92-.9-2.78-1.51-.39-.28-.78-.58-1.11-.88-.05-.05-.08-.12-.06-.2.02-.07.07-.13.14-.15.36-.11.7-.29.85-.43h-.08c-1.05,0-1.76-.19-2.16-.57-.05-.05-.07-.11-.06-.18.01-.07.06-.12.12-.15h0s.11-.06.26-.25c.18-.21.51-.71.73-1.73.14-.75.2-1.53.18-2.37,0-.51-.04-1.07-.11-1.72-.2-1.98.06-4.27.74-6.44,1.7-5.49,5.7-9.35,10.98-10.58,1.15-.27,2.3-.4,3.43-.4,7.84,0,12.99,6.28,14.53,10.5,1.8,4.85,3.62,4.97,3.64,4.97.06,0,.13.04.16.09.04.05.05.12.02.18-.27.76-1.26,1.26-1.76,1.5.09.03.24.05.43.05.27,0,.52-.04.53-.04.01,0,.02,0,.03,0,.06,0,.12.03.16.08.05.06.05.14.02.21-3.31,8.1-14.6,10.91-14.71,10.94-.03,0-2.53.56-5.81.56Z"/>
            <path class="cls-43" d="M20.99,6.54c7.45,0,12.71,5.91,14.34,10.37,1.89,5.1,3.83,5.1,3.83,5.1-.33.91-1.91,1.47-1.91,1.52.06.25.43.31.77.31.3,0,.56-.04.56-.04-.01.03-.02.05-.03.07-3.28,8.03-14.54,10.75-14.54,10.75,0,0-2.47.56-5.76.56-1.73,0-3.68-.15-5.62-.62-.88-.2-1.76-.49-2.61-.84-.95-.38-1.88-.88-2.74-1.49-.37-.26-.75-.56-1.1-.87,0,0,1.19-.36,1.08-.82,0,0-.04,0-.1,0s-.15,0-.26,0c-.53,0-1.52-.04-2.02-.51,0,0,.15-.07.33-.3.24-.28.56-.83.77-1.81.12-.61.21-1.4.18-2.42,0-.52-.05-1.1-.11-1.73-.19-1.82.02-4.08.73-6.35,1.38-4.47,4.72-9.02,10.83-10.44,1.17-.27,2.3-.4,3.39-.4M38.59,23.79h0M21,6.14v.41-.41h0c-1.14,0-2.32.14-3.48.41-5.35,1.24-9.4,5.15-11.12,10.72-.69,2.19-.95,4.51-.74,6.52.07.64.1,1.2.11,1.7.02.84-.04,1.6-.18,2.34-.21.97-.51,1.43-.68,1.62-.13.16-.21.21-.21.21-.11.06-.2.18-.21.31s.02.26.12.35c.35.33.89.53,1.64.6-.06.02-.12.04-.18.06-.14.04-.25.16-.28.3-.03.14.02.29.13.39.34.31.74.62,1.13.9.88.62,1.83,1.14,2.83,1.54.87.36,1.77.65,2.67.86,1.74.42,3.66.63,5.71.63,3.3,0,5.74-.54,5.85-.57.47-.11,11.51-2.86,14.83-10.99h0c.04-.07.07-.15.07-.23,0-.22-.18-.41-.4-.41h0s-.05,0-.07,0c-.02,0-.08.01-.17.02.48-.29,1-.71,1.2-1.26.04-.12.03-.26-.05-.37-.08-.11-.2-.17-.33-.17,0,0-1.72-.17-3.45-4.84-1.57-4.27-6.78-10.63-14.72-10.63h0Z"/>
          </g>
          <path class="cls-7" d="M37.26,23.53c.11.47,1.33.26,1.33.26-.01.03-.02.05-.03.07-3.28,8.03-14.54,10.75-14.54,10.75,0,0-5.74,1.29-11.38-.06-.88-.2-1.76-.49-2.61-.84-.95-.38-1.88-.88-2.74-1.49-.37-.26-.75-.56-1.1-.87,0,0,1.19-.36,1.08-.82,0-.05-1.68.15-2.38-.52,0,0,.15-.07.33-.3.24-.28.56-.83.77-1.81.12-.61.21-1.4.18-2.42,0-.52-.05-1.1-.11-1.73-.19-1.82.02-4.08.73-6.35,1.38-4.47,4.7-9.09,10.83-10.44,10.75-2.37,15.86,4.87,17.73,9.97,1.89,5.1,3.83,5.1,3.83,5.1-.33.91-1.91,1.47-1.91,1.52Z"/>
          <g>
            <g>
              <path class="cls-6" d="M34.67,15.84c-2.55,0-12.44-8.8-12.86-9.18-.05-.05-.08-.12-.06-.19.01-.07.06-.13.13-.15.03-.01,2.94-1.14,5.12-3.68,1.39-1.62,2.73-2.44,3.99-2.44s2.47.86,3.5,2.56c2.22,3.63,1.88,10.51.87,12.7-.08.17-.26.38-.67.38Z"/>
              <path class="cls-43" d="M30.97.41c1.12,0,2.25.7,3.33,2.46,2.22,3.63,1.81,10.46.85,12.51-.08.18-.25.26-.49.26-2.51,0-12.73-9.12-12.73-9.12,0,0,2.96-1.13,5.2-3.74,1.18-1.37,2.5-2.37,3.83-2.37M30.98,0h0c-1.32,0-2.72.84-4.14,2.51-2.14,2.5-5.01,3.61-5.04,3.63-.13.05-.23.17-.25.31-.03.14.02.28.13.38,1.06.94,10.41,9.23,13,9.23.55,0,.77-.31.86-.5,1.03-2.23,1.38-9.21-.88-12.89-1.07-1.76-2.31-2.65-3.68-2.65h0Z"/>
            </g>
            <path class="cls-5" d="M35.91,8.03c.21,1.85.13,3.66-.13,4.99.07.57-.56,2.76-.79,3.06-.24.31-.75.44-3.68-1.16-2.84-1.55-8.36-6.3-9.35-7.05,0,0-.01-.01-.02-.02-.09-.07-.14-.11-.14-.11l-1.53-1.25s.07,0,.19-.02c.57-.07,2.33-.34,3.66-1.13.42-.27.87-.58,1.32-.95.57-.46,1.15-.99,1.69-1.63,2.16-2.52,4.81-3.77,7.16.09.9,1.48,1.4,3.34,1.61,5.17Z"/>
            <g>
              <path class="cls-30" d="M28.04,9.44s.36-5.36,2.47-6.65c2.35-1.44,3.94.14,3.79,6-.1,4.23-1.31,4.37-1.44,4.36s-2.73-1.99-2.94-2.17.3-.44.3-.44c0,0,0-.4-.39-.47s-.66.1-.66.1c0,0,.2-.21.15-.46s-.22-.41-.22-.41c0,0-.07.31-.32.48s-.51.11-.51.11c0,0,.16-.26.09-.48s-.31.02-.31.02Z"/>
              <path class="cls-24" d="M35.91,8.03c.21,1.85.13,3.66-.13,4.99.07.57-.62,2.79-.84,3.08-.24.31-1.08.54-4.01-1.06-2.84-1.55-7.97-6.43-8.96-7.17,0,0-.01-.01-.02-.02-.56-.54-1.06-1.01-1.48-1.38.57-.07,2.33-.34,3.66-1.13.42-.27.87-.58,1.32-.95.69.28,1.51.44,2.36.22,2.21-.59,2.6-1.87,3.6-2.22,1-.35,1.89.61,1.82.63s-2.16,0-2.41,2.2c-.25,2.2,1.86,4.1,4.06,3.36.41-.14.75-.33,1.04-.56Z"/>
              <path class="cls-43" d="M33.54,3.39c-1.43-1.76-3.09-.74-4.06.87-.94,1.54-1.02,3.4-1.24,5.15,0,0-.37-.14-.37-.14.08-.09.15-.23.41-.21.48.18.42.72.13,1.01,0,0-.13-.36-.13-.36.13,0,.31-.02.41-.09.12-.07.18-.19.2-.34.2-.45.61.15.63.44.04.24-.1.48-.25.6l-.19-.28c.47-.24,1.17-.09,1.23.5.01.06-.02.11-.07.13-.14.04-.3.15-.3.27,0,.15.24.27.34.39-.17-.02-.38-.15-.48-.36-.04-.27.19-.42.37-.5l-.07.13c-.12-.43-.55-.41-.87-.24-.18.09-.34-.16-.19-.28.21-.2.08-.41-.09-.58,0,0,.34-.12.34-.12-.05.5-.58.82-1.05.78-.17,0-.27-.23-.15-.35.06-.06.13-.18.1-.27,0-.04-.07-.08,0-.05.08-.01.02,0,0,.03-.1.21-.43.08-.37-.14.25-1.78.73-3.54,1.46-5.19.39-.8.97-1.65,1.92-1.94.9-.35,2.11.41,2.32,1.17h0Z"/>
            </g>
          </g>
          <g>
            <path class="cls-26" d="M37.99,25.05c.22-.39.42-.83.6-1.26,0,0-1.22.2-1.33-.26-.01-.05,1.57-.61,1.91-1.52,0,0-.16,0-.44-.13-2.37.08-5.88.67-6.09.95-.19.24,2.95,1.44,5.35,2.22Z"/>
            <path class="cls-20" d="M31.99,25.71c-.28.28.79,1.91,2.24,3.8.7-.57,1.36-1.21,1.97-1.91-1.33-.83-3.82-2.29-4.2-1.89Z"/>
            <path class="cls-19" d="M37.25,20.6c-.38-.5-.81-1.16-1.24-2.09-1.79.51-2.29.82-3.84,1.52-1.84.84,1.4.86,5.07.57Z"/>
          </g>
          <g>
            <path class="cls-18" d="M7.24,32.22c-.37-.26-.75-.56-1.1-.87,0,0,1.19-.36,1.08-.82-.01-.05-1.68.15-2.38-.52,0,0,.15-.07.34-.31,2.17-.98,5.57-2,5.88-1.84.27.13-2.01,2.6-3.81,4.36Z"/>
            <path class="cls-15" d="M12.92,30.16c.37.13.14,2.06-.32,4.4-.88-.2-1.76-.49-2.61-.84.83-1.33,2.42-3.75,2.93-3.56Z"/>
            <path class="cls-16" d="M5.94,27.9c.12-.61.21-1.4.18-2.42,1.83-.33,2.42-.28,4.11-.34,2.02-.06-.87,1.39-4.3,2.76Z"/>
          </g>
          <path class="cls-23" d="M38.56,23.86c-3.28,8.03-14.54,10.75-14.54,10.75,0,0-5.74,1.29-11.38-.06-.88-.2-1.76-.49-2.61-.84-.95-.38-1.88-.88-2.74-1.49-.37-.26-.75-.56-1.1-.87,0,0,1.19-.36,1.08-.82,0-.05-1.68.15-2.38-.52,0,0,.15-.07.33-.3.24-.28.56-.83.77-1.81.12-.61.21-1.4.18-2.42,0-.52-.05-1.1-.11-1.73-.19-1.82.02-4.08.73-6.35.94.97,1.78,1.71,2.07,2.18.8,1.32-.31,4.72.98,8.89,1.29,4.17,9.63,6.67,18.02,3.43,7.78-3,10.37-7.4,10.71-8.03Z"/>
          <g>
            <g>
              <path class="cls-4" d="M6.05,23.29c-.12,0-.24-.04-.35-.1C3.81,21.98.29,17.06.21,12.64c-.03-1.65.33-2.87,1.07-3.63.61-.62,1.48-.94,2.58-.94.75,0,1.63.15,2.6.44,1.21.37,2.52.55,3.91.55s2.37-.2,2.38-.2c.01,0,.03,0,.04,0,.06,0,.11.02.15.07.05.05.06.13.04.2-.48,1.45-4.78,14.16-6.94,14.16h0Z"/>
              <path class="cls-43" d="M3.86,8.27c.79,0,1.65.17,2.54.43,1.44.44,2.85.56,3.97.56,1.44,0,2.42-.2,2.42-.2,0,0-4.67,14.03-6.75,14.03-.08,0-.16-.02-.24-.07C3.9,21.8.49,16.89.41,12.63c-.06-3.26,1.43-4.36,3.45-4.36M3.86,7.86c-1.16,0-2.07.34-2.73,1C.35,9.67-.03,10.94,0,12.64c.09,4.49,3.67,9.49,5.59,10.72.14.09.29.14.46.14,2.2,0,6.02-10.95,7.14-14.3.05-.14.01-.29-.08-.4-.08-.09-.19-.14-.3-.14-.03,0-.05,0-.08,0,0,0-.96.19-2.34.19s-2.67-.18-3.86-.54c-.99-.3-1.88-.45-2.66-.45h0Z"/>
            </g>
            <path class="cls-9" d="M14.18,8.16l-.61,1.87s-2.65,7.3-4.38,10.43c-.3.55-.59,1.01-.86,1.4-1.16,1.65-1.98,1.87-2.27,1.76-.35-.13-1.19-1.11-1.44-1.63C2.76,20.02.48,16.12.41,12.63c-.05-2.79,1.02-4,2.6-4.29.98-.19,2.17-.01,3.39.36,1.43.43,2.8.55,3.92.55,1.82-.06,3.76-1.05,3.86-1.1Z"/>
            <g>
              <path class="cls-30" d="M9.22,14.81s-3.19-4.33-5.65-4.28c-2.76.05-3.25,2.23.02,7.1,2.36,3.51,3.46,2.98,3.56,2.91s1.23-3.14,1.31-3.42-.48-.21-.48-.21c0,0-.22-.33.07-.61s.61-.27.61-.27c0,0-.28-.08-.38-.3s-.03-.46-.03-.46c0,0,.23.23.53.23s.49-.18.49-.18c0,0-.27-.13-.33-.36s.27-.15.27-.15Z"/>
              <path class="cls-24" d="M8.33,21.86c-1.16,1.65-1.98,1.87-2.27,1.76-.35-.13-1.19-1.11-1.44-1.63C2.76,20.02.48,16.12.41,12.63c-.05-2.79,1.02-4,2.6-4.29-.31.6-.52,1.32-.58,2.2-.32,4.67,4.78,8.06,5.58,9.38.27.43.32,1.1.32,1.94Z"/>
              <path class="cls-43" d="M1.29,12.66c-.08-.92.38-2.01,1.37-2.23.96-.27,1.91.13,2.66.6,1.5,1.01,2.86,2.22,4.03,3.59.17.16-.04.44-.24.31-.03-.02-.1,0-.02-.03.04-.07,0,0,.03.04.03.09.14.15.23.17.17.04.21.28.06.37-.38.29-1,.31-1.31-.09,0,0,.35-.08.35-.08-.05.23-.04.48.24.54.2.03.19.33,0,.34-.36.03-.74.24-.6.67,0,0-.13-.07-.13-.07.2-.03.47-.02.58.22.03.23-.08.45-.21.56.11-.36.23-.7-.32-.58-.06.02-.11-.02-.13-.07-.27-.53.24-1.04.77-1.09,0,0,0,.34,0,.34-.19-.02-.44-.15-.53-.37-.1-.24-.17-.79.2-.77.16.07.27.26.45.23.13,0,.29-.06.4-.14l.09.38c-.39-.09-.74-.51-.43-.92.21-.15.35-.08.46-.04l-.23.31c-1.54-1.94-3.53-4.51-6.3-4.13-.96.2-1.21,1.12-1.45,1.91h0Z"/>
            </g>
          </g>
          <g>
            <path class="cls-12" d="M26.85,26.92s.12,1.35-.17,2.59c-.21.91-.63,1.76-1.48,2-1.08.3-2.02-.1-2.73-.63-.89-.67-1.43-1.55-1.43-1.55,0,0,.85.29,1.81-.2.96-.5.93-1.46,1.06-1.44.13.01.78.43,1.5.43.72,0,1.44-.89,1.45-1.2Z"/>
            <path class="cls-27" d="M26.68,29.52c-.21.91-.63,1.76-1.48,2-1.08.3-2.02-.1-2.73-.63.75-1.05,2.07-2.03,4.21-1.37Z"/>
            <path class="cls-41" d="M21.03,29.33c1.44,1.97,4.79,3.44,5.52.11.2-.81.28-1.66.29-2.52.16,1.27.18,2.67-.46,3.83-1.41,2.26-4.54.48-5.36-1.42h0Z"/>
            <g>
              <g class="cls-42">
                <path class="cls-3" d="M25.86,19.81s-.6,2.15.58,4.03c1.74,2.76,5.06,1.56,5.97-.05s-.33-3.49-.33-3.49c0,0-.41-5.06-6.22-.49Z"/>
                <path class="cls-40" d="M25,22.05s1.36-2.43,4.35-1.3,3.73,2.97,3.73,2.97c0,0,2.2-4.15,1.4-5.24s-6.58-2.21-6.58-2.21c0,0-5.21.61-5.16,1.59"/>
                <g>
                  <g>
                    <path class="cls-14" d="M25.92,23.12c.2.67.58,1.23,1.06,1.64.75.63,1.74.9,2.69.61.86-.26,1.5-.9,1.82-1.72.26-.67.31-1.45.08-2.22-.51-1.71-2.19-2.72-3.75-2.25s-2.41,2.23-1.9,3.94Z"/>
                    <path d="M25.93,23.12c1.31,3.92,6.76,2.36,5.58-1.67-1.36-3.93-6.58-2.33-5.58,1.67h0ZM25.91,23.12c-1.23-4.24,4.4-5.89,5.71-1.71,1.07,4.2-4.37,5.91-5.71,1.71h0Z"/>
                  </g>
                  <path class="cls-21" d="M26.98,24.76c.75.63,1.74.9,2.69.61.86-.26,1.5-.9,1.82-1.72-.38-.65-1.49-.91-2.63-.56-1.02.3-1.76.99-1.88,1.67Z"/>
                  <ellipse class="cls-31" cx="28.41" cy="22.46" rx="1.68" ry="1.85" transform="translate(-5.25 9.08) rotate(-16.65)"/>
                </g>
              </g>
              <path class="cls-8" d="M25.8,22.08s-.28-2.76,1.67-3.35,4,.56,4.67,1.94c.8,1.66.36,3.01.36,3.01,0,0,.97-1.98.07-3.81s-3.4-2.97-5.25-2.19-1.73,3.4-1.52,4.4Z"/>
            </g>
            <g>
              <g class="cls-29">
                <path class="cls-3" d="M17.41,22.08s1.69,1.45,1.75,3.67c.09,3.26-3.34,4.11-4.98,3.28s-1.66-3.08-1.66-3.08c0,0-2.48-4.43,4.89-3.87Z"/>
                <path class="cls-40" d="M19.37,23.47s-2.48-1.26-4.34,1.34c-1.85,2.6-1.45,4.54-1.45,4.54,0,0-4.14-2.22-4.08-3.57s4.23-5.5,4.23-5.5c0,0,4.67-2.39,5.17-1.55"/>
                <g>
                  <g>
                    <path class="cls-13" d="M19.2,24.87c.21.67.2,1.35.03,1.95-.27.94-.95,1.71-1.89,2-.85.26-1.75.08-2.47-.42-.59-.41-1.06-1.03-1.3-1.8-.53-1.71.31-3.48,1.86-3.96s3.24.51,3.77,2.22Z"/>
                    <path d="M19.21,24.87c1.22,4.24-4.24,5.84-5.69,1.76-1.25-4.21,4.35-5.96,5.69-1.76h0ZM19.19,24.88c-1.39-3.88-6.62-2.3-5.57,1.72,1.26,4,6.65,2.27,5.57-1.72h0Z"/>
                  </g>
                  <path class="cls-21" d="M19.23,26.83c-.27.94-.95,1.71-1.89,2-.85.26-1.75.08-2.47-.42-.05-.75.73-1.58,1.87-1.93,1.02-.31,2.01-.15,2.49.35Z"/>
                  <ellipse class="cls-31" cx="16.82" cy="25.68" rx="1.68" ry="1.85" transform="translate(-6.83 6.11) rotate(-17.16)"/>
                </g>
              </g>
              <path class="cls-36" d="M18.72,23.94s-1.3-2.45-3.25-1.86-3.01,2.7-2.8,4.21c.26,1.82,1.38,2.7,1.38,2.7,0,0-1.91-1.11-2.18-3.12s1.17-4.36,3.14-4.74c1.97-.39,3.33,1.86,3.71,2.81Z"/>
            </g>
            <path class="cls-32" d="M24.4,16.34c.48-1.26,2.13-1.62,3.28-1.09-.74.9-1.49,1.82-2.76,1.76-.35.01-.63-.33-.52-.67h0Z"/>
            <path class="cls-32" d="M16.47,19.54c-1.15.81-2.52.48-3.79.09.83-1.16,2.56-1.81,3.83-1,.32.22.28.71-.04.91h0Z"/>
            <g>
              <g>
                <path class="cls-17" d="M23.35,26.68c-.49,0-1.28-.22-1.37-.56-.02-.08,0-.15.05-.22.31-.39,1.04-.6,1.07-.61.02,0,.43-.13.84-.13.15,0,.28.02.39.05.09.03.15.1.17.19.07.34-.5,1.02-.97,1.27-.07.01-.12.01-.17.01Z"/>
                <path class="cls-41" d="M23.94,25.22c.13,0,.26.01.37.05.08.03.12.08.13.15.07.31-.5.98-.95,1.21-.05,0-.1,0-.15,0-.52,0-1.25-.24-1.32-.52-.01-.06,0-.11.04-.17.3-.37,1.04-.59,1.04-.59,0,0,.42-.13.82-.13M23.94,25.11h0c-.41,0-.84.13-.86.14-.03,0-.78.23-1.09.62-.06.09-.08.17-.06.27.1.37.91.6,1.42.6.06,0,.11,0,.16,0,.01,0,.03,0,.04-.01.45-.23,1.09-.93,1-1.33-.02-.11-.09-.19-.21-.23-.11-.04-.25-.06-.4-.06h0Z"/>
              </g>
              <path class="cls-22" d="M24.44,25.41c-1.1-.13-1.91.3-2.41.7-.01-.06,0-.11.04-.17.3-.37,1.04-.59,1.04-.59,0,0,.74-.23,1.19-.08.08.03.12.08.13.15Z"/>
              <ellipse class="cls-22" cx="23.16" cy="25.59" rx=".43" ry=".18" transform="translate(-6.36 7.71) rotate(-16.65)"/>
              <ellipse class="cls-22" cx="23.67" cy="25.7" rx=".19" ry=".1" transform="translate(-6.37 7.86) rotate(-16.65)"/>
            </g>
            <path class="cls-41" d="M19.93,28.52c1.03,1.4,3.43.66,3.76-.97.03-.13.2-.18.3-.09.79.66,2.28.64,2.73-.38.13-.33.13-.73.07-1.11.9,1.99-1.64,2.95-3.03,1.81,0,0,.3-.09.3-.09-.36,1.79-3.28,2.71-4.13.83h0Z"/>
            <path class="cls-38" d="M19.37,24.46c-2.02,1.4-2.23,1.94-1.75,4.35-1.4-2.02-1.94-2.23-4.35-1.75,2.02-1.4,2.23-1.94,1.75-4.35,1.4,2.02,1.94,2.23,4.35,1.75Z"/>
            <path class="cls-39" d="M31.7,20.91c-2.02,1.4-2.23,1.94-1.75,4.35-1.4-2.02-1.94-2.23-4.35-1.75,2.02-1.4,2.23-1.94,1.75-4.35,1.4,2.02,1.94,2.23,4.35,1.75Z"/>
          </g>
        </g>
        <g>
          <g>
            <path class="cls-37" d="M18.77,45.65c-3.76,0-7.4-2.03-8.45-4.71-.6-1.53-.25-3.01.98-4.16,1.17-1.09,1.88-1.26,2.2-1.26.09,0,.15.01.17.02.02,0,2.75.7,5.48,1.68.28.1.58.19.9.29,1.22.38,2.48.77,2.85,1.59.74,1.66.69,3.47-.12,4.72-.54.83-1.67,1.83-3.97,1.83h-.03Z"/>
            <path class="cls-43" d="M13.49,35.71c.07,0,.11.01.11.01,0,0,2.72.69,5.47,1.67,1.27.46,3.21.82,3.63,1.78,1.24,2.81.3,6.26-3.91,6.27h-.03c-6.21,0-10.84-5.27-7.34-8.53,1.16-1.08,1.82-1.2,2.06-1.2M13.49,35.32c-.42,0-1.17.23-2.33,1.31-1.3,1.21-1.66,2.77-1.03,4.38,1.09,2.76,4.8,4.84,8.64,4.84,2.41,0,3.59-1.05,4.16-1.92.86-1.33.91-3.16.14-4.91-.4-.91-1.71-1.32-2.98-1.7-.31-.1-.61-.19-.89-.29-2.73-.98-5.48-1.68-5.5-1.69-.01,0-.09-.02-.21-.02h0Z"/>
          </g>
          <path class="cls-33" d="M22.64,43.64c-.66,1.07-1.91,1.81-3.85,1.81-5.75.01-10.17-4.51-8.01-7.78.17-.26.39-.51.65-.76,0,0,.01,0,.02,0,.23-.22.49-.43.74-.61,1.05-.75,2.14-1.16,2.14-1.16l.76.41c.25.32,1.77,1,2.96,1.5.32.11.66.23,1.02.36.88.31,2.06.58,2.86,1.03h0c.36.21.64.45.77.74.67,1.51.7,3.21-.06,4.46Z"/>
          <path class="cls-23" d="M18.79,45.45c-5.75.01-10.17-4.51-8.01-7.78.1,1.33.85,2.81,3.04,4.1,3.41,2.01,6.86,2.55,7.94.12.59-1.31.44-2.58.18-3.46.36.21.64.45.77.74,1.24,2.81.3,6.26-3.91,6.27Z"/>
          <path class="cls-22" d="M22.64,43.64c-.66,1.07-1.91,1.81-3.85,1.81-5.75.01-10.17-4.51-8.01-7.78.17-.26.39-.51.65-.76,0,0,.01,0,.02,0,.23-.22.49-.43.74-.61-.76.78-1.86,2.07-1.36,4.05.8,3.17,5.34,4.81,8.36,4.84,1.73,0,2.83-.83,3.45-1.55Z"/>
          <path class="cls-2" d="M22.41,44.14s-.52-1.01-1.95-1.04"/>
          <path class="cls-2" d="M23.35,41.47s-.64-.75-2.02-.78"/>
        </g>
        <g>
          <g>
            <path class="cls-35" d="M34.96,40.96c-2.04,0-3.72-1.65-4.18-4.09-.17-.89.65-1.93,1.45-2.93.2-.26.4-.51.57-.75,1.69-2.34,2.77-3.65,2.78-3.67.05-.05,1.07-1.19,2.82-1.19.2,0,.4.01.61.05,1.67.25,2.8,1.27,3.17,2.88.55,2.4-.78,6.26-4.32,8.68-.99.67-1.96,1.01-2.9,1.01h0Z"/>
            <path class="cls-43" d="M38.4,28.54c.19,0,.38.01.58.04,4.74.71,3.9,7.69-1.24,11.2-1,.69-1.94.98-2.79.98-2.08,0-3.58-1.79-3.99-3.93-.19-1.03,1.2-2.43,1.99-3.53,1.7-2.36,2.77-3.66,2.77-3.66,0,0,.99-1.11,2.67-1.11M38.4,28.14c-1.84,0-2.92,1.2-2.97,1.25-.02.02-1.1,1.34-2.79,3.69-.17.23-.37.48-.57.74-.82,1.04-1.67,2.11-1.49,3.09.48,2.55,2.23,4.26,4.37,4.26.98,0,1.99-.35,3.01-1.05,3.17-2.17,5.07-5.99,4.4-8.89-.39-1.69-1.57-2.77-3.33-3.03-.21-.03-.43-.05-.64-.05h0Z"/>
          </g>
          <path class="cls-34" d="M33.55,40.47c1.15.51,2.6.41,4.2-.69,4.75-3.25,5.83-9.48,2.2-10.95-.29-.12-.61-.2-.96-.26-.01,0-.01,0-.02,0-.32-.05-.64-.08-.95-.08-1.29-.03-2.42.25-2.42.25l-.4.77c-.02.4-.89,1.83-1.59,2.91-.2.27-.42.56-.64.87-.55.75-1.37,1.65-1.77,2.47h0c-.18.38-.27.73-.21,1.05.31,1.63,1.24,3.04,2.58,3.64Z"/>
          <path class="cls-23" d="M37.75,39.78c4.75-3.25,5.83-9.48,2.2-10.95.67,1.15.89,2.8-.18,5.09-1.67,3.58-4.21,5.99-6.48,4.6-1.23-.75-1.82-1.88-2.11-2.75-.18.37-.27.73-.21,1.05.57,3.02,3.3,5.33,6.78,2.95Z"/>
          <path class="cls-22" d="M33.55,40.47c1.15.51,2.6.41,4.2-.69,4.75-3.25,5.83-9.48,2.2-10.95-.29-.12-.61-.2-.96-.26-.01,0-.01,0-.02,0-.32-.05-.64-.08-.95-.08,1.07.21,2.71.66,3.41,2.57,1.13,3.06-1.67,6.99-4.15,8.72-1.42.99-2.8.92-3.72.68Z"/>
          <path class="cls-2" d="M34.02,40.75s-.15-1.13,1.01-1.96"/>
          <path class="cls-2" d="M31.74,39.09s.1-.98,1.22-1.79"/>
        </g>
      </g>
    </g>
  </g>
</svg>