<?xml version="1.0" encoding="UTF-8"?>
<svg xmlns="http://www.w3.org/2000/svg" xmlns:xlink="http://www.w3.org/1999/xlink" viewBox="0 0 51.31 38.79">
  <defs>
    <style>
      .cls-1 {
        fill: #4d3227;
      }

      .cls-2 {
        fill: url(#radial-gradient-7);
      }

      .cls-3 {
        fill: url(#radial-gradient-6);
      }

      .cls-4 {
        fill: url(#radial-gradient-5);
      }

      .cls-5 {
        fill: url(#radial-gradient-4);
      }

      .cls-6 {
        fill: url(#radial-gradient-9);
      }

      .cls-7 {
        fill: url(#radial-gradient-8);
      }

      .cls-8 {
        fill: url(#radial-gradient-3);
      }

      .cls-9 {
        fill: url(#radial-gradient-2);
      }

      .cls-10 {
        fill: url(#linear-gradient-2);
      }

      .cls-11 {
        fill: url(#linear-gradient-11);
      }

      .cls-11, .cls-12, .cls-13, .cls-14, .cls-15, .cls-16, .cls-17, .cls-18, .cls-19, .cls-20, .cls-21, .cls-22, .cls-23, .cls-24, .cls-25, .cls-26 {
        mix-blend-mode: overlay;
      }

      .cls-11, .cls-13 {
        opacity: .47;
      }

      .cls-27 {
        stroke: #1f1b19;
        stroke-linecap: round;
        stroke-linejoin: round;
        stroke-width: .59px;
      }

      .cls-27, .cls-28 {
        fill: #39332e;
      }

      .cls-12, .cls-29 {
        fill: #fff;
      }

      .cls-30 {
        fill: #fec7af;
      }

      .cls-31 {
        fill: url(#radial-gradient);
      }

      .cls-32 {
        fill: #f58a80;
      }

      .cls-33, .cls-13 {
        fill: #302723;
      }

      .cls-34 {
        isolation: isolate;
      }

      .cls-14 {
        fill: url(#linear-gradient);
      }

      .cls-35 {
        fill: #1e3d8f;
      }

      .cls-36 {
        fill: #feb6a8;
      }

      .cls-15 {
        fill: url(#linear-gradient-8);
      }

      .cls-16 {
        fill: url(#linear-gradient-4);
      }

      .cls-17 {
        fill: url(#linear-gradient-9);
      }

      .cls-18 {
        fill: url(#linear-gradient-6);
      }

      .cls-19 {
        fill: url(#linear-gradient-5);
      }

      .cls-20 {
        fill: url(#linear-gradient-7);
      }

      .cls-37 {
        fill: url(#radial-gradient-16);
      }

      .cls-38 {
        fill: url(#radial-gradient-12);
      }

      .cls-39 {
        fill: url(#radial-gradient-14);
      }

      .cls-40 {
        fill: url(#radial-gradient-13);
      }

      .cls-41 {
        fill: url(#radial-gradient-10);
      }

      .cls-42 {
        fill: url(#radial-gradient-17);
      }

      .cls-43 {
        fill: url(#radial-gradient-19);
      }

      .cls-44 {
        fill: url(#radial-gradient-11);
      }

      .cls-45 {
        fill: url(#radial-gradient-18);
      }

      .cls-46 {
        fill: url(#radial-gradient-15);
      }

      .cls-47 {
        fill: url(#radial-gradient-25);
      }

      .cls-48 {
        fill: url(#radial-gradient-22);
      }

      .cls-49 {
        fill: url(#radial-gradient-28);
      }

      .cls-50 {
        fill: url(#radial-gradient-23);
      }

      .cls-51 {
        fill: url(#radial-gradient-20);
      }

      .cls-52 {
        fill: url(#radial-gradient-24);
      }

      .cls-53 {
        fill: url(#radial-gradient-26);
      }

      .cls-54 {
        fill: url(#radial-gradient-29);
      }

      .cls-55 {
        fill: url(#radial-gradient-27);
      }

      .cls-56 {
        fill: url(#radial-gradient-21);
      }

      .cls-57 {
        fill: url(#radial-gradient-31);
      }

      .cls-58 {
        fill: url(#radial-gradient-30);
      }

      .cls-59 {
        fill: #381912;
      }

      .cls-21 {
        fill: url(#linear-gradient-10);
      }

      .cls-22 {
        fill: url(#linear-gradient-12);
      }

      .cls-23 {
        fill: url(#linear-gradient-13);
      }

      .cls-60 {
        fill: #202020;
        opacity: .39;
      }

      .cls-60, .cls-61 {
        mix-blend-mode: multiply;
      }

      .cls-61 {
        fill: #b57553;
      }

      .cls-62 {
        fill: url(#linear-gradient-14);
      }

      .cls-63 {
        fill: url(#linear-gradient-15);
      }

      .cls-64 {
        fill: url(#linear-gradient-16);
      }

      .cls-65 {
        fill: url(#linear-gradient-3);
        mix-blend-mode: soft-light;
      }

      .cls-25 {
        opacity: .49;
      }

      .cls-26 {
        opacity: .58;
      }

      .cls-66 {
        fill: #1f1b19;
      }

      .cls-67 {
        fill: #ba3432;
      }

      .cls-68 {
        fill: #fe7571;
      }

      .cls-69 {
        fill: #ba9b62;
      }

      .cls-70 {
        fill: #473a34;
      }
    </style>
    <radialGradient id="radial-gradient" cx="9.27" cy="40.26" fx="9.27" fy="40.26" r="3.73" gradientTransform="translate(9.39 -8.54) rotate(-.48)" gradientUnits="userSpaceOnUse">
      <stop offset="0" stop-color="#fff5f0"/>
      <stop offset="1" stop-color="#ffe0d9"/>
    </radialGradient>
    <radialGradient id="radial-gradient-2" cx="9.34" cy="39.35" fx="9.34" fy="39.35" r="2.65" xlink:href="#radial-gradient"/>
    <radialGradient id="radial-gradient-3" cx="-58.89" cy="19.88" fx="-58.89" fy="19.88" r="26.62" gradientTransform="translate(73.17 -21.22) rotate(-4.82)" gradientUnits="userSpaceOnUse">
      <stop offset=".01" stop-color="#fbfff7"/>
      <stop offset=".98" stop-color="#ebe9e4"/>
    </radialGradient>
    <radialGradient id="radial-gradient-4" cx="-55.57" cy="39.64" fx="-55.57" fy="39.64" r="12.24" gradientTransform="translate(73.17 -21.22) rotate(-4.82)" xlink:href="#radial-gradient"/>
    <radialGradient id="radial-gradient-5" cx="-58.35" cy="20.43" fx="-58.35" fy="20.43" r="25.95" xlink:href="#radial-gradient-3"/>
    <radialGradient id="radial-gradient-6" cx="-58.36" cy="20.58" fx="-58.36" fy="20.58" r="25.68" xlink:href="#radial-gradient-3"/>
    <radialGradient id="radial-gradient-7" cx="-58.52" cy="20.51" fx="-58.52" fy="20.51" r="26.38" xlink:href="#radial-gradient-3"/>
    <radialGradient id="radial-gradient-8" cx="-58.36" cy="20.58" fx="-58.36" fy="20.58" r="25.68" xlink:href="#radial-gradient-3"/>
    <radialGradient id="radial-gradient-9" cx="-58.55" cy="20.3" fx="-58.55" fy="20.3" r="26.34" xlink:href="#radial-gradient-3"/>
    <radialGradient id="radial-gradient-10" cx="-58.36" cy="20.58" fx="-58.36" fy="20.58" r="25.68" xlink:href="#radial-gradient-3"/>
    <radialGradient id="radial-gradient-11" cx="-58.23" cy="20.31" fx="-58.23" fy="20.31" r="26.23" xlink:href="#radial-gradient-3"/>
    <radialGradient id="radial-gradient-12" cx="-58.36" cy="20.58" fx="-58.36" fy="20.58" r="25.69" xlink:href="#radial-gradient-3"/>
    <radialGradient id="radial-gradient-13" cx="-58.39" cy="20.3" fx="-58.39" fy="20.3" r="26.24" xlink:href="#radial-gradient-3"/>
    <radialGradient id="radial-gradient-14" cx="-58.36" cy="20.58" fx="-58.36" fy="20.58" r="25.68" xlink:href="#radial-gradient-3"/>
    <radialGradient id="radial-gradient-15" cx="-57.99" cy="20.18" fx="-57.99" fy="20.18" r="26.23" xlink:href="#radial-gradient-3"/>
    <radialGradient id="radial-gradient-16" cx="-58.36" cy="20.58" fx="-58.36" fy="20.58" r="25.68" xlink:href="#radial-gradient-3"/>
    <radialGradient id="radial-gradient-17" cx="-58.51" cy="20.53" fx="-58.51" fy="20.53" r="26.3" xlink:href="#radial-gradient-3"/>
    <radialGradient id="radial-gradient-18" cx="-58.22" cy="20.63" fx="-58.22" fy="20.63" r="26.88" xlink:href="#radial-gradient-3"/>
    <radialGradient id="radial-gradient-19" cx="-58.3" cy="21.02" fx="-58.3" fy="21.02" r="28.35" xlink:href="#radial-gradient-3"/>
    <radialGradient id="radial-gradient-20" cx="-58.12" cy="20.45" fx="-58.12" fy="20.45" r="26.33" xlink:href="#radial-gradient-3"/>
    <radialGradient id="radial-gradient-21" cx="-58.36" cy="20.58" fx="-58.36" fy="20.58" r="25.68" xlink:href="#radial-gradient-3"/>
    <radialGradient id="radial-gradient-22" cx="-68.6" cy="25.58" fx="-68.6" fy="25.58" r="2.89" xlink:href="#radial-gradient-3"/>
    <linearGradient id="linear-gradient" x1="265.49" y1="-651.82" x2="266.41" y2="-652.27" gradientTransform="translate(332.76 665.85) rotate(176.72) scale(1 -1)" gradientUnits="userSpaceOnUse">
      <stop offset="0" stop-color="#fff"/>
      <stop offset="1" stop-color="#fff" stop-opacity="0"/>
    </linearGradient>
    <linearGradient id="linear-gradient-2" x1="-685.23" y1="-850.18" x2="-695.53" y2="-843.87" gradientTransform="translate(-674.63 -806.52) rotate(-79.74) scale(1 -1)" gradientUnits="userSpaceOnUse">
      <stop offset=".05" stop-color="#83faff"/>
      <stop offset=".34" stop-color="#7ff9fe"/>
      <stop offset=".61" stop-color="#74f6fb"/>
      <stop offset=".85" stop-color="#62f1f8"/>
      <stop offset="1" stop-color="#54edf5"/>
    </linearGradient>
    <linearGradient id="linear-gradient-3" x1="-687.57" y1="-843.22" x2="-692.87" y2="-850.04" gradientTransform="translate(-674.63 -806.52) rotate(-79.74) scale(1 -1)" gradientUnits="userSpaceOnUse">
      <stop offset="0" stop-color="#3f65b8" stop-opacity="0"/>
      <stop offset=".7" stop-color="#000"/>
    </linearGradient>
    <linearGradient id="linear-gradient-4" x1="-691.64" y1="-845.72" x2="-690.83" y2="-847.37" gradientTransform="translate(-674.63 -806.52) rotate(-79.74) scale(1 -1)" xlink:href="#linear-gradient"/>
    <linearGradient id="linear-gradient-5" x1="-693.18" y1="-844.78" x2="-692.48" y2="-846.19" gradientTransform="translate(-674.63 -806.52) rotate(-79.74) scale(1 -1)" xlink:href="#linear-gradient"/>
    <radialGradient id="radial-gradient-23" cx="300.56" cy="-26.39" fx="300.56" fy="-26.39" r="1.44" gradientTransform="translate(-265.3 -36.61) rotate(18.05)" xlink:href="#radial-gradient"/>
    <linearGradient id="linear-gradient-6" x1="47.12" y1="31.69" x2="44.33" y2="36.37" gradientUnits="userSpaceOnUse">
      <stop offset="0" stop-color="#fff"/>
      <stop offset=".16" stop-color="#fefefe" stop-opacity=".99"/>
      <stop offset=".29" stop-color="#fbfbfb" stop-opacity=".95"/>
      <stop offset=".41" stop-color="#f7f7f7" stop-opacity=".88"/>
      <stop offset=".52" stop-color="#f1f1f1" stop-opacity=".79"/>
      <stop offset=".63" stop-color="#e9e9e9" stop-opacity=".67"/>
      <stop offset=".74" stop-color="#e0e0e0" stop-opacity=".52"/>
      <stop offset=".84" stop-color="#d4d4d4" stop-opacity=".34"/>
      <stop offset=".94" stop-color="#c7c7c7" stop-opacity=".14"/>
      <stop offset="1" stop-color="#bfbfbf" stop-opacity="0"/>
    </linearGradient>
    <linearGradient id="linear-gradient-7" x1="48.33" y1="19.07" x2="47.87" y2="23.02" gradientUnits="userSpaceOnUse">
      <stop offset="0" stop-color="#fff"/>
      <stop offset="1" stop-color="#bfbfbf" stop-opacity="0"/>
    </linearGradient>
    <linearGradient id="linear-gradient-8" x1="38.65" y1="24.13" x2="44.8" y2="35.53" xlink:href="#linear-gradient-6"/>
    <linearGradient id="linear-gradient-9" x1="49.18" y1="34.53" x2="48.66" y2="32.34" gradientUnits="userSpaceOnUse">
      <stop offset=".22" stop-color="#fff"/>
      <stop offset="1" stop-color="#bfbfbf" stop-opacity="0"/>
    </linearGradient>
    <linearGradient id="linear-gradient-10" x1="48.24" y1="33.15" x2="47.5" y2="30.04" xlink:href="#linear-gradient-7"/>
    <radialGradient id="radial-gradient-24" cx="48.92" cy="28.86" fx="48.92" fy="28.86" r="2.14" gradientUnits="userSpaceOnUse">
      <stop offset="0" stop-color="#b8764b"/>
      <stop offset=".16" stop-color="#b27248"/>
      <stop offset=".35" stop-color="#a36842"/>
      <stop offset=".56" stop-color="#895838"/>
      <stop offset=".79" stop-color="#664129"/>
      <stop offset="1" stop-color="#40291a"/>
    </radialGradient>
    <linearGradient id="linear-gradient-11" x1="46" y1="26.14" x2="45.97" y2="29.77" gradientUnits="userSpaceOnUse">
      <stop offset="0" stop-color="#000"/>
      <stop offset=".96" stop-color="#302723" stop-opacity="0"/>
    </linearGradient>
    <linearGradient id="linear-gradient-12" x1="36.4" y1="22.58" x2="39.98" y2="29.54" xlink:href="#linear-gradient-6"/>
    <linearGradient id="linear-gradient-13" x1="36.99" y1="20.67" x2="39.26" y2="24.63" xlink:href="#linear-gradient-7"/>
    <radialGradient id="radial-gradient-25" cx="42.31" cy="28.97" fx="42.31" fy="28.97" r="3.21" gradientUnits="userSpaceOnUse">
      <stop offset="0" stop-color="#fff"/>
      <stop offset=".13" stop-color="#fcfbf9"/>
      <stop offset=".3" stop-color="#f5f1ea"/>
      <stop offset=".48" stop-color="#eae1d0"/>
      <stop offset=".68" stop-color="#dbcbad"/>
      <stop offset=".88" stop-color="#c7ae80"/>
      <stop offset="1" stop-color="#ba9b62"/>
    </radialGradient>
    <radialGradient id="radial-gradient-26" cx="43.45" cy="28.05" fx="43.45" fy="28.05" r="1.96" gradientUnits="userSpaceOnUse">
      <stop offset="0" stop-color="#fff"/>
      <stop offset=".05" stop-color="#faf8f4" stop-opacity=".93"/>
      <stop offset=".32" stop-color="#e3d7c1" stop-opacity=".61"/>
      <stop offset=".56" stop-color="#d1bd98" stop-opacity=".35"/>
      <stop offset=".76" stop-color="#c4aa7a" stop-opacity=".16"/>
      <stop offset=".91" stop-color="#bc9f68" stop-opacity=".04"/>
      <stop offset="1" stop-color="#ba9b62" stop-opacity="0"/>
    </radialGradient>
    <radialGradient id="radial-gradient-27" cx="45.28" cy="18.96" fx="45.28" fy="18.96" r="10.56" gradientUnits="userSpaceOnUse">
      <stop offset=".13" stop-color="#43f05a"/>
      <stop offset=".25" stop-color="#41ea57"/>
      <stop offset=".4" stop-color="#3cd951"/>
      <stop offset=".58" stop-color="#35be47"/>
      <stop offset=".77" stop-color="#2a9939"/>
      <stop offset=".83" stop-color="#278c34"/>
    </radialGradient>
    <radialGradient id="radial-gradient-28" cx="45.27" cy="19.05" fx="45.27" fy="19.05" r="10.44" xlink:href="#radial-gradient-27"/>
    <radialGradient id="radial-gradient-29" cx="50.73" cy="27.3" fx="50.73" fy="27.3" r="2.79" gradientUnits="userSpaceOnUse">
      <stop offset=".28" stop-color="#fff"/>
      <stop offset=".36" stop-color="#fcfbf9"/>
      <stop offset=".47" stop-color="#f5f1ea"/>
      <stop offset=".58" stop-color="#eae1d0"/>
      <stop offset=".71" stop-color="#dbcbad"/>
      <stop offset=".84" stop-color="#c7ae80"/>
      <stop offset=".91" stop-color="#ba9b62"/>
    </radialGradient>
    <radialGradient id="radial-gradient-30" cx="50.73" cy="27.3" fx="50.73" fy="27.3" r="2.79" xlink:href="#radial-gradient-25"/>
    <radialGradient id="radial-gradient-31" cx="-329.93" cy="-71.17" fx="-329.93" fy="-71.17" r="1.96" gradientTransform="translate(312.76 97.45) scale(.79 1)" xlink:href="#radial-gradient-26"/>
    <linearGradient id="linear-gradient-14" x1="161.84" y1="20.97" x2="162.2" y2="24.65" gradientTransform="translate(-118.24 -33.38) rotate(7.78)" gradientUnits="userSpaceOnUse">
      <stop offset="0" stop-color="#fff73b"/>
      <stop offset="1" stop-color="#ffba00"/>
    </linearGradient>
    <linearGradient id="linear-gradient-15" x1="-481.98" y1="-259.84" x2="-481.62" y2="-256.16" gradientTransform="translate(575.73 -76.47) rotate(-37.22)" xlink:href="#linear-gradient-14"/>
    <linearGradient id="linear-gradient-16" x1="552.2" y1="-49.95" x2="552.56" y2="-46.27" gradientTransform="translate(-449.09 -244.72) rotate(32.79)" xlink:href="#linear-gradient-14"/>
  </defs>
  <g class="cls-34">
    <g id="Layer_2" data-name="Layer 2">
      <g id="Layer_1-2" data-name="Layer 1">
        <g>
          <g>
            <g>
              <g>
                <path class="cls-28" d="M16.58,38.02c-4.49,0-4.49-.59-4.49-.88,0-1.19,1.54-4.93,1.6-5.08.04-.09.11-.15.21-.16,0,0,9.66-1.08,9.67-1.08.09,0,.18.05.22.13,0,0,.57,1.03,1.11,2.21,1.16,2.54,1.08,3.28.92,3.61-.08.17-.32.67-4.41,1.04-1.55.14-3.31.22-4.84.22Z"/>
                <path class="cls-66" d="M23.57,31.07s.56,1.01,1.1,2.19c.6,1.32,1.18,2.85.92,3.39-.18.37-1.98.69-4.2.89-1.54.14-3.27.22-4.81.22-2.35,0-4.24-.18-4.24-.62,0-1.15,1.58-4.99,1.58-4.99l9.64-1.08M23.57,30.56s-.04,0-.06,0l-9.64,1.08c-.18.02-.34.14-.41.31-.17.4-1.63,3.97-1.62,5.18,0,.57.37,1.13,4.75,1.13,1.53,0,3.3-.08,4.86-.22,4.23-.38,4.48-.9,4.61-1.18.21-.44.26-1.23-.92-3.83-.54-1.19-1.09-2.18-1.12-2.22-.09-.16-.26-.26-.45-.26h0Z"/>
              </g>
              <path class="cls-60" d="M21.39,37.55c-3.88.35-9.05.32-9.05-.41,0-1.15,1.58-4.99,1.58-4.99l9.64-1.08s-.2.26.34,1.44c-1.41.54-2.09.37-3.54.52-2.19.24-3.45,3.1-.77,3.6,1.13.21,1.62.57,1.8.9Z"/>
              <g>
                <path class="cls-31" d="M17.24,32.61c-1.11,0-3.04-.11-3.51-.82-.13-.19-.14-.41-.04-.64.58-1.34,2.39-1.45,2.93-1.45.13,0,.2,0,.2,0l4.43-.21c.45.11,1.37.39,1.52.76.04.11.07.3-.03.54-.15.34-.6.85-1.89,1.35-.7.27-2.15.46-3.61.46Z"/>
                <path class="cls-59" d="M21.25,29.69s1.2.31,1.33.64c.13.32-.17,1-1.81,1.64-.69.27-2.14.44-3.54.44-1.92,0-3.74-.33-3.37-1.18.53-1.22,2.19-1.33,2.75-1.33.12,0,.19,0,.19,0l4.45-.21M21.25,29.3s-.01,0-.02,0l-4.44.21s-.08,0-.18,0c-.73,0-2.5.15-3.11,1.56-.12.29-.1.58.06.82.49.75,2.27.9,3.67.9,1.48,0,2.95-.19,3.68-.47,1.07-.42,1.76-.92,2-1.46.1-.24.12-.48.03-.69-.17-.42-.96-.71-1.59-.87-.03,0-.07-.01-.1-.01h0Z"/>
              </g>
              <g>
                <path class="cls-9" d="M18.89,31.63c-2.11,0-3.52-2.02-3.53-2.04-.04-.06-.04-.13-.02-.19.03-.06.09-.1.16-.11.59-.06,5.8-.59,5.99-.59.09.03.21.2.2.29-.09.65-.75,2.54-2.62,2.64h-.17Z"/>
                <path class="cls-59" d="M21.49,28.89s0,0,0,0c.05.01-.37,2.43-2.44,2.54-.05,0-.11,0-.16,0-1.98,0-3.34-1.91-3.37-1.95,0,0,5.79-.59,5.97-.59M21.49,28.5c-.19,0-4.65.46-6.01.6-.14.01-.25.1-.31.22-.06.12-.05.27.03.38.01.02,1.5,2.12,3.69,2.12.06,0,.12,0,.18,0,2-.1,2.71-2.11,2.8-2.81.05-.35-.17-.46-.26-.49-.04-.01-.08-.02-.12-.02h0Z"/>
              </g>
              <g>
                <path class="cls-28" d="M18.63,32.36c-1.77,0-2.79-1.44-3.04-2.42-.06-.22-.05-.35.01-.44.02-.03.13-.08.17-.08.26,0,.71.43.8.52,0,0,1.11,1.02,2.39,1.02.13,0,.26-.01.4-.03,1.39-.24,1.37-1.43,1.37-1.48,0-.06.04-.1.09-.11,0,0,.46-.09.47-.09.02,0,.05,0,.07.02.02.02.04.05.04.08,0,.03.2,2.48-2.08,2.93-.24.05-.47.07-.68.07Z"/>
                <path class="cls-66" d="M21.27,29.37s.22,2.38-1.98,2.81c-.23.05-.45.07-.66.07-1.78,0-2.72-1.52-2.94-2.33-.07-.28-.03-.38.07-.38.23,0,.72.49.72.49,0,0,1.13,1.06,2.47,1.06.14,0,.27-.01.41-.04,1.51-.26,1.46-1.59,1.46-1.59l.44-.08M21.27,29.15s-.03,0-.04,0l-.44.08c-.11.02-.19.12-.18.23,0,.05.01,1.14-1.28,1.36-.12.02-.25.03-.38.03-1.23,0-2.3-.99-2.31-1-.2-.2-.59-.55-.87-.55-.11,0-.2.04-.26.12-.12.15-.08.37-.03.54.26,1,1.32,2.5,3.15,2.5.23,0,.47-.02.71-.07,2.38-.47,2.17-3.03,2.16-3.05,0-.06-.04-.12-.09-.16-.04-.03-.09-.05-.14-.05h0Z"/>
              </g>
              <g>
                <path class="cls-28" d="M14.67,33.77c-.56,0-1.53-.05-1.76-.38-.06-.08-.07-.18-.04-.27.13-.4.11-.56.07-.86-.02-.13-.04-.29-.05-.5-.02-.26.07-.5.24-.68.15-.16.43-.35.92-.35.39,0,.84.12,1.33.36,1.52.73,3.83,1.36,3.86,1.37.04.01.08.05.08.09,0,.04-.01.09-.05.11-.15.1-.8.5-2.23.85-.28.06-.58.12-.91.17-.47.06-.97.1-1.44.1Z"/>
                <path class="cls-66" d="M14.03,30.84c.35,0,.77.1,1.28.35,1.54.75,3.88,1.38,3.88,1.38,0,0-.01,0-.03.02h0c-.16.11-.83.49-2.16.82-.27.06-.57.12-.89.16-.47.06-.97.09-1.42.09-1,0-1.81-.16-1.7-.5.2-.61.06-.71.02-1.41-.03-.47.33-.91,1.05-.91M14.03,30.62h0c-.53,0-.84.21-1,.38-.19.21-.29.48-.27.77.01.22.04.38.06.51.04.3.06.44-.06.81-.04.13-.02.26.06.37.2.28.83.42,1.85.42.47,0,.98-.03,1.45-.1.33-.05.64-.1.92-.17,1.37-.34,2.04-.72,2.21-.83,0,0,.02,0,.02-.01.08-.05.13-.15.12-.23-.01-.09-.06-.17-.15-.2-.02,0-2.33-.63-3.84-1.36-.5-.24-.96-.37-1.37-.37h0Z"/>
              </g>
              <path class="cls-60" d="M19.18,32.56s-.01,0-.03.02h0c-.63.14-1.41.23-2.3.19-2.23-.1-2.43-.42-2.8-.34-.37.08-.65.63.03.88.69.24,2.26.07,2.26.07,0,0-.09.08-.25.19-1.5.2-3.29.09-3.12-.41.2-.61.06-.71.02-1.41s.77-1.32,2.32-.56c1.54.75,3.88,1.38,3.88,1.38Z"/>
            </g>
            <g>
              <g>
                <g>
                  <path class="cls-8" d="M31.64,27.28c-.52,0-1.04-.12-1.52-.35-.3-.14-.6-.33-.88-.55-2.73-2.19.02-7.33.14-7.55.03-.05.08-.08.13-.08.01,0,.02,0,.04,0l2.87.74c.06.02.1.07.11.13,0,0,.05.52.32,1.19.18.43.41.83.7,1.2.76.95,1.85,1.02,2.17,1.02,0,0,.11,0,.11,0,.05,0,.09.02.12.06.03.04.03.1.01.15-.04.07-.89,1.79-2.33,1.81.22.22.57.52.96.74.04.02.07.06.08.11,0,.05,0,.09-.04.12-.05.05-1.31,1.25-3.01,1.25Z"/>
                  <path class="cls-59" d="M29.51,18.89l2.87.74s.04.53.33,1.23c.16.38.39.81.72,1.24.79,1,1.93,1.08,2.29,1.08.07,0,.11,0,.11,0,0,0-.85,1.73-2.23,1.73-.11,0-.22-.01-.34-.03,0,0,.56.66,1.27,1.05,0,0-1.25,1.21-2.9,1.21-.46,0-.95-.09-1.46-.33-.28-.13-.56-.31-.85-.54-2.66-2.13.18-7.37.18-7.37M29.51,18.6c-.11,0-.21.06-.26.15-.12.22-2.93,5.48-.11,7.74.29.23.59.43.91.57.51.24,1.04.36,1.59.36,1.76,0,3.05-1.24,3.11-1.29.07-.06.1-.16.09-.25-.01-.09-.07-.17-.15-.22-.26-.14-.5-.33-.7-.5,1.32-.25,2.09-1.79,2.12-1.86.05-.09.04-.21-.02-.29-.06-.08-.15-.13-.24-.13,0,0-.02,0-.02,0,0,0-.04,0-.09,0-.3,0-1.34-.07-2.06-.97-.28-.36-.51-.75-.68-1.16-.27-.65-.31-1.14-.31-1.15-.01-.12-.1-.23-.22-.26l-2.87-.74s-.05,0-.07,0h0Z"/>
                </g>
                <path class="cls-28" d="M33.27,24.87s.56.66,1.27,1.05c0,0-2.03,1.97-4.37.88.23-.02.46-.02.69.01,1.65.2,2.29-.71,2.29-.71,0,0-.31-.01-.7-.48-.38-.47-.57-1.69-.57-1.69,0,0,.58.49,1.41.54.83.06,1.27-.71,1.27-.71,0,0-.92.25-2.02-.61-1.1-.86-1.76-2.42-1.76-2.42,0,0,.74.32,1.92.13.16.38.39.81.72,1.24.96,1.2,2.4,1.08,2.4,1.08,0,0-.99,2.02-2.57,1.7Z"/>
                <path class="cls-24" d="M33.27,24.87s.56.66,1.27,1.05c0,0-2.03,1.97-4.37.88-.28-.13-.56-.31-.85-.54-2.66-2.13.18-7.37.18-7.37l2.87.74s.04.53.33,1.23c.16.38.39.81.72,1.24.96,1.2,2.4,1.08,2.4,1.08,0,0-.99,2.02-2.57,1.7Z"/>
              </g>
              <g>
                <g>
                  <path class="cls-5" d="M17.59,30.18c-.71,0-1.39-.03-2.02-.09-.06,0-.11-.01-.16-.01-.53-.05-1-.12-1.45-.19-.77-.12-1.44-.28-2.04-.47-3.41-1.03-5.1-3.06-6.02-7.22-.65-2.92-.43-7.17,2.12-10.34,2.42-3.02,6.43-4.54,11.92-4.54h.45c2.52.04,4.64.95,6.27,2.7,3.18,3.4,3.78,9.14,3.63,12-.02.38-.05.71-.09.98.94.36,2.33,1.36,1.98,3.01-.08.39-.43.79-1.01,1.17-.42.29-1,.58-1.71.87-1.61.66-3.79,1.24-6.13,1.63-1.58.27-3.21.44-4.72.49-.34.01-.67.02-1.01.02Z"/>
                  <path class="cls-59" d="M19.93,7.55c.15,0,.29,0,.44,0,8.52.12,9.88,10.33,9.67,14.44-.02.47-.07.87-.13,1.15,0,0,2.45.77,2.02,2.8-.07.34-.39.68-.91,1.02-.43.29-1,.57-1.67.85-1.59.65-3.77,1.23-6.08,1.62-1.55.27-3.16.44-4.69.49-.34.01-.67.02-1,.02-.69,0-1.35-.03-1.99-.09-.06,0-.12-.01-.18-.01-.5-.05-.97-.11-1.41-.19-.74-.12-1.4-.27-2.01-.46-3.51-1.06-5.01-3.24-5.86-7.05-1.08-4.86.08-14.59,13.8-14.59M19.93,7.06v.48-.48h0c-5.56,0-9.64,1.56-12.11,4.64-2.6,3.24-2.82,7.57-2.16,10.54.94,4.21,2.73,6.36,6.19,7.4.61.19,1.28.35,2.07.48.43.07.9.13,1.44.19.09,0,.13,0,.17.01.64.06,1.33.1,2.04.1.34,0,.68,0,1.02-.02,1.53-.05,3.17-.22,4.76-.5,2.35-.4,4.55-.98,6.18-1.64.73-.3,1.32-.6,1.76-.9.65-.42,1.01-.85,1.11-1.32.36-1.71-.96-2.77-1.96-3.21.03-.24.05-.51.07-.82.15-2.89-.46-8.71-3.7-12.17-1.68-1.8-3.85-2.73-6.45-2.77-.15,0-.3,0-.45,0h0Z"/>
                </g>
                <path class="cls-30" d="M30.04,21.99c-2.88.99-6.75-1.26-6.75-1.26,0,0-.6,1.5-.5,2.4.1.89.38,1.8-.41,2.04s-3.12-.76-3.12-.76c0,0-1.71.85-2.05.6-.35-.25-.29-1.63-.29-1.63,0,0-.81-.33-1.38-.89-.58-.55-.96-1.48-.96-1.48,0,0-.17.69-.81,1.7-.65,1-1.51,1.41-1.51,1.41,0,0-.12.66.81,2.14.65,1.02,1.74,2.67,2.35,3.58-.5-.05-.97-.11-1.41-.19-.74-.12-1.4-.27-2.01-.46-3.51-1.06-5.01-3.24-5.86-7.05-1.09-4.91.11-14.8,14.24-14.59,8.52.12,9.88,10.33,9.67,14.44Z"/>
                <g>
                  <g>
                    <path class="cls-67" d="M18.58,30.06c-.08,0-.14-.06-.15-.14-.21-2.94.1-3.23.2-3.33.53-.33,2.43-.73,3.28-.73.28,0,.43.04.51.13.05.06.18.2.72,2.3.08.3.15.59.22.86l.06.24s0,.08-.02.12c-.02.03-.06.06-.1.06-1.57.27-3.2.44-4.71.49h0Z"/>
                    <path class="cls-59" d="M21.91,26.01c.21,0,.35.02.4.08.12.14.42,1.21.68,2.24.1.39.2.77.28,1.1-1.55.27-3.16.44-4.69.49-.09-1.3-.14-2.93.15-3.21.01-.02.02-.03.03-.03.45-.27,2.3-.66,3.15-.66M21.92,25.72h0c-.89,0-2.8.41-3.3.7-.02.01-.06.04-.08.07h0c-.15.14-.46.43-.25,3.44.01.15.14.27.29.27,0,0,0,0,.01,0,1.52-.05,3.16-.22,4.73-.49.08-.01.15-.06.2-.13.04-.07.06-.15.04-.23l-.07-.27c-.06-.26-.13-.55-.21-.83-.55-2.13-.67-2.27-.75-2.36-.11-.12-.3-.18-.62-.18h0Z"/>
                  </g>
                  <path class="cls-32" d="M23.28,29.43c-1.55.27-3.16.44-4.69.49-.09-1.3-.14-2.93.15-3.21.83-.05,1.65,0,2.35.26.86.31,1.48.82,1.91,1.36.1.39.2.77.28,1.1Z"/>
                </g>
                <path class="cls-28" d="M14.99,27.75c-.26.3-.69,1.23-.99,1.89-.74-.12-1.4-.27-2.01-.46,1.26-.95,3.37-1.88,3-1.43Z"/>
                <path class="cls-28" d="M31.03,26.96c-.43.29-1,.57-1.67.85-.14-.18-.33-.36-.57-.56-1.22-.99-1.76-1.51.2-1.17,1.2.21,1.77.61,2.04.88Z"/>
              </g>
              <g>
                <g>
                  <path class="cls-4" d="M7.41,31.34s-.1-.03-.12-.07c-.04-.07-.98-1.56-1.16-3.17-.28.55-.68,1.53-.58,2.37,0,.06-.02.11-.07.14-.02.01-.05.02-.08.02-.03,0-.06,0-.08-.03-.09-.07-2.21-1.6-2.4-3.92-.28.08-.84.22-1.44.22-.51,0-.94-.11-1.27-.31-.04-.02-.06-.06-.07-.1,0-.04,0-.08.04-.12.02-.02,2.05-2.39,1.59-6.93-.49-4.84,3.06-11.88,6.78-13.43,2.86-1.2,5.25-1.23,6.4-1.24.3,0,.56,0,.63-.03,2.03-.79,3.8-.95,4.95-.95,1.83,0,3.56.39,5.16,1.16,4.99,2.41,5.79,7.52,6.32,10.9.33,2.13,1.06,3.61,2.15,4.41.15.11.18.21.14.31-.1.3-.81.58-1.47.58-.28,0-.54-.05-.76-.14-.01.01-.17.03-.39.03-.74,0-2.6-.2-3.82-2.05-1.24-1.88-5.74-5.39-11-5.39-1.12,0-2.22.16-3.28.47-6.45,1.91-3.63,14.5-3.6,14.63.02.07-.02.13-.08.17-.02,0-1.78.9-2.36,2.37-.02.05-.07.09-.12.09h-.01Z"/>
                  <path class="cls-59" d="M20.53,3.95c1.54,0,3.3.28,5.09,1.15,4.9,2.37,5.7,7.35,6.24,10.79s1.97,4.32,2.27,4.55c.23.17-.51.59-1.3.59-.25,0-.5-.04-.72-.14,0,0-.16.02-.43.02-.8,0-2.54-.22-3.7-1.98-1.29-1.95-5.81-5.46-11.12-5.46-1.08,0-2.19.15-3.32.48-6.66,1.97-3.7,14.8-3.7,14.8,0,0-1.82.91-2.43,2.44,0,0-1.17-1.84-1.17-3.61,0,0-1,1.59-.84,2.91,0,0-2.27-1.61-2.34-3.99,0,0-.76.27-1.57.27-.42,0-.84-.07-1.19-.29,0,0,2.1-2.37,1.63-7.04s2.98-11.73,6.69-13.28c3.71-1.55,6.62-1.12,7.02-1.27.25-.09,2.23-.94,4.9-.94M20.53,3.66c-1.16,0-2.95.16-4.93.93l-.07.03c-.06.02-.32.02-.58.02-1.16.01-3.57.04-6.46,1.25-3.76,1.58-7.36,8.69-6.87,13.58.45,4.47-1.53,6.79-1.55,6.81-.06.06-.08.15-.07.24.01.08.06.16.13.21.35.22.8.34,1.34.34.51,0,.99-.1,1.31-.18.28,2.28,2.35,3.78,2.44,3.85.05.04.11.05.17.05.05,0,.1-.01.15-.04.1-.06.16-.17.14-.29-.08-.62.14-1.32.36-1.85.29,1.45,1.07,2.68,1.11,2.75.05.09.15.14.25.14,0,0,.02,0,.03,0,.11-.01.2-.08.25-.18.55-1.41,2.27-2.28,2.29-2.29.12-.06.19-.2.16-.33-.03-.13-2.82-12.59,3.5-14.45,1.05-.31,2.14-.47,3.24-.47,5.2,0,9.65,3.47,10.88,5.32,1.26,1.91,3.18,2.12,3.95,2.12.17,0,.31,0,.39-.02.23.09.49.13.76.13.65,0,1.47-.28,1.61-.68.06-.16,0-.33-.13-.44l-.06-.04c-1.06-.78-1.77-2.23-2.09-4.32-.54-3.41-1.35-8.56-6.4-11.01-1.62-.78-3.37-1.18-5.22-1.18h0Z"/>
                </g>
                <path class="cls-3" d="M31.24,21.22s-.08,0-.21-.02c-.51-.07-1.82-.42-3.04-2.28-.6-.92-1.91-2.16-3.67-3.23-2.78-1.69-6.7-2.95-10.77-1.74-2.79.83-3.89,3.56-4.23,6.46-.12,1.02-.15,2.05-.12,3.03.09,2.9.64,5.32.64,5.32,0,0-1.82.9-2.42,2.44,0,0-1.17-1.83-1.17-3.6,0,0-1,1.59-.84,2.91,0,0-2.27-1.62-2.35-3.99,0,0-1.75.63-2.76-.02,0,0,.41-.46.83-1.39.53-1.16,1.06-3.04.8-5.65-.47-4.67,2.98-11.73,6.69-13.28,3.71-1.56,6.63-1.13,7.03-1.27.4-.15,5.09-2.16,9.99.21,2.75,1.33,4.21,3.48,5.06,5.72.67,1.75.95,3.56,1.19,5.07.48,3.07,1.67,4.1,2.13,4.46.06.04.1.07.13.09.3.23-.89.94-2.89.78Z"/>
                <path class="cls-28" d="M31.24,21.22s-.08,0-.21-.02c-.15-.28-.23-.47-.23-.47,0,0,.87.38,2.24.08.39-.09.71-.25.97-.46.06.04.1.07.13.09.3.23-.89.94-2.89.78Z"/>
                <path class="cls-24" d="M31.24,21.22s-.08,0-.21-.02c-.51-.07-1.82-.42-3.04-2.28-.6-.92-1.91-2.16-3.67-3.23,1.01-1.48,2.82-3.13,2.82-3.13,0,0,1.68,1.85,2.55,3.72.81,1.74,1.84,2.72,1.96,2.83-.07-.09-.57-.84-.58-3.7,0-1.83-.21-3.53-.38-4.58.67,1.75.95,3.56,1.19,5.07.48,3.07,1.67,4.1,2.13,4.46.06.04.1.07.13.09.3.23-.89.94-2.89.78Z"/>
                <path class="cls-28" d="M9.83,28.75s-1.82.9-2.42,2.44c0,0-1.17-1.83-1.17-3.6,0,0-1,1.59-.84,2.91,0,0-2.27-1.62-2.35-3.99,0,0-1.75.63-2.76-.02,2.4-.31,4.2-3.05,4.2-3.05,0,0-.62,1.44-.59,2.59.03,1.14.61,1.86.61,1.86,0,0,.02-.71.43-1.76.42-1.06,1.95-1.47,1.95-1.47,0,0-.26.97-.19,2.16.07,1.2.74,2.31.74,2.31,0,0,.12-1.5.56-3.34.23-.95.75-1.77,1.19-2.35.09,2.9.64,5.32.64,5.32Z"/>
                <path class="cls-24" d="M9.83,28.75s-1.82.9-2.42,2.44c0,0-1.17-1.83-1.17-3.6,0,0-1,1.59-.84,2.91,0,0-2.27-1.62-2.35-3.99,0,0-1.75.63-2.76-.02,0,0,.41-.46.83-1.39.2-.11.4-.23.58-.37,1.57-1.19,3.77-3.99,3.77-3.99,0,0-.44,1.47-.73,2.57-.28,1.1.02,2.45.02,2.45,0,0,.07-.48.47-1.4.39-.92,1.34-2.39,1.34-2.39l2.75-1.55c-.12,1.02-.15,2.05-.12,3.03.09,2.9.64,5.32.64,5.32Z"/>
              </g>
              <g>
                <path class="cls-2" d="M27.63,9.96c-.96,0-2.33-.21-4.6-.69-3.91-.83-5.74-4.24-5.76-4.28-.03-.06-.02-.14.03-.18.19-.16,4.7-3.97,7.99-3.97.18,0,.35.01.52.03,2.96.41,3.28,5.21,3.42,7.26.02.31.04.56.06.74.03.27-.03.5-.18.67-.25.28-.73.41-1.47.41Z"/>
                <path class="cls-59" d="M25.3.99c.17,0,.33.01.5.03,3.27.45,3.19,6.56,3.35,7.87.08.66-.46.92-1.51.92s-2.62-.27-4.57-.68c-3.88-.83-5.66-4.2-5.66-4.2,0,0,4.62-3.94,7.89-3.94M25.3.69h0c-3.34,0-7.89,3.85-8.08,4.01-.1.09-.13.24-.07.36.08.14,1.89,3.51,5.86,4.35,2.28.48,3.66.69,4.63.69.8,0,1.3-.15,1.58-.46.18-.21.26-.47.22-.79-.02-.17-.04-.42-.06-.73-.14-2.09-.46-6.98-3.54-7.4-.17-.02-.35-.04-.54-.04h0Z"/>
              </g>
              <path class="cls-7" d="M16.36,5.35S22.52.57,25.79,1.02c3.27.45,3.42,7.18,3.58,8.49s-2.38.98-6.26.15c-3.88-.83-6.75-4.31-6.75-4.31Z"/>
              <g>
                <g>
                  <path class="cls-6" d="M29.55,20.92c-.83,0-2.48-.11-4.25-.86-2.51-1.06-3.31-3.49-3.34-3.59-.35-.51-3.52-5.38-2.96-6.74.08-.2.24-.32.45-.37.3-.06.66-.09,1.03-.09,2.21,0,5.19,1.02,6.96,3.89,2.17,3.51,2.76,7.54,2.76,7.58,0,.04,0,.08-.03.11s-.06.05-.1.06c0,0-.19.02-.53.02Z"/>
                  <path class="cls-59" d="M20.49,9.42c1.96,0,5.01.86,6.84,3.82,2.18,3.53,2.74,7.52,2.74,7.52,0,0-.19.02-.52.02-.8,0-2.44-.11-4.19-.85-2.47-1.05-3.26-3.5-3.26-3.5,0,0-4.34-6.57-2.62-6.92.28-.06.62-.09,1-.09M20.49,9.12c-.39,0-.75.03-1.06.09-.27.05-.46.21-.56.46-.57,1.38,2.32,5.9,2.97,6.88.12.34.99,2.62,3.41,3.64,1.8.76,3.47.87,4.31.87.35,0,.55-.02.55-.02.08,0,.15-.05.2-.11.05-.06.07-.14.06-.22-.02-.17-.6-4.09-2.78-7.63-1.8-2.92-4.84-3.96-7.09-3.96h0Z"/>
                </g>
                <path class="cls-41" d="M30.07,20.76s-2.24.21-4.71-.83c-.28-.12-.53-.25-.76-.4-1.87-1.16-2.49-3.1-2.49-3.1,0,0-.42-.59-.98-1.44-.28-.44-.6-.93-.92-1.46-1.23-2.02-2.42-4.39-1.45-4.58,1.73-.35,6.28.1,8.45,3.63.31.49.58,1.01.82,1.53,1.53,3.21,2.04,6.66,2.04,6.66Z"/>
                <path class="cls-28" d="M24.59,19.52c-1.87-1.16-2.49-3.1-2.49-3.1,0,0-.42-.59-.98-1.44.03-1.68.08-3.34.08-3.34,0,0,2.19,1.62,2.95,4.34.48,1.74.5,2.91.45,3.54Z"/>
                <path class="cls-24" d="M30.07,20.76s-2.24.21-4.71-.83c-.28-.12-.53-.25-.76-.4-1.87-1.16-2.49-3.1-2.49-3.1,0,0-.42-.59-.98-1.44-.28-.44-.6-.93-.92-1.46.03-.11.06-.18.06-.18,0,0,1.32,2.48,3.38,3.98,2.06,1.5,4.55,1.8,4.55,1.8,0,0,.58-.9.34-2.89-.09-.77-.29-1.52-.5-2.14,1.53,3.21,2.04,6.66,2.04,6.66Z"/>
              </g>
              <g>
                <g>
                  <path class="cls-44" d="M10.33,24.24s-.04,0-.06-.01c-.04-.02-.07-.05-.08-.09-.11-.32-2.68-7.89.33-11.88,1.2-1.59,2.81-2.43,4.66-2.43,1.6,0,2.82.61,2.87.64.04.02.06.05.07.09.01.04,0,.08-.01.11l-2.64,4.83c-.02.22-.95,6.66-5.07,8.72-.02.01-.04.02-.07.02Z"/>
                  <path class="cls-59" d="M15.18,9.98c1.59,0,2.8.62,2.8.62l-2.64,4.83s-.91,6.61-5.01,8.66c0,0-2.69-7.77.31-11.75,1.41-1.88,3.12-2.37,4.54-2.37M15.18,9.68h0c-1.9,0-3.55.86-4.78,2.49-3.05,4.06-.46,11.7-.35,12.02.03.08.09.14.17.18.04.01.07.02.11.02.05,0,.09-.01.13-.03,4.04-2.03,5.06-8.14,5.16-8.83l2.62-4.79c.04-.07.05-.15.02-.23-.02-.08-.08-.14-.15-.18-.05-.03-1.3-.66-2.93-.66h0Z"/>
                </g>
                <path class="cls-38" d="M19.03,9.8l-3.69,5.64s-.58,4.21-2.9,6.95c-.46.55-.99,1.03-1.59,1.41-.17.11-.34.21-.52.3,0,0-3.29-8.71-.29-12.69,3-3.98,9-1.61,9-1.61Z"/>
                <path class="cls-28" d="M12.43,22.39c-.46.55-.99,1.03-1.59,1.41-.08-.21-.15-.45-.2-.74-.48-2.84.11-5.42.11-5.42,0,0,.17,1.68.79,3.16.3.72.63,1.24.89,1.59Z"/>
              </g>
              <g>
                <g>
                  <path class="cls-40" d="M21.91,24.4c-1.29,0-2.29-.63-2.63-.88-.46.58-1.46.8-1.51.81-.01,0-.02,0-.03,0-.04,0-.07-.01-.1-.04-.04-.03-.05-.08-.04-.13l.16-1.07c-.38-.25-1.91-1.37-2.68-3.74-.85-2.64-.53-5.04-.53-5.06.41-2.21,2.2-3.95,4.09-3.95.83,0,2.38.36,3.35,2.78,1.62,4.03.59,7.27.1,8.83-.08.25-.14.45-.18.6-.22.97.2,1.62.2,1.62.03.04.03.1,0,.15-.02.05-.07.08-.13.08,0,0-.08,0-.08,0Z"/>
                  <path class="cls-59" d="M18.64,10.48c1.22,0,2.45.78,3.21,2.69,1.87,4.66.15,8.29-.09,9.34-.24,1.05.22,1.74.22,1.74-.03,0-.05,0-.08,0-1.54,0-2.66-.95-2.66-.95-.37.63-1.51.88-1.51.88l.18-1.17s-1.85-1.07-2.7-3.71c-.85-2.64-.52-5-.52-5,.41-2.2,2.17-3.82,3.94-3.82M18.64,10.19c-1.95,0-3.81,1.78-4.23,4.06-.02.11-.33,2.47.53,5.14.73,2.27,2.16,3.42,2.66,3.76l-.15.98c-.01.1.02.19.09.26.06.05.13.08.2.08.02,0,.04,0,.06,0,.11-.02.99-.23,1.5-.76.43.29,1.39.84,2.61.84h.08c.11,0,.2-.06.25-.16.05-.1.04-.21-.02-.3-.01-.02-.38-.61-.18-1.51.03-.15.1-.34.17-.59.5-1.57,1.54-4.84-.1-8.93-1-2.5-2.62-2.87-3.49-2.87h0Z"/>
                </g>
                <path class="cls-39" d="M21.76,22.51c-.24,1.05.22,1.74.22,1.74-1.58.03-2.74-.95-2.74-.95-.38.63-1.51.88-1.51.88l.18-1.17s-1.99-1.2-2.84-3.83c-.4-1.26-.57-2.54-.64-3.54-.08-1.11-.03-1.87-.03-1.87.69-3.72,5.59-5.7,7.47-1.04.78,1.95.93,3.79.82,5.36-.15,2.18-.81,3.8-.94,4.41Z"/>
                <path class="cls-24" d="M21.98,24.25c-1.58.03-2.74-.95-2.74-.95-.38.63-1.51.88-1.51.88l.18-1.17s-1.99-1.2-2.84-3.83c-.4-1.26-.57-2.54-.64-3.54.23.95.68,2.55,1.41,3.95,1.12,2.14,2.05,2.42,2.14,2.43.1,0-.15-2.23.08-2.22.22,0,.68,1.41,1.38,2.25.69.84,1.1,1,1.1,1,0,0-.15-.93,1.37-3.13.37-.54.62-1.18.78-1.82-.15,2.18-.81,3.8-.94,4.41-.24,1.05.22,1.74.22,1.74Z"/>
              </g>
              <g>
                <path class="cls-46" d="M12.44,31.21c-1.17,0-3.34-.47-4.66-3.6-1.83-4.34-1.29-10.22-1.29-10.27,0-.05.03-.09.07-.11.02-.01.05-.02.08-.02.02,0,.04,0,.05,0l3.7,1.43c.05.02.09.07.09.13,0,.08.44,8.34,3.48,10.17.05.03.07.08.07.14s-.04.1-.09.12c-.02,0-.53.23-1.2.23h0c-.33,0-.63-.05-.92-.15.27.48.81,1.28,1.48,1.57.06.02.09.08.09.15s-.05.12-.11.13c-.01,0-.34.09-.84.09Z"/>
                <path class="cls-59" d="M6.64,17.35l3.7,1.43s.41,8.4,3.55,10.29c0,0-.5.22-1.15.22-.39,0-.83-.08-1.25-.32,0,0,.72,1.58,1.75,2.02,0,0-.31.08-.81.08-1.14,0-3.24-.46-4.53-3.51-1.84-4.36-1.28-10.2-1.28-10.2M6.64,17.06c-.05,0-.11.01-.15.04-.08.05-.13.13-.14.22-.02.24-.55,5.97,1.3,10.35,1.35,3.21,3.59,3.69,4.8,3.69.52,0,.87-.09.88-.09.12-.03.21-.14.22-.26,0-.13-.06-.24-.18-.29-.5-.21-.93-.75-1.22-1.19.19.04.39.06.6.06.7,0,1.24-.23,1.26-.24.1-.04.17-.14.18-.25,0-.11-.05-.21-.14-.27-2.97-1.79-3.41-9.97-3.41-10.05,0-.12-.08-.22-.19-.26l-3.7-1.43s-.07-.02-.11-.02h0Z"/>
              </g>
              <path class="cls-37" d="M11.49,28.96s.72,1.58,1.75,2.02c0,0-3.49.94-5.33-3.42-.71-1.67-1.12-3.72-1.35-5.6-.38-3.02-.33-5.61-.33-5.61l4.35,1.29s0,.38,0,1c.05,2.46.46,8.76,3.29,10.44,0,0-1.26.55-2.39-.1Z"/>
              <path class="cls-24" d="M11.49,28.96s.72,1.58,1.75,2.02c0,0-3.49.94-5.33-3.42-.71-1.67-1.12-3.72-1.35-5.6.35.94.86,2.26,1.4,3.53,1,2.35,2.51,3.27,2.35,2.84-.17-.44-.61-2.08-.61-2.08,0,0,.63,1.2,1.25,1.15s.23-.3-.52-2.92c-.49-1.73-.24-4.52.15-5.84.05,2.46.46,8.76,3.29,10.44,0,0-1.26.55-2.39-.1Z"/>
              <g>
                <g>
                  <path class="cls-32" d="M27.32,9.01c-.24,0-.47-.08-.69-.17-.22-.09-.78-.26-1.55-.49-.95-.27-2.42-.67-3.46-.92-.86-.21-1.31-.42-1.4-.67-.06-.15.03-.28.07-.34.02-.03,1.81-2.24,3.42-3.69.81-.72,1.43-1.12,1.88-1.23.12-.03.23-.04.34-.04.35,0,.66.13.93.39.71.68,1.18,2.24,1.39,4.64.09.96.02,1.66-.2,2.06-.16.29-.41.44-.73.44Z"/>
                  <path class="cls-59" d="M25.93,1.54c.34,0,.63.13.88.37.79.75,1.19,2.55,1.37,4.6.1,1.06,0,1.67-.19,2.02-.17.31-.42.41-.66.41s-.48-.09-.66-.16c-.23-.1-.83-.28-1.56-.49-1.1-.31-2.52-.7-3.47-.92-1.59-.38-1.41-.72-1.28-.9,0,0,1.79-2.21,3.41-3.67.7-.62,1.36-1.1,1.84-1.21.11-.03.22-.04.33-.04M25.93,1.39h0c-.12,0-.24.01-.36.04-.46.11-1.08.51-1.91,1.24-1.61,1.45-3.41,3.67-3.43,3.69-.05.07-.16.23-.09.42.07.19.3.44,1.45.71,1.02.24,2.5.64,3.46.91.66.19,1.31.39,1.54.49.21.09.47.18.72.18.35,0,.61-.16.79-.48.23-.43.3-1.11.21-2.11-.21-2.42-.69-4-1.41-4.69-.29-.27-.62-.41-.98-.41h0Z"/>
                </g>
                <path class="cls-25" d="M27.98,8.53c-.34.61-.96.39-1.32.24-.23-.1-.83-.28-1.56-.49-1.1-.31-2.52-.7-3.47-.92-1.59-.38-1.41-.72-1.28-.9,0,0,1.79-2.21,3.41-3.67.7-.62,1.36-1.1,1.84-1.21.48-.11.88.02,1.21.33-.24.23-.47.53-.66.91-1.23,2.41-.6,5.37,1.43,5.68.13.02.27.03.4.03Z"/>
                <g>
                  <path class="cls-42" d="M25.08,8.35c-1.17-.34-2.56-.71-3.47-.92-.86-.2-1.3-.42-1.4-.67-.06-.15.03-.28.07-.34.02-.03,1.81-2.24,3.43-3.68.01-.01.03-.02.05-.02,0,0,.02,0,.03,0,.03.01.04.04.04.06.01.32-.02.59-.11.82.33-.1,1.13-.36,1.6-.79.01-.01.03-.02.05-.02.01,0,.03,0,.04.01.03.02.04.05.03.08-.01.04-.24.84-.74,1.34.06.01.14.02.23.02.11,0,.21-.02.3-.05.03,0,.17.01.19.04.06.11-.1.4-.26.65.28.11,1.13.45,1.36.66.07.07.07.14.06.17-.05.19-.48.33-.76.41.29.15.64.36.65.49,0,.05.02.2-1.17.77.05.01.18.54-.14.92-.01.02-.03.03-.06.03,0,0-.01,0-.02,0Z"/>
                  <path class="cls-59" d="M23.76,2.79c.01.31-.02.64-.17.93,0,0,1.16-.28,1.78-.84,0,0-.26.93-.82,1.4,0,0,.17.06.38.06.11,0,.22-.01.33-.06.03-.01.04-.02.06-.02.18,0-.27.67-.27.67,0,0,1.16.43,1.42.68.26.25-.86.51-.86.51,0,0,.77.37.79.52s-1.14.71-1.14.71c0,0,.16.56-.15.93-1.1-.32-2.52-.7-3.47-.92-1.59-.38-1.41-.72-1.29-.9,0,0,1.79-2.21,3.41-3.67M25.37,2.87h0M23.76,2.64s-.07.01-.1.04c-1.62,1.45-3.41,3.66-3.43,3.69-.05.08-.16.23-.09.42.07.19.3.44,1.45.71.88.21,2.28.58,3.46.92.01,0,.03,0,.04,0,.04,0,.08-.02.11-.05.27-.32.24-.74.21-.94,1.14-.56,1.13-.71,1.12-.8,0-.05-.01-.18-.53-.47.29-.09.59-.23.64-.41.02-.09,0-.18-.08-.25-.22-.21-.96-.51-1.3-.64.3-.49.24-.6.21-.65-.03-.06-.09-.1-.16-.1-.04,0-.07,0-.12.03-.07.03-.16.05-.27.05-.03,0-.06,0-.08,0,.41-.47.61-1.12.65-1.25,0-.02.01-.04.01-.06,0-.08-.06-.15-.15-.15h0s0,0,0,0c-.03,0-.07.02-.09.04-.41.37-1.07.61-1.44.73.06-.21.08-.44.07-.71,0-.06-.04-.11-.09-.13-.02,0-.04-.01-.06-.01h0Z"/>
                </g>
              </g>
              <g>
                <g>
                  <path class="cls-45" d="M14.72,6.54s-.03,0-.05,0c-.05-.02-.09-.06-.1-.12,0-.02-.31-2.22-1.1-3.58-.78-1.35-2.46-2.28-2.48-2.29-.05-.03-.08-.09-.07-.15.01-.06.06-.11.12-.12.03,0,.75-.13,1.7-.13,1.26,0,2.94.22,3.81,1.27,1.53,1.84-1.61,4.96-1.74,5.09-.03.03-.06.04-.1.04Z"/>
                  <path class="cls-59" d="M12.76.29c1.25,0,2.87.22,3.7,1.21,1.47,1.76-1.73,4.89-1.73,4.89,0,0-.3-2.23-1.12-3.63-.81-1.4-2.53-2.35-2.53-2.35,0,0,.73-.12,1.68-.12M12.76,0c-.96,0-1.7.12-1.73.13-.12.02-.22.12-.24.24-.02.12.04.25.15.31.02,0,1.66.93,2.42,2.24.78,1.33,1.08,3.5,1.08,3.52.01.11.09.2.2.24.03.01.06.02.1.02.08,0,.15-.03.21-.08.14-.14,3.37-3.34,1.75-5.29-.91-1.09-2.64-1.32-3.93-1.32h0Z"/>
                </g>
                <path class="cls-43" d="M14.41,7.07s.01-2.91-.8-4.31S11.08.42,11.08.42c0,0,4.44-.8,5.5,1.23,1.52,2.92-2.16,5.43-2.16,5.43Z"/>
              </g>
              <g>
                <g>
                  <path class="cls-51" d="M3.66,16.4c-.65,0-1.06-.3-1.18-.88-.55-2.74-.61-7.84.97-10.1.46-.65,1.03-1.03,1.7-1.13.23-.03.47-.05.71-.05,3.12,0,6.73,2.65,6.88,2.76.44.81.26,1.86-.49,3.08-1.76,2.89-6.42,6.31-8.6,6.31h0Z"/>
                  <path class="cls-59" d="M5.87,4.39c3.11,0,6.79,2.73,6.79,2.73,1.48,2.86-6.13,9.13-9,9.13-.55,0-.93-.23-1.03-.76-.65-3.28-.67-10.58,2.55-11.05.22-.03.45-.05.69-.05M5.87,4.1c-.25,0-.5.02-.73.05-.71.1-1.32.51-1.8,1.19-1.61,2.29-1.55,7.44-1,10.21.13.64.6.99,1.32.99,2.26,0,6.91-3.4,8.73-6.38.78-1.28.96-2.35.53-3.18-.02-.04-.05-.07-.09-.1-.15-.11-3.8-2.79-6.96-2.79h0Z"/>
                </g>
                <path class="cls-56" d="M13.44,7.26s-5.03-3.29-8.25-2.82c-3.22.47-3.22,8.44-2.57,11.73s12.59-5.5,10.82-8.91Z"/>
                <g>
                  <g>
                    <path class="cls-32" d="M5.2,13.44c-.27,0-.33-.21-.35-.31,0-.03-.47-2.84-.48-5.01,0-1.09.1-1.81.33-2.22.26-.48.69-.72,1.26-.72.07,0,.14,0,.21.01.97.08,2.33.77,4.03,2.04.9.67,1.39,1.25,1.45,1.72.09.61-.52.91-.78,1.04-.21.1-.72.41-1.39.83-1.05.66-2.25,1.46-2.99,1.98-.6.42-1.03.63-1.29.63Z"/>
                    <path class="cls-59" d="M5.96,5.26c.07,0,.13,0,.2.01,1.06.09,2.52.92,4,2.03.99.74,1.37,1.28,1.42,1.67.08.54-.43.81-.74.96-.22.11-.75.43-1.4.84-.97.61-2.19,1.42-2.99,1.98-.67.47-1.04.61-1.25.61s-.25-.14-.28-.25c0,0-.47-2.81-.47-4.99,0-.93.08-1.75.32-2.18.26-.47.67-.68,1.19-.68M5.96,5.11h0c-.6,0-1.05.26-1.32.76-.23.42-.34,1.15-.33,2.26,0,2.17.47,4.98.48,5.01.02.1.09.37.42.37.28,0,.71-.2,1.33-.64.75-.52,1.95-1.32,2.99-1.98.68-.43,1.18-.73,1.38-.83.28-.14.92-.46.83-1.12-.06-.5-.55-1.08-1.48-1.77-1.71-1.28-3.08-1.97-4.07-2.06-.07,0-.15-.01-.22-.01h0Z"/>
                  </g>
                  <path class="cls-25" d="M11.58,8.97c.08.54-.43.81-.74.96-.22.11-.75.43-1.4.84-.97.61-2.19,1.42-2.99,1.98-1.34.94-1.47.58-1.53.36,0,0-.47-2.81-.47-4.99,0-.93.08-1.75.32-2.18.29-.53.78-.73,1.4-.67-.06.42-.04.89.09,1.44.62,2.62,3.55,3.04,5.33,2.26Z"/>
                  <g>
                    <path class="cls-48" d="M5.2,13.44c-.27,0-.33-.21-.35-.31,0-.03-.47-2.84-.48-5.01,0-.03.02-.05.04-.07,0,0,.02,0,.03,0,.02,0,.03,0,.05.02.25.2.42.41.54.63.15-.31.48-1.08.48-1.72,0-.03.02-.06.05-.07,0,0,.01,0,.02,0,.02,0,.05.01.06.03.02.03.47.74.52,1.45.11-.08.26-.23.33-.42.01-.03.09-.12.13-.12.04,0,.16,0,.34.63.26-.14,1.09-.55,1.4-.58h0c.09,0,.14.03.17.08.1.16-.07.57-.2.83.21-.08.52-.19.69-.19.02,0,.1.02.11.03.04.03.16.12-.2,1.39,0,0,0,0,.01,0,.08,0,.51.26.58.72-1.08.73-2.28,1.53-3.02,2.05-.6.42-1.03.63-1.29.63Z"/>
                    <path class="cls-59" d="M5.59,6.98s.52.81.51,1.54c0,0,.35-.21.47-.53.02-.05.04-.07.06-.07.12,0,.29.67.29.67,0,0,1.09-.58,1.45-.61,0,0,.01,0,.02,0,.33,0-.21.98-.21.98,0,0,.61-.26.84-.26.03,0,.05,0,.07.02.12.09-.23,1.32-.23,1.32,0,0,.52.25.59.73-.97.61-2.19,1.42-2.99,1.98-.67.47-1.04.61-1.25.61s-.25-.14-.28-.25c0,0-.47-2.81-.47-4.99.24.2.47.44.58.74,0,0,.56-1.05.55-1.89M5.59,6.83s-.03,0-.04,0c-.06.02-.11.08-.11.14,0,.55-.25,1.21-.41,1.56-.12-.18-.28-.35-.48-.52-.03-.02-.06-.03-.09-.03-.02,0-.04,0-.06.01-.05.02-.08.08-.08.13,0,2.17.47,4.98.48,5.01.02.1.09.37.42.37.28,0,.71-.2,1.33-.64.75-.52,1.95-1.32,2.99-1.98.05-.03.08-.09.07-.15-.06-.41-.39-.67-.57-.78.34-1.22.22-1.31.15-1.37-.04-.03-.09-.05-.16-.05-.13,0-.35.07-.54.13.12-.28.22-.58.12-.74-.04-.07-.12-.12-.21-.12-.32.03-1.04.38-1.37.55-.18-.6-.31-.6-.39-.6-.05,0-.15.02-.2.17-.04.11-.12.21-.2.29-.09-.67-.49-1.31-.51-1.34-.03-.04-.07-.07-.12-.07h0Z"/>
                  </g>
                </g>
              </g>
            </g>
            <g>
              <g>
                <path class="cls-1" d="M28.58,32c-.17-.01-.33-.07-.46-.18-.29-.24-.36-.62-.17-.92.19-.31.29-.42.41-.42.08,0,.14.06.19.12,0-.03-.01-.05-.01-.08,0-.07.02-.17.15-.27.15-.11.64-.63,1.39-1.48l.43-.49s.04-.03.06-.03h0s.05.01.06.03l.87,1.05s.03.08,0,.11c-.52.55-1.76,1.84-1.98,1.87h0s-.08,0-.12-.01c.01.03.02.06.01.08,0,.09-.08.19-.19.23-.01,0-.02,0-.03,0-.04,0-.06,0-.09-.02.02.07.02.14-.01.2-.04.09-.15.19-.43.19,0,0-.08,0-.09,0ZM28.74,31.5h.01s0-.01.01-.01c0,0-.02,0-.02.01ZM28.9,31.41s.06.02.09.04c-.02-.04-.04-.08-.08-.11-.03.03-.06.06-.08.09.02-.01.05-.02.08-.02Z"/>
                <path d="M30.58,28.35l.87,1.05s-1.71,1.82-1.93,1.84c-.01,0-.03,0-.04,0-.2,0-.39-.19-.39-.19,0,0-.02.1.15.2s.07.25-.05.3c-.01,0-.02,0-.03,0-.08,0-.06-.21-.21-.29-.03-.02-.06-.03-.08-.03-.08,0-.06.13-.19.19-.03.01-.05.02-.07.02-.11,0-.17-.16-.17-.24,0-.06.07-.12.04-.12-.01,0-.05.02-.12.06-.22.12-.03.24.19.44.04.04.08.05.11.05.1,0,.16-.15.23-.15.02,0,.04.01.06.04.13.15.11.4-.31.4-.02,0-.05,0-.08,0-.16-.01-.3-.07-.41-.16-.23-.19-.33-.52-.15-.82.16-.27.26-.38.34-.38.05,0,.1.04.15.12.08.11.17.13.23.13.05,0,.08-.01.08-.01,0,0-.39-.26-.08-.48.2-.15.93-.95,1.4-1.49.25-.28.43-.49.43-.49M30.58,28.18s-.09.02-.13.06c0,0-.18.21-.43.49-.73.83-1.24,1.36-1.38,1.46-.11.08-.15.16-.17.24-.03-.01-.07-.02-.11-.02-.17,0-.3.16-.48.46-.21.34-.13.77.19,1.03.14.12.32.19.51.2.03,0,.06,0,.09,0,.33,0,.46-.13.51-.24.02-.04.03-.08.03-.13.02,0,.05-.01.06-.02.13-.06.23-.17.24-.3.02,0,.04,0,.04,0,.18-.02.86-.66,2.03-1.9.06-.06.06-.16,0-.22l-.87-1.05s-.08-.06-.13-.06h0Z"/>
              </g>
              <path class="cls-14" d="M29.72,29.76s.37-.47.56-.43.21.44-.2.91-.83.54-1.02.44.35-.64.5-.77"/>
              <path class="cls-61" d="M28.17,31.76c.11.09.25.15.41.16.49.03.52-.23.38-.39-.13-.16-.18.25-.4.06-.22-.19-.41-.31-.19-.44.22-.12.09-.03.08.06-.01.09.08.3.24.22s.1-.26.27-.17c.17.09.12.34.24.28.12-.05.22-.2.05-.3-.17-.1-.15-.2-.15-.2,0,0,.22.22.43.19.21-.03,1.93-1.84,1.93-1.84l-.87-1.05s-.18.21-.43.49c.12.18.32.46.48.55.24.15-.46,1.09-.92,1.31-.45.23-.45.18-.6.08-.15-.09-.23.2-.11.39.12.19-.14-.12-.24.03-.11.16-.21.07-.25-.13-.05-.2-.36.08-.43.21-.07.13.33.34.3.48,0,.04-.09.02-.2,0Z"/>
              <path class="cls-12" d="M28.86,30.39c.28-.21,1.59-1.7,1.81-1.94l-.09-.1s-1.53,1.75-1.84,1.98c-.31.23.08.48.08.48,0,0-.06.03-.15,0,.13.12.26.06.26.06,0,0-.39-.26-.08-.48Z"/>
              <path class="cls-12" d="M28.32,31.85c-.26-.19-.38-.53-.19-.84.16-.27.26-.37.34-.38-.12-.14-.22-.09-.45.31-.22.35-.04.75.3.91Z"/>
              <g>
                <g>
                  <path class="cls-10" d="M32,29.86c-.06,0-.11-.02-.16-.07l-1.76-1.77c-.08-.08-.09-.22,0-.31l7.95-8.16,2.66-.97s.05-.01.07-.01c.06,0,.11.02.16.07.06.06.08.15.05.23l-.99,2.75-7.83,8.18s-.1.07-.16.07h0Z"/>
                  <path class="cls-35" d="M40.78,18.78h0M40.78,18.78l-.07.2-.92,2.54-4.27,4.45-.86.89-.43.45h0s-.74.77-.74.77l-.66.68-.83.86-.48-.48-1.09-1.1-.19-.2,3.71-3.81.61-.62.39-.4,1.1-1.13,2.14-2.19,2.58-.92M40.78,18.34s-.02,0-.03,0h0s0,0,0,0c-.04,0-.09.01-.13.03l-2.57.92c-.06.02-.12.06-.17.11l-2.14,2.19-1.1,1.13-.39.4-.61.62-3.71,3.81c-.17.17-.17.45,0,.62l.19.2,1.09,1.1.48.48c.08.08.2.13.31.13,0,0,0,0,0,0,.12,0,.23-.05.31-.14l.83-.86.66-.68.74-.77s.01-.01.02-.02l.41-.43.86-.89,4.27-4.45s.08-.1.1-.16l.92-2.54.06-.16c.03-.06.04-.12.04-.19,0-.24-.19-.44-.44-.44h0ZM40.78,19.22h0,0Z"/>
                </g>
                <polygon class="cls-65" points="40.78 18.78 38.2 19.7 30.24 27.86 32 29.63 32.83 28.77 31.99 27.66 40.7 18.98 40.78 18.78"/>
                <g>
                  <path class="cls-16" d="M36.06,21.89l-1.1,1.13c-.1,1.26-.21,2.63-.3,3.85l.86-.89.17-.28.37-3.8Z"/>
                  <polygon class="cls-19" points="34.56 23.43 33.96 24.05 33.48 28.09 34.23 27.32 34.23 27.32 34.56 23.43"/>
                </g>
                <polygon class="cls-12" points="40.78 18.78 38.2 19.7 30.24 27.86 30.44 28.06 38.28 20.07 40.37 19.12 39.34 21.29 31.52 29.15 32 29.63 32.83 28.77 39.79 21.53 40.7 18.98 40.78 18.78"/>
              </g>
            </g>
            <g>
              <g>
                <path class="cls-50" d="M28.41,32.3c-.11,0-.22-.02-.32-.05-.95-.31-1.01-1.3-.91-1.79,0-.04.03-.09.06-.12.04-.04.91-.91,1.8-.91.26,0,.5.07.71.22.37.26.49.7.33,1.22-.22.69-.95,1.43-1.68,1.43Z"/>
                <path class="cls-59" d="M29.05,29.67c.2,0,.39.05.57.18.84.59-.25,2.21-1.21,2.21-.08,0-.16-.01-.24-.04-1-.33-.75-1.51-.75-1.51,0,0,.83-.84,1.63-.84M29.05,29.19h0c-.97,0-1.87.88-1.97.98-.07.07-.11.15-.13.24-.12.56-.05,1.7,1.07,2.06.13.04.26.06.39.06.87,0,1.67-.83,1.91-1.6.19-.61.03-1.17-.42-1.49-.25-.18-.53-.26-.85-.26h0Z"/>
              </g>
              <path class="cls-27" d="M22.19,32.66s4.04-2.74,5.31-2.73c.8,0,2.08.88,1.79,2.16s-2.89,3.2-3.77,3.53"/>
            </g>
            <g>
              <g>
                <path class="cls-28" d="M20.75,32.91c-1.4,0-1.62-.41-1.64-.46-.01-.03-.01-.05,0-.08s.03-.05.06-.06c.01,0,1.3-.5,1.89-.97.46-.37.64-1,.71-1.28.04-.13.05-.16.09-.19.08-.05.48-.05.48-.05.22,0,.52.02.67.13.02,0,.05,0,.07,0,.11,0,.21-.03.31-.06.16-.05.34-.1.51-.1s.32.06.43.17c.19.21.38.81.16,1.41-.19.53-.74,1.2-2.26,1.41-.56.08-1.05.11-1.48.11Z"/>
                <path class="cls-66" d="M23.9,29.9c.13,0,.25.04.35.14.36.4.66,2.28-2.04,2.66h0c-.59.08-1.07.11-1.46.11-1.37,0-1.55-.4-1.55-.4,0,0,1.31-.49,1.92-.99.61-.49.75-1.43.79-1.46.02-.02.21-.04.43-.04.23,0,.49.03.61.11.03.03.08.04.13.04.21,0,.54-.18.83-.18M23.9,29.7h0c-.19,0-.37.06-.54.11-.11.03-.22.07-.29.07-.15-.1-.39-.15-.74-.15-.16,0-.45,0-.54.07-.07.04-.09.11-.13.24-.07.26-.25.88-.68,1.22-.57.47-1.85.95-1.86.96-.05.02-.09.06-.12.11-.02.05-.02.11,0,.16.05.12.34.52,1.73.52.43,0,.93-.04,1.48-.11,1.58-.22,2.15-.92,2.35-1.48.24-.65.04-1.28-.18-1.52-.13-.14-.3-.21-.5-.21h0Z"/>
              </g>
              <path class="cls-60" d="M22.21,32.7c.6-.23,1.19-.5,1.49-.79.72-.7.42-1.52.18-1.36-.24.17-.7.7-.7.7,0,0-.13-.5-.16-.45-.03.04-.47.5-1.34.92-.87.42-2.49.69-2.49.69,0,0,1.31-.49,1.92-.99.61-.49.75-1.43.79-1.46.05-.03.8-.1,1.04.08.23.18.94-.39,1.31,0,.36.4.66,2.28-2.04,2.66Z"/>
            </g>
          </g>
          <g>
            <path class="cls-29" d="M25.97,24.96c-1.09,0-2.05-.82-2.09-.85-.09-.08-.11-.21-.04-.31.02-.03,2.12-3.25,2.52-4.74.02-.09.09-.15.18-.17.02,0,.03,0,.05,0,.07,0,.14.03.19.09.1.12,2.36,2.93.94,5-.45.66-1.04.99-1.75.99Z"/>
            <path class="cls-59" d="M26.59,19.12s2.27,2.77.92,4.71c-.46.67-1.02.89-1.55.89-1.01,0-1.93-.8-1.93-.8,0,0,2.13-3.27,2.55-4.81M26.59,18.64s-.07,0-.1.01c-.18.04-.32.17-.37.34-.4,1.45-2.47,4.64-2.49,4.67-.13.2-.09.47.09.63.04.04,1.07.91,2.25.91.54,0,1.32-.19,1.95-1.1,1.53-2.22-.85-5.17-.95-5.29-.09-.11-.23-.18-.37-.18h0Z"/>
          </g>
          <g>
            <path class="cls-29" d="M14.99,27.4c-.48,0-1-.08-1.56-.25-3.25-.98-2.2-4.97-2.19-5.01.02-.07.07-.13.14-.16.03-.01.06-.02.09-.02.04,0,.09.01.13.04l5.9,3.64c.1.06.14.19.1.3-.02.06-.62,1.47-2.6,1.47Z"/>
            <path class="cls-59" d="M11.47,22.2l5.9,3.64s-.54,1.32-2.38,1.32c-.42,0-.92-.07-1.49-.24-3.06-.92-2.03-4.72-2.03-4.72M11.47,21.72c-.06,0-.12.01-.18.03-.14.06-.25.18-.29.32-.4,1.47-.42,4.47,2.36,5.31.58.17,1.13.26,1.63.26,2.15,0,2.8-1.56,2.83-1.62.09-.22,0-.47-.19-.59l-5.9-3.64c-.08-.05-.16-.07-.25-.07h0Z"/>
          </g>
          <path class="cls-59" d="M12.21,17.89c.99.91,3.44,4.14,4.75,2.48-.06.61-.8.89-1.34.76-1.61-.37-2.76-1.82-3.41-3.24h0Z"/>
        </g>
        <g>
          <g>
            <path class="cls-69" d="M45.25,38.66c-.86,0-1.77-.11-2.57-.32-1.83-.47-2.77-1.32-2.59-2.34.18-1,.78-2.02,1.77-3.01.7-.7,1.32-1.11,1.34-1.12.02-.01.05-.02.07-.02.01,0,.02,0,.04,0l3.37.95c.08.06.3.45.57,1.01.61,1.29,1.47,3.58.35,4.37-.53.34-1.35.5-2.37.5Z"/>
            <path class="cls-33" d="M43.29,31.96l3.37.95s.22.38.48.94c.6,1.27,1.43,3.47.4,4.2-.02.02-.04.03-.06.05-.46.28-1.29.42-2.23.42-.82,0-1.72-.11-2.54-.32-1.5-.38-2.68-1.12-2.49-2.19.22-1.19,1.01-2.22,1.74-2.94.69-.69,1.32-1.11,1.32-1.11M43.29,31.7c-.05,0-.1.01-.15.04-.03.02-.66.44-1.36,1.14-1.02,1.02-1.62,2.05-1.81,3.08-.2,1.1.78,2.01,2.68,2.5.81.21,1.73.33,2.6.33,1.04,0,1.89-.16,2.37-.46.03-.02.06-.04.1-.07,1.11-.82.43-2.9-.33-4.52-.26-.56-.48-.95-.49-.96-.03-.06-.09-.1-.16-.12l-3.37-.95s-.05,0-.07,0h0Z"/>
          </g>
          <path class="cls-13" d="M47.15,33.85c-.43.18-.99.39-1.72.65-1.97.69-2.56,2.4-2.71,3.71-1.5-.38-2.68-1.12-2.49-2.19.42-2.32,3.06-4.05,3.06-4.05l3.37.95s.22.38.48.94Z"/>
          <path class="cls-18" d="M47.55,38.06c.14-.32.22-.71.17-1.18-.15-1.57-.92-3.03-1.03-3.03s-.63.13-2.18.02c-1.12-.08-2.09-.55-2.54-.8.69-.69,1.32-1.11,1.32-1.11l3.37.95s.22.38.48.94c.6,1.27,1.43,3.47.4,4.2Z"/>
          <g>
            <path class="cls-69" d="M48.6,26.5c-1.27,0-3.35-2.27-3.44-2.37-.03-.04-.04-.09-.03-.13.16-.47,1.63-4.56,2.75-4.56.16,0,.3.07.44.2.71.64,1.37,2.97,1.36,4.78,0,.67-.11,1.23-.3,1.6-.17.31-.44.48-.78.48Z"/>
            <path class="cls-33" d="M47.88,19.57s0,0,.01,0c.11,0,.23.06.34.16.69.63,1.33,2.95,1.32,4.69,0,.62-.1,1.17-.29,1.54-.15.29-.39.41-.66.41-1.23,0-3.34-2.32-3.34-2.32,0,0,1.56-4.47,2.62-4.47M47.88,19.3c-1.16,0-2.49,3.56-2.87,4.65-.03.09-.01.19.05.26.22.25,2.23,2.41,3.53,2.41.4,0,.71-.19.9-.55.21-.39.32-.97.32-1.66.01-1.66-.6-4.16-1.4-4.88-.16-.15-.33-.22-.51-.23,0,0-.02,0-.02,0h0Z"/>
          </g>
          <path class="cls-36" d="M48.14,20.36c-.52-.14-1.73,3.82-1.73,3.82l2.11,1.79s.73-.34.73-1.51-.59-3.97-1.11-4.1Z"/>
          <path class="cls-13" d="M49.55,24.41c0,.62-.1,1.17-.29,1.54-.83,1.58-4-1.91-4-1.91,0,0,1.58-4.51,2.64-4.47.11,0,.23.06.34.16-.38.82-.71,1.88-.6,2.97.11,1.18,1.03,1.6,1.92,1.72Z"/>
          <path class="cls-33" d="M46.42,23.87c.19-1.1.68-2.1,1.19-3.08.11-.18.24-.4.46-.46.43-.03.62.46.75.76.19.53.27,1.09.28,1.64,0,.01-.02.01-.02,0-.99-4.67-1.8-.82-2.67,1.14h0Z"/>
          <path class="cls-20" d="M46.05,22.53s1.26-2.81,2.01-2.61,1.28,2.09,1.34,3.88.03,1.85.03,1.85"/>
          <g>
            <g>
              <path class="cls-69" d="M45.39,33.53c-2.31,0-4.14-.75-4.91-1.99-.78-1.27-.79-3.05-.04-4.75.7-1.58,1.91-2.72,3.16-2.96.49-.09.98-.14,1.45-.14,2.51,0,4.31,1.24,4.93,3.39.73,2.51-.06,3.5-.34,3.76.09.25.25.96-.3,1.58-.57.65-2.2,1.11-3.96,1.11Z"/>
              <path class="cls-33" d="M45.06,23.82c2.12,0,4.12.95,4.81,3.3.83,2.87-.37,3.68-.37,3.68,0,0,.38.83-.24,1.54-.56.63-2.16,1.06-3.86,1.06-1.91,0-3.94-.54-4.8-1.93-1.62-2.64.44-7.02,3.03-7.51.47-.09.95-.14,1.43-.14M45.06,23.56c-.48,0-.98.05-1.48.14-1.29.25-2.54,1.41-3.26,3.03-.77,1.75-.75,3.57.05,4.88.79,1.29,2.67,2.06,5.02,2.06,1.82,0,3.46-.46,4.06-1.15.55-.62.45-1.31.35-1.64.33-.35,1.01-1.42.31-3.83-.64-2.22-2.49-3.49-5.06-3.49h0Z"/>
            </g>
            <path class="cls-69" d="M49.5,30.8s.36.79-.2,1.48c-.01.02-.03.04-.05.06-.19.21-.49.4-.88.56-.19.13-1.12.67-2.76.69-1.72.02-3.5-.57-4.38-1.39-.25-.21-.47-.45-.64-.73-.65-1.06-.71-2.39-.38-3.65.36-1.39,1.21-2.67,2.25-3.37.37-.25.76-.42,1.17-.5,0,0,0,0,.01,0,.3-.07,2.28-.47,3.89.14,1.05.4,1.56,1.23,1.8,1.83.08.14.17.28.24.43.12.23.22.48.29.75.83,2.87-.37,3.68-.37,3.68Z"/>
            <path class="cls-13" d="M49.57,26.36h-.02s-.55-1.06-1.08-1.26c-.52-.19-.65.26-.85.23-.2-.04-.15-.19-.38-.13-.23.06-.6.26-1.03.1-.44-.16-.5-.05-.81.12-.32.17-1.12-.29-1.48-.26-.35.03-.68.36-.88.28-.12-.05-.37-.51-.57-.98.37-.25.76-.42,1.17-.5,0,0,0,0,.01,0,.3-.07,2.28-.47,3.89.14,1.05.4,1.56,1.23,1.8,1.83.08.14.17.28.24.43Z"/>
            <path class="cls-13" d="M49.3,32.28s-.03.04-.05.06c-.19.21-.49.4-.88.56-.19.12-1.06.63-2.59.68h-.02s-.1,0-.16,0c-1.72.02-3.5-.57-4.38-1.39-.25-.21-.47-.45-.64-.73-.33-.54-.51-1.15-.56-1.79-.05-.61.02-1.24.18-1.86.44.51.92.88,1.41,1.04,2.1.66.77,1.76.96,2.97.19,1.22,2.79,1.84,5.19,1.11.59-.18,1.09-.41,1.52-.66Z"/>
            <path class="cls-15" d="M45.77,33.58s-.1,0-.16,0c-1.72.02-3.5-.57-4.38-1.39-.25-.21-.47-.45-.64-.73-.33-.54-.51-1.15-.56-1.79l.29.2s.17,1.56,1.87,2.72c1,.68,2.5.91,3.57.98Z"/>
          </g>
          <g>
            <g>
              <path class="cls-68" d="M48.58,33.91c-.41,0-.69-.41-.85-1.22-.12-.59-.12-1.19-.12-1.19l.39-.61s.15-.19.38-.19c.26,0,.52.2.78.61.39.61.67,1.53.35,2.12-.17.31-.49.48-.92.48h0Z"/>
              <path class="cls-33" d="M48.38,30.74c.19,0,.44.12.74.59.64,1,.8,2.52-.53,2.54h0c-.93,0-.93-2.37-.93-2.37l.38-.59s.13-.17.35-.17M48.38,30.65c-.26,0-.41.2-.42.21l-.38.59s-.01.03-.01.05c0,.02,0,.61.12,1.2.16.83.46,1.25.9,1.25.58,0,.85-.28.97-.51.33-.6.04-1.55-.36-2.17-.27-.42-.54-.63-.81-.63h0Z"/>
            </g>
            <path class="cls-17" d="M47.92,32.42s.11,1.23.75,1.28.95-.59.83-1.14-.32-.9-.32-.9"/>
            <path class="cls-33" d="M48.69,31.32c.22.43.17.89.17,1.35-.05-.41-.09-.88-.31-1.23-.1-.09.06-.23.13-.12h0Z"/>
          </g>
          <g>
            <path class="cls-69" d="M50.61,27.91s.42-1.35-.67-1.92-1.62.39-1.62.39"/>
            <path class="cls-33" d="M50.61,27.91c.39-1.41-1.22-2.81-2.3-1.53.15-.31.44-.56.8-.61,1.17-.19,1.95,1.13,1.49,2.14h0Z"/>
          </g>
          <g>
            <path class="cls-69" d="M48.79,29.08c.56.07,1.38.62,1.46,1.38s-.61,1.3-.83,1.24-.4-.14-.53-.14-.91.81-2.31.79-1.42-.68-1.42-.68"/>
            <path class="cls-33" d="M48.79,29.08c.7.07,1.42.6,1.53,1.37.04.56-.3,1.13-.83,1.3-.2,0-.35-.09-.52-.12-.12-.03-.27.16-.42.24-.75.52-1.71.71-2.6.5-.33-.08-.78-.29-.78-.68.11.35.47.5.81.56,1,.17,2.01-.13,2.85-.69.22-.07.46.13.66.13.16-.02.31-.14.42-.27.8-.92-.17-2.07-1.11-2.33h0Z"/>
          </g>
          <path class="cls-21" d="M48.69,29.22s.79.04,1.16.73.08,1.33-.15,1.52-.48.05-.73-.04-.44.11-1.15.43-1.27.28-1.87.17-.84-1.04-.38-1.67,1.24-.93,1.24-.93"/>
          <g>
            <path class="cls-52" d="M48.55,31.26c-.3,0-1.28-.06-1.35-.77-.02-.14.03-.27.13-.38.26-.29.83-.42,1.29-.42.51,0,.87.14.98.37.09.2.07.41-.07.63-.21.32-.63.57-.86.57h-.12Z"/>
            <path d="M48.62,29.74c.44,0,.83.11.94.34.26.57-.58,1.13-.89,1.13,0,0-.02,0-.03,0,0,0-.03,0-.09,0-.3,0-1.23-.05-1.31-.73-.05-.49.71-.75,1.37-.75M48.62,29.64h0c-.43,0-1.04.11-1.32.43-.11.12-.16.27-.14.42.08.75,1.09.81,1.4.81.06,0,.09,0,.09,0,0,0,0,0,.02,0,.24,0,.69-.26.9-.59.14-.23.17-.46.07-.67-.11-.25-.5-.4-1.02-.4h0Z"/>
          </g>
          <g>
            <g>
              <path class="cls-69" d="M40.81,30.28c-.22,0-2.18-.06-2.87-2.2-.61-1.9-1.25-6.06-.57-7,.13-.18.29-.21.39-.21.05,0,.11,0,.17.03,1.26.4,4.82,3.17,4.97,3.28.04.04.06.09.04.15l-2,5.86c-.02.05-.07.09-.12.09,0,0-.02,0-.02,0Z"/>
              <path class="cls-33" d="M37.77,21s.08,0,.13.02c1.25.4,4.93,3.26,4.93,3.26l-2,5.86s0,0-.02,0c-.21,0-2.09-.06-2.74-2.11-.67-2.09-1.37-7.04-.3-7.04M37.77,20.74c-.14,0-.34.05-.5.27-.75,1.02.01,5.44.55,7.11.71,2.23,2.76,2.29,2.99,2.29.11,0,.23-.07.27-.18l2-5.86c.04-.11,0-.22-.09-.29-.15-.12-3.73-2.9-5.01-3.31-.07-.02-.14-.03-.21-.03h0Z"/>
            </g>
            <path class="cls-69" d="M43.26,24.07l-.19.57s-.66,2.58-1.28,4.27c-.29.77-.56,1.36-.77,1.42-.05.01-.11.03-.16.03-.48.05-.99-.31-1.2-.48-.59-.26-1.26-.79-1.59-1.85-.49-1.53-1-4.59-.82-6.12.08-.64.28-1.02.65-.9.16.05.36.14.59.26,1.24.66,3.27,2.18,4.03,2.76.05.02.1.05.15.06.35.12.59-.05.59-.05Z"/>
            <g>
              <path class="cls-69" d="M41.4,27.79s.13-1.29,1.65-1.49,2.04,1,2.04,1"/>
              <path class="cls-33" d="M41.4,27.79c.12-1.84,3.06-2.17,3.7-.49-.21-.34-.52-.62-.87-.78-1.08-.46-2.57.04-2.83,1.27h0Z"/>
            </g>
            <path class="cls-11" d="M41.5,29.04s-.66-2.05,1.2-2.57c1.86-.52,2.36.83,2.89,1.29s1.75,0,2.27-.66c.8-.98,1.16-1.35,2.12-1.06s.69,2.87-.08,3.12-1.41-.15-1.87-.18-1.81.17-2.59.82-1.64.65-1.64.65"/>
            <path class="cls-36" d="M41.76,25.24s-3.52-3.2-3.82-2.95.23,5.42,1.05,6.31,1.27-.5,1.71-1.55,1.05-1.81,1.05-1.81Z"/>
            <path class="cls-13" d="M41.79,28.91c-.29.77-.56,1.36-.77,1.42-.52.17-1.13-.26-1.36-.45-.59-.26-1.26-.79-1.59-1.85-.69-2.17-1.42-7.42-.17-7.02.16.05.36.14.59.26-.13.16-.23.34-.3.56-.54,1.64,1.34,6.35,3.44,7.01.06.02.11.04.16.05Z"/>
            <path class="cls-22" d="M40.87,30.37c-.48.05-.99-.31-1.2-.48-.59-.26-1.26-.79-1.59-1.85-.49-1.53-1-4.59-.82-6.12.18,1.41.59,4.64.8,5.59.28,1.23,1.28,2.05,1.44,2.09.17.05.41.04.46.1s.28.45.76.61c.05.02.1.03.15.05Z"/>
            <path class="cls-23" d="M41.79,23.82s-2.6-2.08-3.66-2.52-.75,2.07-.47,3.99.55,2.75.55,2.75"/>
            <path class="cls-33" d="M41.75,25.25c-1.25-.9-2.31-2.08-3.64-2.87-.19-.17-.23.15-.26.39-.02.25,0,.51,0,.77-.11-.18-.11-.53-.13-.77-.03-.29.08-.78.47-.55,1.22.94,2.54,1.93,3.55,3.03h0Z"/>
          </g>
          <g>
            <g>
              <path class="cls-47" d="M45.29,28.56c-.14-1.27-1.76-1.75-2.78-1.13-1.25.76-.96,3.12.84,3.1s1.96-1.52,1.96-1.52"/>
              <path class="cls-70" d="M45.29,28.56c-.13-.92-1.11-1.39-1.93-1.29-1.96.1-1.94,3.26.08,3.14.84.04,1.73-.48,1.87-1.39-.02.96-.95,1.62-1.86,1.63-1.62.2-2.42-1.91-1.36-3.02.95-1.05,3.1-.55,3.2.94h0Z"/>
            </g>
            <path class="cls-47" d="M45.29,28.56c-.14-1.27-1.76-1.75-2.78-1.13-1.25.76-.96,3.12.84,3.1s1.96-1.52,1.96-1.52"/>
            <g>
              <circle cx="43.18" cy="29.25" r=".81"/>
              <circle class="cls-53" cx="43.18" cy="29.25" r=".69"/>
            </g>
          </g>
          <g>
            <g>
              <path class="cls-55" d="M44.97,25s-.7-.02-1.55-.41l-.38.39s-.04.03-.06.03c-.01,0-.03,0-.04,0-.03-.02-.05-.05-.05-.09,0,0,.03-.35-.46-.92-.64-.73-2.5-2.05-2.52-2.07-.03-.02-.04-.06-.03-.1.01-.04.05-.06.08-.06.38,0,.78.04,1.2.12-.38-1.19.43-2.52.46-2.57.02-.03.04-.04.07-.04h0s.06.02.07.04l1.59,2.51c.6-.98,1.85-2.81,3.19-3.59.01,0,.03-.01.04-.01.02,0,.04,0,.06.02.03.03.04.07.02.1-.01.03-1.17,2.79-1.01,3.99.2-.2.65-.57,1.46-.73,0,0,.01,0,.02,0,.03,0,.05.01.07.03.02.02.03.06.02.09,0,.01-.41,1.18-.44,1.82.26-.15.86-.43,1.63-.45h0c1.05,0,1.82.67,1.85.7.03.02.04.06.02.1-.01.03-.05.05-.08.05,0,0-.15,0-.15,0-.4,0-1.77.07-2.35.96-.01.02-.03.03-.06.04,0,0-.01,0-.02,0-.02,0-.04,0-.05-.02l-.21-.15-.14.15s-.04.03-.06.03h0s-.05-.01-.06-.03c0,0-.24-.26-.78-.36l.15.28s.01.07-.01.1c-.02.02-.04.03-.07.03,0,0-.02,0-.03,0,0,0-.63-.22-1.33-.29l.02.25s0,.05-.02.07c-.02.02-.04.03-.06.03h0ZM43.28,21.96s0,0,0,0c0,0,0,0,0,0Z"/>
              <path class="cls-33" d="M46.6,18.3s-1.3,3.09-.98,4.22c0,0,.41-.62,1.53-.84,0,0-.49,1.4-.45,2,0,0,.71-.5,1.72-.52.02,0,.03,0,.04,0,.99,0,1.75.68,1.75.68,0,0-.06,0-.15,0-.46,0-1.82.08-2.42,1l-.28-.19-.19.2s-.3-.34-1.01-.41l.23.43s-.69-.24-1.45-.31l.02.36s-.7-.01-1.57-.43l-.42.43s.05-.37-.48-.98c-.65-.75-2.54-2.08-2.54-2.08.51,0,.99.07,1.34.15-.5-1.2.4-2.65.4-2.65l1.59,2.52s0,0,0,0c-.02,0-.11.04-.22.64,0,0,1.69-3.14,3.54-4.21M46.6,18.12s-.06,0-.09.02c-1.31.76-2.52,2.49-3.15,3.5l-1.51-2.39c-.03-.05-.09-.08-.15-.08h0c-.06,0-.12.03-.15.08-.04.06-.8,1.32-.51,2.51-.37-.06-.73-.1-1.08-.1-.08,0-.14.05-.17.12-.02.07,0,.15.07.2.02.01,1.88,1.33,2.51,2.05.46.53.44.85.44.85,0,.07.03.15.1.18.02.01.05.02.08.02.05,0,.09-.02.12-.05l.33-.34c.85.38,1.5.4,1.53.4h0s.09-.02.13-.05c.03-.04.05-.08.05-.13v-.15c.64.08,1.19.27,1.2.28.02,0,.04.01.06.01.05,0,.1-.02.13-.06.05-.06.06-.13.02-.2l-.06-.11c.37.11.54.28.55.29.03.04.08.06.13.06h0s.1-.02.13-.05l.09-.09.15.1s.06.03.1.03c.01,0,.02,0,.03,0,.05,0,.09-.04.11-.08.55-.85,1.88-.91,2.27-.91.09,0,.14,0,.14,0,0,0,0,0,.01,0,.07,0,.14-.04.16-.11.03-.07.01-.15-.05-.2-.03-.03-.82-.72-1.86-.72h-.05c-.67.01-1.22.23-1.53.38.07-.53.31-1.32.42-1.64.02-.06,0-.13-.03-.17-.03-.04-.08-.06-.13-.06-.01,0-.02,0-.03,0-.68.14-1.12.41-1.37.62-.02-1.04.7-3.01,1.02-3.76.03-.07.01-.15-.05-.2-.03-.03-.07-.04-.12-.04h0ZM46.6,18.47h0,0Z"/>
            </g>
            <path class="cls-49" d="M50.22,23.84s-1.83-.02-2.55,1.08l-.29-.28-.2.33s-.44-.44-1-.55l.33.58s-.66-.3-1.42-.36v.4s-.76-.02-1.63-.44l-.49.43s.08-.49-.45-1.1c-.65-.75-2.54-2.08-2.54-2.08h.02c.5,0,.97.07,1.32.15-.45-1.1.26-2.4.38-2.61h0s.02-.03.02-.03l.02.04,1.57,2.48s-.1-.05-.23.62c.1-.18,1.71-3.09,3.47-4.15.02-.01.04-.02.05-.04h0s-.08.19-.17.43c0,.01-.01.03-.02.05-.35.91-1.03,2.88-.79,3.73,0,0,.37-.55,1.37-.8.05-.01.1-.03.16-.04,0,0,0,0,0,0,0,0-.49,1.4-.45,2,0,0,.65-.44,1.57-.51.05,0,.1,0,.15,0,.82-.02,1.49.44,1.71.61.01,0,.02.01.03.02.02.01.03.02.04.03,0,0,.01.01.01.01Z"/>
            <path class="cls-26" d="M50.22,23.84s-1.83-.02-2.55,1.08l-.29-.28-.2.33s-.44-.44-1-.55l.33.58s-.66-.3-1.42-.36v.4s-.76-.02-1.63-.44l-.49.43s.08-.49-.45-1.1c-.65-.75-2.54-2.08-2.54-2.08h.02c.38.13,1.29.5,2.11,1.14,1,.79,1.32.81,1.35.81-.07-.06-.99-.85-1.44-2.1-.4-1.11-.35-2.06-.32-2.32h0s.02-.03.02-.03l1.59,2.51s-.1-.05-.23.62c.1-.18,1.74-3.15,3.53-4.19-.13.12-2.25,2.01-2.73,3.85-.49,1.91.73,2.18.73,2.18,0,0-.2-.55-.08-1.67.11-1.08.71-1.55.75-1.58-.02.05-.26.71-.01,1.77.25,1.1,1.06,1.32,1.06,1.32,0,0-.26-.57-.02-1.43.16-.55.49-.87.71-1.04.05-.01.11-.03.16-.04,0,0-.49,1.4-.45,2,0,0,.65-.44,1.57-.51-.33.12-.76.31-.97.56-.37.44-.23.81-.23.81,0,0,.13-.8,1.48-.95.99-.11,1.42.07,1.58.18.01,0,.02.01.03.02.02.01.03.02.04.03,0,0,.01.01.01.01Z"/>
            <path class="cls-12" d="M41.57,19.82c-.04.08-.32.74-.17,1.66.14.83.48,1.15.58,1.23-.11-.08-.56-.38-.95-.55-.44-.19-1.07-.31-1.07-.31h.02c.5,0,.97.07,1.32.15-.45-1.1.26-2.4.38-2.61h0s.02-.03.02-.03l.02.04c-.01.31-.12.8.1,1.74.12.53.43,1.25.61,1.54-.22-.31-.48-.72-.66-1.17-.36-.9-.23-1.6-.22-1.68Z"/>
            <path class="cls-12" d="M46.43,18.74c-.33.33-1.99,2-2.49,3.19.12-.33.84-2.07,2.61-3.59.02-.01.04-.02.05-.04h0s-.08.19-.17.43Z"/>
            <path class="cls-12" d="M47.15,21.68c-.06.03-.59.27-.81.96-.23.74-.11,1.18-.11,1.18,0,0-.23-.53-.16-1.04.07-.47.39-.77.44-.82-.06.03-.55.29-.74.63-.19.37-.2.48-.2.48,0,0-.39-.28-.12-1.87.22-1.28.75-2.13.95-2.42-.35.91-1.03,2.88-.79,3.73,0,0,.37-.55,1.37-.8.05-.01.1-.03.16-.04Z"/>
            <ellipse class="cls-12" cx="45.57" cy="20.42" rx=".37" ry=".2" transform="translate(10.26 55.73) rotate(-69.13)"/>
            <ellipse class="cls-12" cx="45.17" cy="20.68" rx=".19" ry=".1" transform="translate(9.76 55.52) rotate(-69.13)"/>
          </g>
          <g>
            <g>
              <path class="cls-54" d="M48.49,28.35c-.23-.98.08-2.15,1.4-2.01s1.58,1.61,1,2.44-1.98.7-2.34-.23"/>
              <path class="cls-70" d="M48.49,28.35c-.44-1.3.42-2.54,1.84-2.04,1.25.41,1.31,2.38.16,2.95-.72.38-1.72.05-1.95-.71.32.71,1.26.87,1.85.52.6-.35.79-1.2.53-1.82-.22-.66-1.04-.94-1.7-.74-.68.23-.87,1.13-.73,1.84h0Z"/>
            </g>
            <g>
              <path class="cls-58" d="M48.49,28.35c-.23-.98.08-2.15,1.4-2.01s1.58,1.61,1,2.44-1.98.7-2.34-.23"/>
              <g>
                <ellipse cx="50.27" cy="27.47" rx=".64" ry=".81" transform="translate(-6.07 17.1) rotate(-18.22)"/>
                <ellipse class="cls-57" cx="50.27" cy="27.47" rx=".55" ry=".69" transform="translate(-6.07 17.1) rotate(-18.22)"/>
              </g>
            </g>
          </g>
        </g>
        <g>
          <polygon class="cls-62" points="36.8 12.37 38.98 7.31 41.62 9.23 37.51 12.86 36.8 12.37"/>
          <polygon class="cls-63" points="35.16 12.06 33.13 6.94 36.35 6.42 36.02 11.9 35.16 12.06"/>
          <polygon class="cls-64" points="38.66 14.06 42.77 10.4 44.36 13.25 39.09 14.81 38.66 14.06"/>
        </g>
      </g>
    </g>
  </g>
</svg>