<?xml version="1.0" encoding="UTF-8"?>
<svg xmlns="http://www.w3.org/2000/svg" xmlns:xlink="http://www.w3.org/1999/xlink" viewBox="0 0 41.01 16.13">
  <defs>
    <style>
      .cls-1 {
        fill: none;
      }

      .cls-2 {
        fill: url(#linear-gradient-3);
      }

      .cls-3 {
        fill: url(#linear-gradient-2);
      }

      .cls-4, .cls-5 {
        fill: #fff;
      }

      .cls-4, .cls-6 {
        mix-blend-mode: overlay;
      }

      .cls-7 {
        fill: url(#radial-gradient);
      }

      .cls-8 {
        fill: url(#linear-gradient);
      }

      .cls-9 {
        isolation: isolate;
      }

      .cls-10 {
        clip-path: url(#clippath);
      }

      .cls-11 {
        fill: #5c4b44;
      }
    </style>
    <clipPath id="clippath">
      <path class="cls-1" d="M11.13,8.54H0s4.75,7.5,13.42,7.58,27.6-5.21,27.6-5.21L36.36,0l-12.27,1.2"/>
    </clipPath>
    <radialGradient id="radial-gradient" cx="36.74" cy="-25.89" fx="36.74" fy="-25.89" r="33.76" gradientUnits="userSpaceOnUse">
      <stop offset=".08" stop-color="#fffcfe"/>
      <stop offset="1" stop-color="#e1dedd"/>
    </radialGradient>
    <linearGradient id="linear-gradient" x1="18.17" y1="5.82" x2="32.85" y2="5.97" gradientUnits="userSpaceOnUse">
      <stop offset="0" stop-color="#e1dedd"/>
      <stop offset=".95" stop-color="#2e1d14"/>
    </linearGradient>
    <linearGradient id="linear-gradient-2" x1="14.11" y1="6.42" x2="15.72" y2="10.48" xlink:href="#linear-gradient"/>
    <linearGradient id="linear-gradient-3" x1="18.44" y1="4.71" x2="20.05" y2="8.77" xlink:href="#linear-gradient"/>
  </defs>
  <g class="cls-9">
    <g id="Layer_2" data-name="Layer 2">
      <g id="Layer_1-2" data-name="Layer 1">
        <g class="cls-10">
          <g>
            <g>
              <path class="cls-7" d="M10.83,13.62c-.35,0-.71-.01-1.08-.03C4.28,13.31.04,9.21.11,4.24c0-.38.03-.72.08-1.05C.41,1.61,1.07.14,2.15-1.19c2.16-2.67,7-5.91,17.77-6.17,8.24-.2,13.26-2.31,14.13-5.95.82-3.4-1.95-7.57-4.95-9.19-1.87-1.01-3.99-1.52-6.28-1.52-3.34,0-5.9,1.08-6.18,1.21-.31.14-.65.22-.99.22-.92,0-1.77-.54-2.15-1.38-.55-1.18-.03-2.59,1.15-3.14.15-.07,3.61-1.66,8.17-1.66,1.47,0,2.91.17,4.29.49,1.48.34,2.91.89,4.25,1.61,4.59,2.48,8.69,8.71,7.31,14.46-1,4.19-5.04,9.25-18.63,9.58-4.41.11-7.99.75-10.65,1.9-2.86,1.24-4.51,3.08-4.53,5.03-.03,2.37,2.27,4.41,5.14,4.55.29.01.58.02.86.02.95,0,1.82-.08,2.67-.26.85-.18,1.66-.44,2.49-.8.78-.34,1.52-.75,2.21-1.15l1.61-.92c1.97-1.11,4.35-2.31,7.77-2.47.28-.02.57-.02.87-.02,1.69,0,3.47.24,5.45.74.61.15,1.13.54,1.45,1.08.33.54.42,1.18.26,1.8-.1.4-.31.77-.59,1.07-.21.22-.48.41-.78.54-.3.12-.6.18-.92.18-.2,0-.39-.03-.58-.07-1.62-.41-3.02-.61-4.31-.61-.35,0-.69.02-1.01.04-2.46.21-4.18,1.21-6.17,2.36-2.64,1.52-5.61,3.23-10.43,3.23Z"/>
              <path class="cls-11" d="M22.81-28.53c1.33,0,2.76.14,4.23.48,1.37.32,2.78.83,4.19,1.59,4.51,2.43,8.54,8.54,7.19,14.19-.98,4.1-4.97,9.07-18.39,9.39-4.81.12-8.3.86-10.74,1.92C5.98.48,4.62,2.49,4.6,4.3c-.03,2.5,2.38,4.65,5.37,4.8.3.02.59.02.87.02,1.01,0,1.91-.1,2.73-.26.93-.19,1.76-.48,2.54-.82.77-.34,1.49-.74,2.23-1.16.22-.13.45-.25.67-.39.31-.17.62-.35.93-.53,2.06-1.16,4.39-2.28,7.66-2.44.28-.01.57-.02.86-.02,1.56,0,3.34.22,5.38.73,1.14.28,1.82,1.44,1.54,2.57-.09.37-.28.7-.53.96-.2.21-.44.37-.7.48-.26.11-.53.16-.82.16-.17,0-.35-.02-.52-.07-1.7-.43-3.13-.62-4.37-.62-.36,0-.7.02-1.04.05-2.51.21-4.26,1.23-6.28,2.39-2.61,1.5-5.54,3.2-10.31,3.2-.34,0-.7,0-1.07-.03C4.42,13.07.29,9.07.36,4.24c0-.34.03-.68.08-1.02C.64,1.77,1.25.31,2.34-1.04c2.63-3.26,8.1-5.85,17.58-6.08,8.37-.2,13.47-2.38,14.37-6.14.84-3.51-2-7.8-5.08-9.46-2.18-1.17-4.42-1.55-6.39-1.55-3.54,0-6.25,1.21-6.29,1.23-.29.13-.59.19-.89.19-.8,0-1.57-.46-1.93-1.23-.49-1.06-.03-2.31,1.03-2.81.22-.1,3.59-1.63,8.06-1.63M22.81-29.02c-4.62,0-8.13,1.61-8.27,1.68-1.3.61-1.87,2.16-1.27,3.47.43.92,1.36,1.52,2.38,1.52.38,0,.75-.08,1.09-.24.27-.12,2.8-1.18,6.08-1.18,2.25,0,4.32.5,6.16,1.49,2.92,1.57,5.62,5.62,4.83,8.91-.84,3.52-5.78,5.57-13.9,5.76C9.05-7.35,4.15-4.06,1.96-1.35.85.02.17,1.53-.05,3.16c-.05.34-.08.69-.08,1.08-.07,5.1,4.27,9.32,9.87,9.6.37.02.74.03,1.09.03,4.89,0,7.89-1.73,10.54-3.26,1.99-1.15,3.69-2.14,6.09-2.34.32-.03.66-.04.99-.04,1.26,0,2.65.2,4.24.6.21.05.42.08.64.08.35,0,.69-.07,1.01-.2.34-.15.63-.35.87-.6.32-.33.54-.74.65-1.18.17-.68.07-1.39-.29-1.99-.36-.6-.93-1.02-1.61-1.19-2-.5-3.8-.75-5.5-.75-.3,0-.6,0-.89.02-3.48.17-5.89,1.38-7.88,2.5l-.55.31-.39.22-.43.25-.25.14c-.68.39-1.41.79-2.18,1.14-.81.36-1.61.62-2.44.79-.83.17-1.69.25-2.62.25-.27,0-.55,0-.84-.02-2.73-.14-4.93-2.07-4.9-4.3.02-1.85,1.62-3.6,4.39-4.81,2.63-1.14,6.18-1.77,10.55-1.88,13.74-.33,17.84-5.5,18.86-9.77,1.41-5.87-2.76-12.22-7.43-14.74-1.36-.73-2.81-1.28-4.31-1.63-1.39-.33-2.85-.5-4.34-.5h0Z"/>
            </g>
            <path class="cls-8" d="M35.39,6.81c-.29,1.14-1.44,1.82-2.57,1.54-2.2-.56-3.93-.7-5.4-.57-.28-1.94-.1-3.31.19-4.25,1.77-.09,3.81.1,6.24.71,1.14.28,1.82,1.44,1.54,2.57Z"/>
            <path class="cls-3" d="M16.11,8.04c.16.79.53,1.68,1.16,2.53,0,0-2.63.31-3.7-1.71.93-.19,1.76-.48,2.54-.82Z"/>
            <path class="cls-2" d="M20.47,9.05s-1.23-.21-1.88-1.49c-.11-.21-.19-.44-.25-.68.22-.13.45-.25.67-.39.31-.17.62-.35.93-.53-.05.32-.06.66-.01.97.2,1.32.54,2.12.54,2.12Z"/>
            <path class="cls-6" d="M28.98-6.86c-6.86,2.77-14.06.48-21.31,3.49C3.19-1.51,1.26,1.33.44,3.22,1.13-1.74,6.52-6.79,19.92-7.12c8.37-.2,13.47-2.38,14.37-6.14.84-3.51-2-7.8-5.08-9.46-6.08-3.28-12.62-.35-12.68-.33-1.07.49-2.32.02-2.81-1.04s-.03-2.31,1.03-2.81c.28-.13,5.87-2.67,12.3-1.15-.25.13-.45.28-.57.46-1.54,2.2,3.76,1.89,7.43,7.13,3.67,5.24,1.94,10.83-4.92,13.6Z"/>
            <path class="cls-6" d="M35.39,6.81c-.09.37-.28.7-.53.96-.02-.73-.48-2.55-4.47-3.01-5.02-.57-8.78,1.81-13.93,4.87-5.14,3.07-13.18.57-12.73-4.39C4.11,1.11,7.98-.52,9.29-.96,5.98.48,4.62,2.49,4.6,4.3c-.03,2.5,2.38,4.65,5.37,4.8,1.38.07,2.55-.03,3.59-.24.93-.19,1.76-.48,2.54-.82.77-.34,1.49-.74,2.23-1.16.22-.13.45-.25.67-.39.31-.17.62-.35.93-.53,2.06-1.16,4.39-2.28,7.66-2.44,1.77-.09,3.81.1,6.24.71,1.14.28,1.82,1.44,1.54,2.57Z"/>
            <path class="cls-4" d="M34.15,8.24c-.41.17-.88.22-1.34.1-2.2-.56-3.93-.7-5.4-.57-2.51.21-4.26,1.23-6.28,2.39-2.61,1.5-5.54,3.2-10.31,3.2-.34,0-.7,0-1.07-.03C4.42,13.07.29,9.07.36,4.24c0-.34.03-.68.08-1.02C.64,1.77,1.25.31,2.34-1.04,1.29.81.24,3.67,1.29,6.74c1.81,5.26,7.01,6.92,12.36,6.02,5.35-.9,8.57-5.23,13.66-5.53,2.21-.13,4.61.39,6.84,1.02Z"/>
            <ellipse class="cls-5" cx="11.44" cy="12.89" rx=".96" ry=".4"/>
            <ellipse class="cls-5" cx="12.58" cy="12.28" rx=".55" ry=".3"/>
          </g>
        </g>
      </g>
    </g>
  </g>
</svg>