<?xml version="1.0" encoding="UTF-8"?>
<svg id="Layer_2" data-name="Layer 2" xmlns="http://www.w3.org/2000/svg" viewBox="0 0 139.11 4.07">
  <g id="Layer_1-2" data-name="Layer 1">
    <path d="M135.68,3.41c-.25.16-.52.29-.81.38-1.62.5-3.1.21-4.5-.76-1.9-1.32-3.75-1.29-5.67-.03-.48.31-.98.63-1.52.8-1.6.51-3.06.18-4.44-.78-1.91-1.32-3.76-1.29-5.67-.02-2.07,1.39-3.88,1.39-5.96,0-1.92-1.28-3.76-1.28-5.68,0-2.08,1.39-3.89,1.39-5.96,0-1.89-1.27-3.73-1.27-5.63-.03-.4.26-.81.55-1.26.72-1.56.59-3.07.45-4.47-.51-.73-.5-1.47-.94-2.37-1.07-1.48-.2-2.72.28-3.93,1.1-1.62,1.11-3.36,1.14-5.05.13-.98-.59-1.92-1.24-3.12-1.26h0c-1.36-.09-2.38.65-3.42,1.33-.25.16-.52.29-.81.38-1.62.5-3.1.21-4.5-.76-1.9-1.32-3.75-1.29-5.67-.03-.48.31-.98.63-1.52.8-1.6.51-3.06.18-4.44-.78-1.91-1.32-3.76-1.29-5.67-.02-2.07,1.39-3.88,1.39-5.96,0-1.92-1.28-3.76-1.28-5.68,0-2.08,1.39-3.89,1.39-5.96,0-1.89-1.27-3.73-1.27-5.63-.03-.4.26-.81.55-1.26.72-1.56.59-3.07.45-4.47-.51-.73-.5-1.47-.94-2.37-1.07-1.48-.2-2.72.28-3.93,1.1-1.62,1.11-3.36,1.14-5.05.13-1.04-.62-2.03-1.33-3.34-1.27V0h139.11v2.09c-1.36-.09-2.38.64-3.42,1.32Z"/>
  </g>
</svg>