<?xml version="1.0" encoding="UTF-8"?>
<svg id="Layer_2" data-name="Layer 2" xmlns="http://www.w3.org/2000/svg" xmlns:xlink="http://www.w3.org/1999/xlink" viewBox="0 0 32.62 16.87">
  <defs>
    <style>
      .cls-1 {
        fill: #2746d2;
      }

      .cls-2 {
        fill: url(#linear-gradient-5);
      }

      .cls-3 {
        fill: url(#linear-gradient-6);
      }

      .cls-4 {
        fill: url(#linear-gradient-4);
      }

      .cls-5 {
        fill: url(#linear-gradient-3);
      }

      .cls-6 {
        fill: url(#linear-gradient-2);
      }

      .cls-7 {
        fill: url(#linear-gradient);
      }

      .cls-8 {
        fill: #fafcfe;
      }
    </style>
    <linearGradient id="linear-gradient" x1="-116.34" y1="4.51" x2="-117.14" y2="-6" gradientTransform="translate(131.95 -6.21) rotate(-7.62)" gradientUnits="userSpaceOnUse">
      <stop offset=".05" stop-color="#53fc1a"/>
      <stop offset=".68" stop-color="#21a6fa"/>
    </linearGradient>
    <linearGradient id="linear-gradient-2" x1="-116.61" y1="-.04" x2="-116.36" y2="3.71" gradientTransform="translate(131.95 -6.21) rotate(-7.62)" gradientUnits="userSpaceOnUse">
      <stop offset=".26" stop-color="#9dff91" stop-opacity="0"/>
      <stop offset="1" stop-color="#87fc60"/>
    </linearGradient>
    <linearGradient id="linear-gradient-3" x1="-373.6" y1="-50.29" x2="-374.2" y2="-58.1" gradientTransform="translate(370.71 -77.33) rotate(-21.99)" xlink:href="#linear-gradient"/>
    <linearGradient id="linear-gradient-4" x1="-373.81" y1="-53.67" x2="-373.62" y2="-50.88" gradientTransform="translate(370.71 -77.33) rotate(-21.99)" xlink:href="#linear-gradient-2"/>
    <linearGradient id="linear-gradient-5" x1="-455.19" y1="-85.37" x2="-455.79" y2="-93.18" gradientTransform="translate(-426.88 -77.33) rotate(-158.01) scale(1 -1)" xlink:href="#linear-gradient"/>
    <linearGradient id="linear-gradient-6" x1="-455.4" y1="-88.75" x2="-455.21" y2="-85.96" gradientTransform="translate(-426.88 -77.33) rotate(-158.01) scale(1 -1)" xlink:href="#linear-gradient-2"/>
  </defs>
  <g id="Layer_1-2" data-name="Layer 1">
    <g>
      <g>
        <g>
          <path class="cls-1" d="M16.06.28s-1.73,1.64.06,3.86-.83,3.17-1.49,1.91-.41-2-.41-2c0,0-1.69,1.59-.55,3.22s-.26,2.49-.88,1.71-.02-1.46-.29-2.07-.97-.49-.97-.49c0,0,.94.35.32,2.45s.3,6.43,5.72,5.54c4.08-.68,4.47-4.38,3.24-5.73s.03-2.68-1.01-4.3c0,0-.26,2.44-1.32,2.03s.16-.96-.31-2.3-1.74-1.77-2.12-2.66.01-1.18.01-1.18Z"/>
          <path class="cls-1" d="M17.55,0s-.7,1.06.15,1.71.85,1.18.85,1.18c0,0,1.41-.74.25-1.5s-1.24-1.09-1.25-1.39Z"/>
          <path class="cls-1" d="M12.63,3.78s-.37.81-.32,1.38.42.95.45.95.05-.32.22-1.09-.35-1.24-.35-1.24Z"/>
        </g>
        <path class="cls-7" d="M12.37,9.8c-.03-.06-.34,2.4,1.68,3.66s5.4.12,6.26-1.13.52-2.72-.34-3.56-.22-1.65-.27-1.85-.33-.18-.33-.18c0,0-.11.47-.74.55s-1.3-.35-1.17-1.1.5-1.38,0-2.36-1.3-1.39-1.45-1.37.83.85.9,2.05.18,2.41-.67,2.7-1.5.06-1.85-.57-.09-1.1-.22-1.08-.49.66-.11,1.53,1.26,2.31.17,2.91-1.74.05-1.87-.22Z"/>
        <path class="cls-6" d="M12.71,10.51s.38,3.29,3.71,3.18c3.33-.11,4.33-2.19,4.12-3.2s-1.07-1.66-1.24-2.13.06-1.02.06-1.02"/>
        <path class="cls-8" d="M15.64,11.05c-.12-.5-.25-1-.37-1.5-.01-.04,0-.06.04-.07.31-.07.62-.15.94-.23.04-.01.06,0,.07.04.05.2.1.4.14.59,0,.04.02.05.06.04.08-.02.16-.04.25-.06.04,0,.05-.03.04-.06-.02-.08-.04-.17-.06-.25-.01-.04,0-.05.04-.06.08-.02.17-.04.25-.06.03,0,.04-.02.03-.05-.02-.09-.04-.17-.06-.26,0-.03,0-.05.03-.06.32-.08.64-.15.95-.23.04,0,.05,0,.06.04.08.32.15.63.23.95,0,.04,0,.05-.04.06-.08.02-.16.04-.25.06-.04,0-.05.03-.04.07.02.08.04.17.06.25,0,.04,0,.05-.03.06-.08.02-.17.04-.25.06-.03,0-.05.02-.04.06.02.09.04.17.06.26,0,.03.02.04.05.03.08-.02.17-.04.25-.06.04-.01.06,0,.06.04.02.08.04.16.06.25,0,.04.02.05.06.04.09-.02.17-.04.26-.06.03,0,.05,0,.05.03.08.32.16.64.24.96,0,.04,0,.05-.03.05-.32.08-.64.16-.96.24-.04,0-.05,0-.05-.03-.02-.08-.04-.16-.06-.25,0-.04-.02-.06-.07-.05-.08.02-.17.04-.25.06-.03,0-.04,0-.05-.03-.02-.09-.04-.18-.06-.26,0-.03-.02-.04-.05-.03-.09.02-.17.04-.26.06-.04,0-.04.02-.03.06.05.2.1.4.15.59.01.04,0,.06-.04.07-.31.07-.62.15-.94.23-.05.01-.06,0-.07-.04-.12-.5-.25-1.01-.37-1.51Z"/>
      </g>
      <g>
        <g>
          <path class="cls-1" d="M2.13,6.49s-.94,1.5.75,2.77-.02,2.43-.72,1.65-.67-1.36-.67-1.36c0,0-.93,1.46.2,2.42s.27,1.84-.32,1.39-.28-1.05-.59-1.44-.79-.18-.79-.18c0,0,.74.08.68,1.71s1.4,4.58,5.14,2.93c2.82-1.24,2.41-3.98,1.27-4.72s-.47-1.94-1.52-2.91c0,0,.26,1.81-.58,1.7s-.06-.72-.65-1.6-1.58-.96-2.02-1.52-.21-.85-.21-.85Z"/>
          <path class="cls-1" d="M3.15,6.02s-.31.89.43,1.2.83.69.83.69c0,0,.88-.79-.09-1.12s-1.1-.56-1.16-.77Z"/>
          <path class="cls-1" d="M.31,9.65s-.11.65.02,1.06.48.61.5.6-.02-.24-.04-.83-.48-.83-.48-.83Z"/>
        </g>
        <path class="cls-5" d="M1.23,14.03s.2,1.79,1.89,2.32,3.91-.91,4.3-1.97-.13-2.05-.9-2.5-.46-1.15-.53-1.28-.27-.07-.27-.07c0,0,0,.36-.43.53s-1-.02-1.05-.58.11-1.09-.44-1.7-1.19-.76-1.3-.72.76.46,1.03,1.31.57,1.7.02,2.07-1.07.32-1.44-.07-.27-.77-.36-.74-.23.56.21,1.12,1.33,1.43.66,2.07-1.24.36-1.39.18Z"/>
        <path class="cls-4" d="M1.61,14.47s.88,2.3,3.25,1.6,2.71-2.38,2.38-3.06-1.08-1-1.29-1.3-.15-.74-.15-.74"/>
        <path class="cls-8" d="M3.78,14.44c-.21-.36-.42-.71-.64-1.06-.02-.03-.02-.05.02-.07.22-.13.44-.26.66-.4.03-.02.04-.02.06.01.08.14.17.28.25.42.02.03.03.03.06.01.06-.04.12-.07.18-.11.03-.02.03-.03.01-.06-.04-.06-.07-.12-.11-.17-.02-.03-.01-.04.02-.06.06-.03.12-.07.18-.11.02-.01.03-.03.01-.05-.04-.06-.07-.12-.11-.18-.01-.02-.02-.04.01-.05.23-.13.45-.27.68-.4.03-.02.04,0,.05.02.13.22.27.45.4.67.02.03.01.04-.01.06-.06.03-.12.07-.18.1-.03.02-.03.03-.01.06.04.06.07.12.11.18.02.02.01.04-.01.05-.06.03-.12.07-.18.11-.02.01-.03.02-.02.05.04.06.07.12.11.18.01.02.03.03.05.01.06-.04.12-.07.18-.11.03-.02.04-.01.06.02.03.06.07.12.1.18.01.03.03.03.05.01.06-.04.12-.07.18-.11.02-.02.04-.01.05.01.13.23.27.45.41.68.01.02,0,.04-.01.05-.23.13-.45.27-.68.41-.02.01-.04,0-.05-.01-.03-.06-.07-.12-.1-.18-.02-.03-.03-.04-.07-.02-.06.04-.12.07-.17.11-.02.01-.03.01-.05-.01-.04-.06-.08-.12-.11-.19-.01-.02-.02-.03-.05-.01-.06.04-.12.07-.18.11-.03.01-.03.03-.01.05.09.14.17.28.25.42.02.03.01.04-.02.06-.22.13-.44.26-.66.4-.03.02-.04.01-.06-.02-.21-.36-.43-.71-.64-1.07Z"/>
      </g>
      <g>
        <g>
          <path class="cls-1" d="M30.49,4.51s.94,1.5-.75,2.77.02,2.43.72,1.65.67-1.36.67-1.36c0,0,.93,1.46-.2,2.42s-.27,1.84.32,1.39.28-1.05.59-1.44.79-.18.79-.18c0,0-.74.08-.68,1.71s-1.4,4.58-5.14,2.93c-2.82-1.24-2.41-3.98-1.27-4.72s.47-1.94,1.52-2.91c0,0-.26,1.81.58,1.7s.06-.72.65-1.6,1.58-.96,2.02-1.52.21-.85.21-.85Z"/>
          <path class="cls-1" d="M29.47,4.03s.31.89-.43,1.2-.83.69-.83.69c0,0-.88-.79.09-1.12s1.1-.56,1.16-.77Z"/>
          <path class="cls-1" d="M32.31,7.66s.11.65-.02,1.06-.48.61-.5.6.02-.24.04-.83.48-.83.48-.83Z"/>
        </g>
        <path class="cls-2" d="M31.39,12.05s-.2,1.79-1.89,2.32-3.91-.91-4.3-1.97.13-2.05.9-2.5.46-1.15.53-1.28.27-.07.27-.07c0,0,0,.36.43.53s1-.02,1.05-.58-.11-1.09.44-1.7,1.19-.76,1.3-.72-.76.46-1.03,1.31-.57,1.7-.02,2.07,1.07.32,1.44-.07.27-.77.36-.74.23.56-.21,1.12-1.33,1.43-.66,2.07,1.24.36,1.39.18Z"/>
        <path class="cls-3" d="M31.01,12.49s-.88,2.3-3.25,1.6-2.71-2.38-2.38-3.06,1.08-1,1.29-1.3.15-.74.15-.74"/>
        <path class="cls-8" d="M26.96,11.47c.18-.32.36-.65.54-.97.02-.03.03-.03.06-.02.2.11.4.23.6.34.03.01.03.03.01.05-.07.13-.14.26-.22.38-.01.02-.01.04.01.05.05.03.11.06.16.09.03.02.04,0,.05-.01.03-.05.06-.11.09-.16.01-.03.03-.03.05-.01.05.03.11.06.16.09.02.01.03,0,.04-.01.03-.06.06-.11.09-.17.01-.02.02-.03.05-.02.2.12.41.23.61.35.02.01.02.03.01.05-.12.2-.23.41-.34.61-.01.02-.03.03-.05.01-.05-.03-.11-.06-.16-.09-.03-.02-.04-.01-.05.02-.03.05-.06.11-.09.16-.01.02-.02.03-.05.01-.05-.03-.11-.06-.16-.09-.02-.01-.03-.02-.05.01-.03.06-.06.11-.09.17-.01.02,0,.03.01.04.06.03.11.06.16.09.03.01.03.03.01.05-.03.05-.06.11-.09.16-.01.02-.01.03.01.05.06.03.11.06.17.09.02.01.02.02.01.04-.12.21-.23.41-.35.62-.01.02-.02.02-.04.01-.21-.12-.41-.23-.62-.35-.02-.01-.02-.02-.01-.04.03-.05.06-.11.09-.16.02-.03.02-.04-.02-.06-.05-.03-.11-.06-.16-.09-.02-.01-.02-.02-.01-.04.03-.06.06-.11.1-.17.01-.02.01-.03-.01-.04-.06-.03-.11-.06-.17-.09-.02-.01-.03,0-.05.01-.07.13-.14.26-.21.38-.02.03-.03.03-.06.01-.2-.11-.4-.23-.6-.34-.03-.02-.03-.03-.01-.06.18-.32.37-.65.55-.97Z"/>
      </g>
    </g>
  </g>
</svg>