<?xml version="1.0" encoding="UTF-8"?>
<svg xmlns="http://www.w3.org/2000/svg" xmlns:xlink="http://www.w3.org/1999/xlink" viewBox="0 0 45.17 48.01">
  <defs>
    <style>
      .cls-1, .cls-2 {
        fill: none;
      }

      .cls-3 {
        fill: #fbfcf7;
      }

      .cls-4 {
        fill: url(#radial-gradient-7);
      }

      .cls-5 {
        fill: url(#radial-gradient-6);
      }

      .cls-6 {
        fill: url(#radial-gradient-5);
      }

      .cls-7 {
        fill: url(#radial-gradient-4);
      }

      .cls-8 {
        fill: url(#radial-gradient-9);
      }

      .cls-9 {
        fill: url(#radial-gradient-8);
      }

      .cls-10 {
        fill: url(#radial-gradient-3);
      }

      .cls-11 {
        fill: url(#radial-gradient-2);
      }

      .cls-12 {
        fill: url(#linear-gradient-8);
      }

      .cls-13 {
        fill: url(#linear-gradient-7);
      }

      .cls-14 {
        fill: url(#linear-gradient-5);
      }

      .cls-15 {
        fill: url(#linear-gradient-6);
      }

      .cls-16 {
        fill: url(#linear-gradient-4);
      }

      .cls-17 {
        fill: url(#linear-gradient-3);
      }

      .cls-18 {
        fill: url(#linear-gradient-2);
      }

      .cls-19 {
        fill: #acd2e3;
      }

      .cls-20 {
        fill: #fff;
      }

      .cls-20, .cls-21, .cls-22 {
        mix-blend-mode: overlay;
      }

      .cls-23 {
        fill: url(#radial-gradient);
      }

      .cls-24 {
        fill: url(#linear-gradient);
      }

      .cls-25 {
        isolation: isolate;
      }

      .cls-26 {
        fill: #feb6a8;
      }

      .cls-27 {
        fill: #170e02;
      }

      .cls-28 {
        fill: #c1bcd6;
      }

      .cls-29 {
        fill: url(#radial-gradient-10);
      }

      .cls-2 {
        stroke: #5c4b44;
        stroke-linecap: round;
        stroke-linejoin: round;
        stroke-width: .39px;
      }

      .cls-30 {
        fill: #f7ffff;
      }

      .cls-22 {
        opacity: .65;
      }

      .cls-31 {
        fill: #565173;
        opacity: .39;
      }

      .cls-32 {
        fill: #1c1b21;
      }

      .cls-33 {
        clip-path: url(#clippath);
      }

      .cls-34 {
        fill: #5c4b44;
      }
    </style>
    <radialGradient id="radial-gradient" cx="41.47" cy="45.69" fx="41.47" fy="45.69" r="17.01" gradientUnits="userSpaceOnUse">
      <stop offset=".08" stop-color="#fffcfe"/>
      <stop offset="1" stop-color="#e1dedd"/>
    </radialGradient>
    <radialGradient id="radial-gradient-2" cx="27.78" cy="48.86" fx="27.78" fy="48.86" r="26.43" xlink:href="#radial-gradient"/>
    <radialGradient id="radial-gradient-3" cx="1331.14" cy="-90.86" fx="1331.14" fy="-90.86" r="38.47" gradientTransform="translate(1358.08 -157.6) rotate(169.1) scale(1 -1)" xlink:href="#radial-gradient"/>
    <radialGradient id="radial-gradient-4" cx="34.75" cy="4.28" fx="34.75" fy="4.28" r="39.86" xlink:href="#radial-gradient"/>
    <radialGradient id="radial-gradient-5" cx="25.38" cy="11.04" fx="25.38" fy="11.04" r="78.82" xlink:href="#radial-gradient"/>
    <radialGradient id="radial-gradient-6" cx="25.35" cy="11.19" fx="25.35" fy="11.19" r="77.77" xlink:href="#radial-gradient"/>
    <linearGradient id="linear-gradient" x1="-48.61" y1="12.07" x2="-40.58" y2="12.07" gradientTransform="translate(84.32 12.69) rotate(-4.35)" gradientUnits="userSpaceOnUse">
      <stop offset="0" stop-color="#e1dedd"/>
      <stop offset=".85" stop-color="#2e1d14"/>
    </linearGradient>
    <linearGradient id="linear-gradient-2" x1="-50.28" y1="15.87" x2="-45.69" y2="15.87" xlink:href="#linear-gradient"/>
    <linearGradient id="linear-gradient-3" x1="-49.13" y1="7.26" x2="-42.48" y2="7.26" xlink:href="#linear-gradient"/>
    <linearGradient id="linear-gradient-4" x1="1266.21" y1="12.07" x2="1274.25" y2="12.07" gradientTransform="translate(1271.38 -77.54) rotate(175.65) scale(1 -1)" xlink:href="#linear-gradient"/>
    <linearGradient id="linear-gradient-5" x1="1264.54" y1="15.87" x2="1269.14" y2="15.87" gradientTransform="translate(1271.38 -77.54) rotate(175.65) scale(1 -1)" xlink:href="#linear-gradient"/>
    <linearGradient id="linear-gradient-6" x1="1265.7" y1="7.26" x2="1272.34" y2="7.26" gradientTransform="translate(1271.38 -77.54) rotate(175.65) scale(1 -1)" xlink:href="#linear-gradient"/>
    <radialGradient id="radial-gradient-7" cx="54.63" cy="55.75" fx="54.63" fy="55.75" r="38.47" gradientTransform="translate(-43.22 -51.09) rotate(2.2)" xlink:href="#radial-gradient"/>
    <radialGradient id="radial-gradient-8" cx="10.19" cy="6.85" fx="10.19" fy="6.85" r="39.57" xlink:href="#radial-gradient"/>
    <clipPath id="clippath">
      <path class="cls-1" d="M31.26,21.12s-1.12,2.49-.04,4.98c1.59,3.67,5.83,2.83,7.23,1.06s.25-4.28.25-4.28c0,0-1.95-5.87-7.43-1.76Z"/>
    </clipPath>
    <linearGradient id="linear-gradient-7" x1="351.89" y1="-7.4" x2="351.89" y2="-11.52" gradientTransform="translate(384.42 -12.33) rotate(172.13) scale(1 -1)" gradientUnits="userSpaceOnUse">
      <stop offset="0" stop-color="#95b7c5"/>
      <stop offset=".24" stop-color="#8fb4c7"/>
      <stop offset=".53" stop-color="#80add0"/>
      <stop offset=".85" stop-color="#67a2dd"/>
      <stop offset="1" stop-color="#599ce5"/>
    </linearGradient>
    <radialGradient id="radial-gradient-9" cx="-115.8" cy="-15.92" fx="-115.8" fy="-15.92" r="4.99" gradientTransform="translate(153.15 19.65) rotate(-7.87)" gradientUnits="userSpaceOnUse">
      <stop offset=".14" stop-color="#1e0f26"/>
      <stop offset="1" stop-color="#000"/>
    </radialGradient>
    <linearGradient id="linear-gradient-8" x1="-126.3" y1="-7.06" x2="-126.04" y2="-9.78" gradientTransform="translate(153.15 19.65) rotate(-7.87)" gradientUnits="userSpaceOnUse">
      <stop offset="0" stop-color="#feb6a8"/>
      <stop offset="1" stop-color="#feb6a8"/>
    </linearGradient>
    <radialGradient id="radial-gradient-10" cx="19.22" cy="26.11" fx="19.22" fy="26.11" r="2.98" gradientTransform="matrix(1,0,0,1,0,0)" xlink:href="#radial-gradient-9"/>
  </defs>
  <g class="cls-25">
    <g id="Layer_2" data-name="Layer 2">
      <g id="Layer_1-2" data-name="Layer 1">
        <g>
          <g>
            <path class="cls-23" d="M37.6,44.08c-1.13,0-2.43-.19-3.86-.56-5.89-1.53-10.04-7.23-10.65-10.59-.02-.1,0-.2.08-.28.14-.17.53-.63,6.6-.63,2.65,0,5.16.09,5.18.09.05,0,.1.02.13.06.02.02,2.24,2.26,4.12,4.54.97,1.17,1.73,2.21,2.19,2.99.4.7.56,1.39.46,2.01-.23,1.48-1.81,2.37-4.24,2.37Z"/>
            <path class="cls-34" d="M29.75,32.22c2.68,0,5.18.09,5.18.09,0,0,2.21,2.23,4.1,4.52.87,1.04,1.67,2.1,2.17,2.96.38.66.53,1.31.43,1.88-.19,1.27-1.55,2.2-4.04,2.2-1.06,0-2.33-.17-3.81-.55-6.02-1.56-9.95-7.38-10.51-10.43-.1-.55,3.32-.68,6.48-.68M29.76,31.83c-6.16,0-6.54.46-6.75.7-.11.13-.15.28-.12.44.63,3.4,4.83,9.19,10.8,10.74,1.44.38,2.76.57,3.91.57,2.53,0,4.19-.95,4.43-2.54.11-.66-.06-1.4-.48-2.14-.47-.81-1.21-1.82-2.21-3.02-1.88-2.28-4.11-4.53-4.13-4.55-.07-.07-.17-.11-.27-.12-.03,0-2.53-.09-5.19-.09h0Z"/>
          </g>
          <path class="cls-21" d="M41.64,41.68c-.28,1.82-2.92,2.93-7.85,1.65-6.02-1.56-9.95-7.38-10.51-10.43-.19-1.02,11.66-.59,11.66-.59,0,0,2.21,2.23,4.1,4.52-2.38.3-5.5.92-7.35,2.19-3.28,2.26,3.88,4.67,7.07,4.09,1.36-.25,2.28-.83,2.88-1.44Z"/>
          <path class="cls-2" d="M38.13,43.94s-.14-1.26-1.14-2.19"/>
          <path class="cls-2" d="M40.78,43.27s.2-1.1-.72-2.13"/>
        </g>
        <g>
          <g>
            <path class="cls-11" d="M24.83,47.82c-1.13,0-2.44-.19-3.87-.56-6.29-1.64-12.38-7.69-12.06-12,.03-.36.55-.5,1.88-.5,3.5,0,11.33,1.09,11.41,1.1.04,0,.08.03.11.06.02.02,2.15,2.17,4,4.39,1.05,1.26,1.83,2.32,2.31,3.14.52.9.63,1.78.32,2.52-.48,1.18-1.97,1.86-4.09,1.86Z"/>
            <path class="cls-34" d="M10.77,34.95c3.53,0,11.38,1.1,11.38,1.1,0,0,2.12,2.14,3.99,4.38.91,1.09,1.76,2.21,2.29,3.11.49.85.59,1.66.31,2.34-.42,1.03-1.73,1.74-3.91,1.74-1.07,0-2.34-.17-3.82-.55-6.02-1.56-12.23-7.46-11.91-11.8.02-.23.67-.32,1.68-.32M10.77,34.56c-1.28,0-2.03.11-2.07.68-.32,4.39,5.84,10.55,12.21,12.21,1.45.38,2.76.57,3.92.57,2.2,0,3.76-.72,4.27-1.99.34-.8.22-1.73-.33-2.69-.48-.83-1.26-1.9-2.32-3.17-1.86-2.23-3.99-4.38-4.01-4.4-.06-.06-.14-.1-.23-.11-.32-.04-7.92-1.1-11.43-1.1h0Z"/>
          </g>
          <path class="cls-21" d="M28.73,45.88c-.63,1.54-3.22,2.36-7.72,1.19-6.02-1.56-12.23-7.46-11.91-11.8.08-1.04,13.06.78,13.06.78,0,0,2.12,2.14,3.99,4.38-2.5-.29-7.6-.81-10.37-.54-3.77.36,3.57,7.34,9.51,6.98,1.33-.08,2.47-.45,3.45-.99Z"/>
          <path class="cls-2" d="M25.36,47.67s-.14-1.26-1.14-2.19"/>
          <path class="cls-2" d="M28.01,47.01s.2-1.1-.72-2.13"/>
        </g>
        <g>
          <g>
            <g>
              <path class="cls-10" d="M39.51,19.15c-2.8,0-12.01-12.6-13.05-14.03-.05-.07-.06-.17-.03-.25.04-.08.11-.14.2-.15.04,0,3.85-.42,7.23-2.73,1.69-1.16,3.21-1.75,4.5-1.75,2.04,0,3.5,1.43,4.33,4.26,1.53,5.2-.77,12.24-2.54,14.35-.16.19-.38.29-.64.29Z"/>
              <path class="cls-34" d="M38.37.5c1.73,0,3.22,1.11,4.09,4.09,1.47,5-.71,12-2.49,14.12-.11.14-.27.2-.45.2-2.76,0-12.85-13.93-12.85-13.93,0,0,3.86-.39,7.34-2.77,1.48-1.01,2.99-1.7,4.36-1.7M38.37,0h0c-1.34,0-2.9.6-4.64,1.79-3.32,2.27-7.07,2.68-7.11,2.69-.18.02-.33.13-.4.29-.07.16-.05.35.05.49,1.71,2.36,10.38,14.14,13.25,14.14.34,0,.63-.13.84-.38,1.79-2.14,4.13-9.3,2.58-14.58-.87-2.95-2.4-4.44-4.57-4.44h0Z"/>
            </g>
            <path class="cls-7" d="M42.72,11.21c-.34,2.25-1.01,4.36-1.74,5.86-.09.7-.71,2.15-1.07,2.43-.38.29-1.87.29-4.83-2.54-2.87-2.74-7.88-9.19-8.8-10.38,0,0,0-.02-.01-.02-.08-.11-.13-.17-.13-.17l-1.41-1.97s.08.01.23.04c.7.1,2.87.34,4.69-.17.58-.18,1.21-.41,1.86-.7.82-.36,1.67-.81,2.52-1.39,3.36-2.3,6.89-2.94,8.45,2.38.6,2.04.59,4.4.26,6.62Z"/>
            <g>
              <path class="cls-26" d="M32.96,10.37s2.14-6.23,5.03-7.08c3.24-.95,4.61,1.41,2.58,8.3-1.47,4.97-2.94,4.75-3.09,4.7s-2.6-3.22-2.79-3.51.49-.42.49-.42c0,0,.14-.47-.31-.68s-.82-.09-.82-.09c0,0,.3-.19.33-.49s-.13-.55-.13-.55c0,0-.18.35-.53.47s-.64-.03-.64-.03c0,0,.27-.25.26-.54s-.37-.08-.37-.08Z"/>
              <path class="cls-22" d="M42.72,11.21c-.34,2.25-1.01,4.36-1.74,5.86-.09.7-.71,2.15-1.07,2.43-.38.29-1.87.29-4.83-2.54-2.87-2.74-7.88-9.19-8.8-10.38,0,0,0-.02-.01-.02-.49-.82-.94-1.53-1.31-2.1.7.1,2.87.34,4.69-.17.58-.18,1.21-.41,1.86-.7.73.56,1.65,1,2.72,1,2.8,0,3.67-1.39,4.96-1.48,1.3-.09,2.05,1.32,1.96,1.32s-2.55-.69-3.55,1.83c-.99,2.53.9,5.45,3.73,5.26.53-.03.99-.16,1.4-.33Z"/>
              <path class="cls-34" d="M41.38,4.96c-1.16-2.54-3.4-1.86-5.08-.27-1.6,1.52-2.29,3.7-3.11,5.7,0,0-.39-.28-.39-.28.12-.08.25-.22.56-.12.51.37.27.98-.16,1.23,0,0-.04-.47-.04-.47.16.05.37.07.52.02.16-.04.27-.17.35-.33.38-.47.68.37.61.72-.03.29-.27.53-.48.63l-.14-.4c.64-.13,1.41.24,1.3.99-.02.19-.28.09-.4.18-.35.14-.08.49.11.7.01.14-.24-.15-.29-.2-.38-.37,0-.8.44-.82,0,0-.13.13-.13.13-.01-.25-.11-.44-.29-.52-.26-.19-.83.13-.91-.21-.02-.1.03-.19.11-.23.31-.17.23-.46.08-.72,0,0,.44-.04.44-.04-.21.58-.94.79-1.49.59-.21-.05-.24-.35-.06-.46.09-.05.2-.17.2-.28.01-.05-.05-.12.02-.06.1.01.02,0-.01.04-.18.22-.54-.04-.39-.28.86-2.03,1.99-3.95,3.38-5.68.71-.83,1.67-1.64,2.89-1.68,1.18-.13,2.36,1.15,2.37,2.12h0Z"/>
            </g>
          </g>
          <g>
            <path class="cls-6" d="M22.59,39.34c-2.6,0-7.68-.29-12.47-2.26-1.04-.42-2.06-.93-3.04-1.53-1.11-.66-2.15-1.45-3.08-2.35-.42-.41-.83-.85-1.18-1.28-.06-.07-.07-.16-.04-.25.03-.08.11-.14.2-.16.46-.07.9-.22,1.11-.36-.67-.1-2-.33-2.6-1.11-.05-.07-.07-.15-.04-.23.03-.08.09-.14.17-.16h0s.15-.05.36-.25c.26-.22.75-.76,1.2-1.95.31-.88.53-1.81.66-2.84.09-.61.15-1.3.19-2.1.12-2.43.87-5.15,2.09-7.65,3.09-6.33,8.65-10.25,15.26-10.75.5-.04.99-.06,1.47-.06,11.11,0,17.17,9.59,18.38,15.63,1.27,6.21,3.46,6.69,3.48,6.69.08.01.15.07.18.14.03.07.03.16,0,.23-.48.87-1.78,1.3-2.42,1.49.22.1.67.18,1.15.18.09,0,.18.05.23.13.04.08.05.18,0,.26-5.52,9.18-19.71,10.47-19.85,10.49,0,0-.52.04-1.41.04Z"/>
            <path class="cls-34" d="M22.85,4.31c10.68,0,16.89,9.19,18.14,15.43,1.33,6.52,3.68,6.89,3.68,6.89-.57,1.04-2.59,1.42-2.59,1.48.04.55,1.38.57,1.54.57.01,0,.02,0,.02,0-.02.03-.03.06-.05.08-5.48,9.11-19.62,10.29-19.62,10.29,0,0-.51.03-1.39.03-2.4,0-7.55-.26-12.38-2.24-1.03-.41-2.04-.92-3-1.51-1.08-.64-2.11-1.42-3.04-2.32-.4-.38-.8-.82-1.16-1.26,0,0,1.5-.21,1.46-.79,0-.06-2.05-.14-2.79-1.07,0,0,.19-.05.46-.31.35-.3.83-.9,1.27-2.05.25-.72.51-1.65.67-2.89.09-.63.15-1.34.19-2.12.11-2.24.78-4.93,2.07-7.55,2.51-5.16,7.39-10.03,15.06-10.61.49-.04.98-.06,1.45-.06M43.64,28.68h0M22.85,3.81h0c-.49,0-.99.02-1.49.06-6.7.51-12.34,4.48-15.47,10.89-1.24,2.53-1.99,5.28-2.12,7.75-.04.79-.1,1.47-.18,2.08-.13,1.02-.34,1.93-.65,2.8-.43,1.13-.89,1.63-1.12,1.83-.18.17-.29.21-.29.21-.15.06-.27.18-.31.33s-.02.32.08.44c.44.57,1.2.86,1.87,1.03-.07.02-.15.03-.22.04-.18.03-.33.14-.39.31-.07.17-.04.36.08.5.36.44.77.89,1.2,1.3.95.92,2,1.72,3.13,2.39.98.6,2.02,1.12,3.07,1.54,4.83,1.98,9.94,2.28,12.56,2.28.88,0,1.4-.03,1.42-.04.15-.01,3.65-.32,7.88-1.76,5.63-1.92,9.83-4.95,12.13-8.78,0,0,.03-.05.03-.05,0,0,0,0,0,0,.06-.08.1-.18.1-.29,0-.27-.22-.5-.49-.5h0s0,0,0,0h0c-.07,0-.15,0-.22,0,.64-.26,1.35-.67,1.69-1.3.08-.14.08-.31,0-.46-.07-.15-.21-.25-.37-.27,0,0-2.05-.53-3.27-6.5-1.23-6.12-7.37-15.83-18.63-15.83h0Z"/>
          </g>
          <path class="cls-5" d="M42.08,28.11c.04.58,1.56.57,1.56.57-.02.03-.03.06-.05.08-5.48,9.11-19.62,10.29-19.62,10.29,0,0-7.19.49-13.76-2.21-1.03-.41-2.04-.92-3-1.51-1.08-.64-2.11-1.42-3.04-2.32-.4-.38-.8-.82-1.16-1.26,0,0,1.5-.21,1.46-.79,0-.06-2.05-.14-2.79-1.07,0,0,.19-.05.46-.31.35-.3.83-.9,1.27-2.05.25-.72.51-1.65.67-2.89.09-.63.15-1.34.19-2.12.11-2.24.78-4.93,2.07-7.55,2.51-5.16,7.39-10.12,15.06-10.61,13.45-.86,18.29,8.86,19.6,15.38,1.33,6.52,3.68,6.89,3.68,6.89-.57,1.04-2.59,1.42-2.59,1.48Z"/>
          <g>
            <path class="cls-24" d="M42.68,30.09c.34-.43.67-.93.96-1.42,0,0-1.52.02-1.56-.56,0-.06,2.01-.45,2.6-1.48,0,0-.2-.02-.5-.23-2.89-.35-7.24-.29-7.55,0-.27.25,3.3,2.3,6.06,3.69Z"/>
            <path class="cls-18" d="M35.3,29.77c-.39.28.59,2.46,2,5.02.95-.56,1.88-1.21,2.74-1.94-1.46-1.25-4.2-3.49-4.73-3.08Z"/>
            <path class="cls-17" d="M42.61,24.57c-.36-.67-.76-1.56-1.11-2.76-2.26.29-2.93.56-4.93,1.12-2.38.67,1.53,1.3,6.03,1.64Z"/>
          </g>
          <g>
            <path class="cls-16" d="M4.12,33.02c-.4-.38-.8-.82-1.17-1.26,0,0,1.5-.21,1.46-.79,0-.06-2.06-.14-2.79-1.07,0,0,.19-.05.46-.31,2.8-.78,7.11-1.38,7.46-1.13.31.21-2.92,2.77-5.43,4.56Z"/>
            <path class="cls-14" d="M11.38,31.59c.43.22-.22,2.52-1.22,5.26-1.02-.41-2.04-.92-3-1.51,1.25-1.46,3.62-4.08,4.21-3.76Z"/>
            <path class="cls-15" d="M3.36,27.55c.26-.72.52-1.66.68-2.9,2.27-.06,2.98.11,5.04.36,2.46.3-1.31,1.52-5.72,2.53Z"/>
          </g>
          <path class="cls-21" d="M43.59,28.76c-5.48,9.11-19.62,10.29-19.62,10.29,0,0-7.19.49-13.76-2.21-1.03-.41-2.04-.92-3-1.51-1.08-.64-2.11-1.42-3.04-2.32-.4-.38-.8-.82-1.16-1.26,0,0,1.5-.21,1.46-.79,0-.06-2.05-.14-2.79-1.07,0,0,.19-.05.46-.31.35-.3.83-.9,1.27-2.05.25-.72.51-1.65.67-2.89.09-.63.15-1.34.19-2.12.11-2.24.78-4.93,2.07-7.55.96,1.35,1.84,2.4,2.1,3.03.72,1.74-1.26,5.66-.48,10.95.78,5.29,10.41,9.87,21.18,7.52,9.98-2.17,13.93-7.02,14.46-7.72Z"/>
          <g>
            <g>
              <path class="cls-4" d="M5.56,21.73c-.2,0-.38-.07-.53-.2C2.96,19.72-.37,13.1.35,7.73c.44-3.27,1.9-4.92,4.35-4.92,1.13,0,2.48.37,3.99,1.1,3.11,1.49,6.32,1.61,7.23,1.61.21,0,.32,0,.33,0,0,0,0,0,.01,0,.08,0,.16.04.21.11.05.08.05.17.01.25-.83,1.62-8.23,15.86-10.92,15.86h0Z"/>
              <path class="cls-34" d="M4.7,3.06c1.19,0,2.53.42,3.88,1.07,3.13,1.5,6.32,1.64,7.34,1.64.22,0,.34,0,.34,0,0,0-8.08,15.72-10.7,15.72-.14,0-.26-.04-.37-.14C3.11,19.52-.1,12.93.59,7.77c.47-3.47,2.07-4.71,4.1-4.71M4.7,2.56C2.92,2.56.67,3.45.1,7.7c-.73,5.45,2.66,12.17,4.76,14.02.19.17.44.26.7.26,2.78,0,9.77-13.32,11.14-15.99.08-.16.07-.35-.02-.5-.09-.14-.25-.23-.42-.23,0,0-.02,0-.02,0,0,0-.12,0-.31,0-.9,0-4.06-.11-7.12-1.59-1.55-.74-2.93-1.12-4.1-1.12h0Z"/>
            </g>
            <path class="cls-9" d="M18.1,4.93l-1.09,2.15s-4.58,8.34-7.25,11.81c-.47.61-.91,1.12-1.31,1.53-1.71,1.78-2.74,1.89-3.08,1.71-.4-.22-1.23-1.56-1.43-2.24C2.06,17.15.03,12,.6,7.77c.46-3.38,1.98-4.65,3.95-4.7,1.23-.04,2.63.39,4.03,1.07,1.64.79,3.28,1.19,4.64,1.4,2.21.26,4.74-.57,4.88-.61Z"/>
            <g>
              <path class="cls-26" d="M10.86,12.05s-3.05-5.83-6.04-6.24c-3.35-.45-4.35,2.09-1.3,8.59,2.2,4.69,3.63,4.25,3.76,4.18s2.08-3.57,2.23-3.89-.55-.34-.55-.34c0,0-.21-.45.2-.72s.79-.22.79-.22c0,0-.32-.14-.4-.44s.05-.56.05-.56c0,0,.23.32.6.38s.63-.12.63-.12c0,0-.31-.21-.34-.5s.36-.13.36-.13Z"/>
              <path class="cls-22" d="M8.46,20.42c-1.71,1.78-2.74,1.89-3.08,1.71-.4-.22-1.23-1.56-1.43-2.24C2.06,17.15.03,12,.6,7.77c.46-3.38,1.98-4.65,3.95-4.7-.49.66-.88,1.5-1.11,2.55-1.26,5.59,4.27,10.65,5,12.4.24.57.18,1.39.03,2.41Z"/>
              <path class="cls-34" d="M1.66,7.97c.07-1.13.84-2.36,2.07-2.45,1.22-.14,2.28.52,3.11,1.23,1.63,1.5,3.04,3.22,4.2,5.1.18.22-.13.52-.34.34-.04-.03-.12,0-.02-.04.06-.07.01,0,.03.05.01.11.14.21.24.25.2.08.2.38,0,.46-.51.29-1.27.18-1.57-.35,0,0,.44-.03.44-.03-.11.27-.14.57.19.69.12.04.18.17.13.28-.11.24-.62.06-.85.27-.17.1-.24.31-.21.56l-.15-.11c.44-.04.87.32.56.75-.05.08-.25.37-.25.24.15-.24.37-.62,0-.71-.13-.07-.38.07-.42-.12-.22-.72.48-1.2,1.14-1.18,0,0-.08.41-.08.41-.23-.06-.5-.26-.57-.55-.07-.31-.06-.99.38-.89.18.12.27.36.51.37.15.03.36-.02.51-.1l.03.47c-.46-.19-.8-.75-.35-1.2.29-.15.43-.03.57.04l-.34.34c-1.11-1.85-2.12-3.9-3.93-5.16-2.17-1.4-4.03-1.62-5.03,1.02h0Z"/>
            </g>
          </g>
          <g>
            <g>
              <g class="cls-33">
                <path class="cls-3" d="M31.26,21.12s-1.12,2.49-.04,4.98c1.59,3.67,5.83,2.83,7.23,1.06s.25-4.28.25-4.28c0,0,.45-6.2-7.43-1.76Z"/>
                <path class="cls-31" d="M29.8,23.67s2.11-2.68,5.51-.76,3.96,4.29,3.96,4.29c0,0,3.44-4.61,2.68-6.08s-7.55-3.91-7.55-3.91c0,0-6.42-.24-6.54.96"/>
                <g>
                  <g>
                    <path class="cls-13" d="M30.72,25.14c.12.85.47,1.6.98,2.18.79.91,1.94,1.41,3.14,1.24,1.09-.15,1.98-.81,2.52-1.74.44-.76.64-1.7.51-2.67-.3-2.17-2.14-3.7-4.12-3.43s-3.33,2.25-3.03,4.42Z"/>
                    <path d="M30.73,25.14c.88,4.98,7.72,4.13,7.07-.98-.9-4.99-7.55-4.05-7.07.98h0ZM30.71,25.14c-.66-5.37,6.42-6.33,7.23-1,.47,5.29-6.36,6.36-7.23,1h0Z"/>
                  </g>
                  <path class="cls-19" d="M31.7,27.33c.79.91,1.94,1.41,3.14,1.24,1.09-.15,1.98-.81,2.52-1.74-.34-.86-1.63-1.38-3.08-1.18-1.29.18-2.31.87-2.58,1.67Z"/>
                  <ellipse class="cls-27" cx="34.29" cy="24.65" rx="2.06" ry="2.26" transform="translate(-3.05 4.93) rotate(-7.87)"/>
                  <ellipse class="cls-30" cx="32.41" cy="23.2" rx="1.4" ry="1.24" transform="translate(-2.87 4.66) rotate(-7.87)"/>
                </g>
              </g>
              <path class="cls-8" d="M30.77,23.85s.18-3.39,2.65-3.75,4.74,1.43,5.29,3.22c.65,2.16-.13,3.71-.13,3.71,0,0,1.54-2.22.8-4.59-.74-2.38-3.56-4.22-5.94-3.63s-2.73,3.79-2.66,5.04Z"/>
            </g>
            <path class="cls-28" d="M30.15,16.65c.82-1.43,2.89-1.56,4.18-.71-1.04.95-2.19,1.94-3.67,1.62-.43-.06-.7-.52-.5-.91h0Z"/>
            <path class="cls-28" d="M19.95,19.04c-1.54.77-3.14.11-4.6-.6,1.22-1.24,3.44-1.72,4.83-.49.34.33.21.91-.22,1.1h0Z"/>
            <g>
              <g>
                <path class="cls-12" d="M27.13,28.99c-.62-.03-1.69-.5-1.74-.96,0-.1.03-.18.1-.26.44-.41,1.37-.53,1.41-.54h0s.25-.04.57-.04c.4,0,.71.06.93.17.11.05.17.15.17.26.03.43-.8,1.15-1.42,1.35,0,0-.01,0-.02,0h0Z"/>
                <path class="cls-32" d="M27.47,27.28c.29,0,.65.03.9.16.09.05.13.12.13.2.02.39-.79,1.09-1.37,1.29-.63-.03-1.64-.51-1.68-.9,0-.07.02-.14.08-.2.43-.4,1.37-.52,1.37-.52,0,0,.25-.04.56-.04M27.47,27.14c-.32,0-.57.04-.58.04-.04,0-.99.13-1.44.55-.09.09-.13.2-.12.31.05.5,1.16.98,1.8,1.02,0,0,0,0,0,0,.01,0,.03,0,.04,0,.59-.2,1.49-.93,1.46-1.42,0-.13-.07-.24-.21-.31-.23-.12-.55-.18-.96-.18h0Z"/>
              </g>
              <path class="cls-20" d="M28.5,27.64c-1.3-.37-2.37,0-3.05.39,0-.07.02-.14.08-.2.43-.4,1.37-.52,1.37-.52,0,0,.94-.14,1.46.12.09.05.13.12.13.2Z"/>
              <ellipse class="cls-20" cx="26.92" cy="27.62" rx=".53" ry=".22" transform="translate(-3.53 3.95) rotate(-7.87)"/>
              <ellipse class="cls-20" cx="27.51" cy="27.84" rx=".23" ry=".13" transform="translate(-3.55 4.03) rotate(-7.87)"/>
            </g>
            <path class="cls-32" d="M22.46,30.56c1.01,1.91,4.04,1.4,4.95-.34.07-.11.21-.15.33-.09.7.48,1.88.46,2.57-.07.24-.18.4-.47.38-.81.31.72-.47,1.38-1.1,1.56-.75.19-1.43.14-2.14-.29,0,0,.38-.05.38-.05-1,1.95-4.65,2.54-5.37.11h0Z"/>
            <path class="cls-29" d="M12.29,26.89s.45,1.2,4.7.67c4.25-.52,5.43-2.09,5.43-2.09,0,0,.2,2.8-3.74,3.88-3.94,1.08-5.95-.66-6.39-2.46Z"/>
          </g>
        </g>
      </g>
    </g>
  </g>
</svg>