<?xml version="1.0" encoding="UTF-8"?>
<svg id="Layer_2" data-name="Layer 2" xmlns="http://www.w3.org/2000/svg" xmlns:xlink="http://www.w3.org/1999/xlink" viewBox="0 0 9.67 6.72">
  <defs>
    <style>
      .cls-1 {
        fill: none;
      }

      .cls-2 {
        fill: url(#linear-gradient-2);
      }

      .cls-3 {
        fill: url(#linear-gradient);
        opacity: .64;
      }

      .cls-4 {
        fill: #030005;
      }

      .cls-5 {
        fill: #0ce9f9;
      }

      .cls-6 {
        clip-path: url(#clippath);
      }
    </style>
    <clipPath id="clippath">
      <path class="cls-1" d="M.49,1.26S3.3-.17,5.99.87c3.34,1.29,3.19,4.54,3.19,4.54,0,0-2.82,1.6-5.48.31C.52,4.17.49,1.26.49,1.26Z"/>
    </clipPath>
    <linearGradient id="linear-gradient" x1="5.73" y1=".22" x2="4.67" y2="4.39" gradientUnits="userSpaceOnUse">
      <stop offset=".14" stop-color="#fff"/>
      <stop offset="1" stop-color="#bfbfbf" stop-opacity="0"/>
    </linearGradient>
    <linearGradient id="linear-gradient-2" x1="283.53" y1="142.72" x2="283.88" y2="146.25" gradientTransform="translate(-203.73 -236.47) rotate(22.13)" gradientUnits="userSpaceOnUse">
      <stop offset="0" stop-color="#fff73b"/>
      <stop offset="1" stop-color="#ffba00"/>
    </linearGradient>
  </defs>
  <g id="Layer_1-2" data-name="Layer 1">
    <g>
      <g>
        <path class="cls-5" d="M5.97,6.47c-.85,0-1.65-.18-2.38-.53C.31,4.34.25,1.39.25,1.26c0-.09.05-.18.13-.22.06-.03,1.58-.79,3.48-.79.79,0,1.53.13,2.21.4,3.46,1.34,3.35,4.75,3.35,4.78,0,.08-.05.16-.12.2-.06.03-1.51.84-3.33.84Z"/>
        <path d="M3.87.49c.68,0,1.4.1,2.12.38,3.34,1.29,3.19,4.54,3.19,4.54,0,0-1.43.81-3.21.81-.72,0-1.5-.13-2.27-.51C.52,4.17.49,1.26.49,1.26.49,1.26,2,.49,3.87.49M3.87,0h0C1.91,0,.34.79.27.82.1.91,0,1.08,0,1.27c0,.13.07,3.23,3.48,4.89.76.37,1.59.55,2.48.55,1.89,0,3.39-.84,3.46-.88.15-.08.24-.24.25-.41,0-.04.12-3.61-3.51-5.02-.71-.27-1.48-.41-2.3-.41h0Z"/>
      </g>
      <g class="cls-6">
        <path class="cls-4" d="M6.47,4.14c-.65,1.4-2.19,1.96-2.74,1.71-.36-.16-1.01-1.79-.36-3.19s2.37-1.98,2.77-1.92c.35.05.98,1.99.33,3.39Z"/>
        <path class="cls-3" d="M6.28,4.03c-.57,1.23-1.92,1.71-2.4,1.5-.32-.14-.88-1.57-.32-2.79s2.08-1.74,2.43-1.68c.3.05.86,1.75.29,2.97Z"/>
      </g>
      <path class="cls-2" d="M7.43,4.32c-1.97-.36-2.4-.18-3.52,1.49.36-1.97.18-2.4-1.49-3.52,1.97.36,2.4.18,3.52-1.49-.36,1.97-.18,2.4,1.49,3.52Z"/>
    </g>
  </g>
</svg>