<?xml version="1.0" encoding="UTF-8"?>
<svg id="Layer_2" data-name="Layer 2" xmlns="http://www.w3.org/2000/svg" xmlns:xlink="http://www.w3.org/1999/xlink" viewBox="0 0 13.1 7.15">
  <defs>
    <style>
      .cls-1, .cls-2 {
        fill: none;
      }

      .cls-3 {
        clip-path: url(#clippath-1);
      }

      .cls-4 {
        fill: url(#linear-gradient);
        opacity: .64;
      }

      .cls-2 {
        stroke: #000;
        stroke-linecap: round;
        stroke-linejoin: round;
        stroke-width: .49px;
      }

      .cls-5 {
        fill: #030005;
      }

      .cls-6 {
        fill: #0ce9f9;
      }

      .cls-7 {
        clip-path: url(#clippath);
      }
    </style>
    <clipPath id="clippath">
      <path class="cls-1" d="M.89,0s1.78,2.03,4.75,3.41c2.55,1.18,7.46,1.88,7.46,1.88,0,0-4.43,1.71-4.87,1.84s-5.05-.38-6.8-2.23S.03.97.03.97"/>
    </clipPath>
    <clipPath id="clippath-1">
      <path class="cls-1" d="M1.61.71s2.81-1.43,5.49-.39c3.34,1.29,3.19,4.54,3.19,4.54,0,0-2.82,1.6-5.48.31C1.63,3.62,1.61.71,1.61.71Z"/>
    </clipPath>
    <linearGradient id="linear-gradient" x1="6.85" y1="-.33" x2="5.78" y2="3.84" gradientUnits="userSpaceOnUse">
      <stop offset=".14" stop-color="#fff"/>
      <stop offset="1" stop-color="#bfbfbf" stop-opacity="0"/>
    </linearGradient>
  </defs>
  <g id="Layer_1-2" data-name="Layer 1">
    <g>
      <g class="cls-7">
        <g>
          <g>
            <path class="cls-6" d="M7.08,5.91c-.85,0-1.65-.18-2.38-.53C1.43,3.79,1.36.83,1.36.71c0-.09.05-.18.13-.22.06-.03,1.58-.8,3.49-.8.79,0,1.53.13,2.21.4,3.47,1.34,3.35,4.75,3.35,4.78,0,.08-.05.16-.12.2-.06.03-1.51.84-3.33.84Z"/>
            <path d="M4.98-.06c.68,0,1.4.1,2.12.38,3.34,1.29,3.19,4.54,3.19,4.54,0,0-1.43.81-3.21.81-.72,0-1.5-.13-2.27-.51C1.63,3.62,1.61.71,1.61.71,1.61.71,3.12-.06,4.98-.06M4.98-.56h0c-1.96,0-3.53.79-3.6.82-.17.08-.27.26-.27.44,0,.13.07,3.23,3.48,4.89.76.37,1.59.55,2.48.55,1.89,0,3.39-.84,3.46-.88.15-.08.24-.24.25-.41,0-.04.12-3.61-3.51-5.02-.71-.27-1.48-.41-2.3-.41h0Z"/>
          </g>
          <g class="cls-3">
            <path class="cls-5" d="M7.58,3.58c-.65,1.4-2.19,1.96-2.74,1.71-.36-.16-1.01-1.79-.36-3.19S6.85.13,7.25.19c.35.05.98,1.99.33,3.39Z"/>
            <path class="cls-4" d="M7.4,3.48c-.57,1.23-1.92,1.71-2.4,1.5-.32-.14-.88-1.57-.32-2.79S6.76.45,7.11.51c.3.05.86,1.75.29,2.97Z"/>
          </g>
        </g>
      </g>
      <path class="cls-2" d="M1.42.57s3.85,3.66,8.99,4.24"/>
    </g>
  </g>
</svg>