<?xml version="1.0" encoding="UTF-8"?>
<svg id="Layer_2" data-name="Layer 2" xmlns="http://www.w3.org/2000/svg" xmlns:xlink="http://www.w3.org/1999/xlink" viewBox="0 0 15.53 19.62">
  <defs>
    <style>
      .cls-1 {
        fill: #2746d2;
      }

      .cls-2 {
        fill: url(#linear-gradient-2);
      }

      .cls-3 {
        fill: url(#linear-gradient);
      }

      .cls-4 {
        fill: #fafcfe;
      }
    </style>
    <linearGradient id="linear-gradient" x1="-685.84" y1="-64.07" x2="-686.95" y2="-78.59" gradientTransform="translate(615.79 -314.04) rotate(-34.07)" gradientUnits="userSpaceOnUse">
      <stop offset=".05" stop-color="#53fc1a"/>
      <stop offset=".68" stop-color="#21a6fa"/>
    </linearGradient>
    <linearGradient id="linear-gradient-2" x1="-686.22" y1="-70.35" x2="-685.86" y2="-65.17" gradientTransform="translate(615.79 -314.04) rotate(-34.07)" gradientUnits="userSpaceOnUse">
      <stop offset=".26" stop-color="#9dff91" stop-opacity="0"/>
      <stop offset="1" stop-color="#87fc60"/>
    </linearGradient>
  </defs>
  <g id="Layer_1-2" data-name="Layer 1">
    <g>
      <g>
        <g>
          <path class="cls-1" d="M2.1,1.26s-1.13,3.09,2.45,4.74.92,4.43-.67,3.28c-1.59-1.16-1.74-2.21-1.74-2.21,0,0-1.12,3.01,1.3,4.32,2.42,1.32,1.21,3.23-.03,2.65s-.92-1.8-1.63-2.38-1.5-.01-1.5-.01c0,0,1.38-.15,1.91,2.84.53,2.99,4.33,7.77,10.48,3.33,4.63-3.35,2.83-8.17.48-9.07s-1.62-3.33-3.89-4.7c0,0,1.18,3.18-.39,3.32s-.4-1.29-1.8-2.66-3.25-1.12-4.26-1.98-.71-1.47-.71-1.47Z"/>
          <path class="cls-1" d="M3.76,0s-.21,1.74,1.24,2.02,1.77.94,1.77.94c0,0,1.29-1.78-.61-2.01-1.9-.23-2.21-.59-2.4-.95Z"/>
          <path class="cls-1" d="M0,7.71s.05,1.23.45,1.91,1.11.92,1.14.9-.14-.43-.4-1.48S0,7.71,0,7.71Z"/>
        </g>
        <path class="cls-3" d="M3.39,15.31c-.07-.06,1.06,3.18,4.33,3.49s6.76-3.18,7.05-5.25-1.03-3.68-2.61-4.19-1.29-1.9-1.47-2.12-.51-.03-.51-.03c0,0,.15.64-.58,1.14s-1.82.36-2.12-.64-.23-2.02-1.45-2.91-2.47-.91-2.64-.8,1.55.53,2.37,1.99,1.71,2.86.83,3.76-1.82,1-2.64.43-.79-1.3-.94-1.2-.2,1.12.81,1.96,2.97,2.08,2.01,3.5-2.12,1.13-2.45.87Z"/>
        <path class="cls-2" d="M4.25,15.97s2.49,3.84,6.54,1.65c4.05-2.19,4.01-5.38,3.13-6.49s-2.35-1.4-2.84-1.86-.56-1.3-.56-1.3"/>
      </g>
      <path class="cls-4" d="M8.59,15.14c-.37-.47-.73-.95-1.1-1.42-.03-.04-.03-.06.01-.1.3-.23.59-.45.89-.68.04-.03.06-.03.09.01.14.19.29.38.43.56.03.04.05.04.08.01.08-.06.15-.12.23-.18.04-.03.04-.05,0-.08-.06-.08-.12-.16-.18-.23-.03-.04-.02-.06.01-.08.08-.06.16-.12.24-.18.03-.02.03-.04,0-.07-.06-.08-.13-.16-.19-.24-.03-.03-.03-.05,0-.08.3-.23.6-.46.9-.7.04-.03.05-.02.08.01.23.3.46.6.69.9.03.04.03.06-.01.08-.08.06-.16.12-.24.18-.04.03-.04.05,0,.09.06.08.12.16.18.23.03.03.03.05,0,.08-.08.06-.16.12-.24.18-.03.02-.04.04-.01.08.07.08.13.16.19.25.02.03.04.03.07,0,.08-.06.16-.12.24-.19.04-.03.06-.03.09.01.06.08.12.16.18.24.02.03.04.04.08.01.08-.07.16-.13.24-.19.03-.03.05-.02.07,0,.23.3.47.61.7.91.03.03.02.05-.01.07-.3.23-.61.47-.91.7-.03.03-.05.02-.07-.01-.06-.08-.12-.16-.18-.24-.03-.04-.05-.05-.1-.01-.08.06-.16.12-.23.18-.03.02-.05.02-.07,0-.06-.08-.13-.17-.19-.25-.02-.03-.04-.03-.07,0-.08.06-.16.13-.25.19-.04.03-.03.04,0,.08.15.19.29.38.44.56.03.04.03.06-.01.09-.3.23-.59.45-.89.68-.04.03-.06.03-.09-.01-.37-.48-.73-.95-1.1-1.43Z"/>
    </g>
  </g>
</svg>