<?xml version="1.0" encoding="UTF-8"?>
<svg id="Layer_2" data-name="Layer 2" xmlns="http://www.w3.org/2000/svg" xmlns:xlink="http://www.w3.org/1999/xlink" viewBox="0 0 51.67 35.95">
  <defs>
    <style>
      .cls-1 {
        fill: #2746d2;
      }

      .cls-2 {
        fill: url(#linear-gradient-5);
      }

      .cls-3 {
        fill: url(#linear-gradient-6);
      }

      .cls-4 {
        fill: url(#linear-gradient-4);
      }

      .cls-5 {
        fill: url(#linear-gradient-3);
      }

      .cls-6 {
        fill: url(#linear-gradient-2);
      }

      .cls-7 {
        fill: url(#linear-gradient);
      }

      .cls-8 {
        fill: #fafcfe;
      }

      .cls-9 {
        fill: #fdfefe;
      }
    </style>
    <linearGradient id="linear-gradient" x1="-406.45" y1="-101.26" x2="-407.35" y2="-113.07" gradientTransform="translate(435.26 -50.26) rotate(-22.94)" gradientUnits="userSpaceOnUse">
      <stop offset=".24" stop-color="#bc75ff"/>
      <stop offset=".68" stop-color="#21a6fa"/>
    </linearGradient>
    <linearGradient id="linear-gradient-2" x1="-406.76" y1="-106.37" x2="-406.47" y2="-102.15" gradientTransform="translate(435.26 -50.26) rotate(-22.94)" gradientUnits="userSpaceOnUse">
      <stop offset=".26" stop-color="#a94fff" stop-opacity="0"/>
      <stop offset="1" stop-color="#cd82ff"/>
    </linearGradient>
    <linearGradient id="linear-gradient-3" x1="-671.63" y1="-240.94" x2="-672.3" y2="-249.72" gradientTransform="translate(687.67 -181.16) rotate(-37.31)" xlink:href="#linear-gradient"/>
    <linearGradient id="linear-gradient-4" x1="-671.86" y1="-244.74" x2="-671.64" y2="-241.61" gradientTransform="translate(687.67 -181.16) rotate(-37.31)" xlink:href="#linear-gradient-2"/>
    <linearGradient id="linear-gradient-5" x1="-78.48" y1="-.12" x2="-79.15" y2="-8.9" gradientTransform="translate(-30.96 15.74) rotate(-173.33) scale(1 -1)" xlink:href="#linear-gradient"/>
    <linearGradient id="linear-gradient-6" x1="-78.71" y1="-3.92" x2="-78.49" y2="-.78" gradientTransform="translate(-30.96 15.74) rotate(-173.33) scale(1 -1)" xlink:href="#linear-gradient-2"/>
  </defs>
  <g id="Layer_1-2" data-name="Layer 1">
    <g>
      <g>
        <g>
          <path class="cls-1" d="M16.23.74s-1.39,2.29,1.21,4.17.04,3.68-1.05,2.51-1.04-2.04-1.04-2.04c0,0-1.37,2.23.36,3.66s.46,2.77-.44,2.11-.45-1.58-.93-2.16-1.2-.25-1.2-.25c0,0,1.13.1,1.08,2.56s2.24,6.89,7.84,4.31c4.23-1.94,3.54-6.08,1.81-7.17s-.77-2.92-2.37-4.36c0,0,.44,2.73-.83,2.59s-.11-1.09-1.02-2.41-2.42-1.41-3.09-2.25-.33-1.28-.33-1.28Z"/>
          <path class="cls-1" d="M17.76,0s-.44,1.36.67,1.81,1.27,1.03,1.27,1.03c0,0,1.31-1.22-.17-1.7s-1.67-.81-1.77-1.14Z"/>
          <path class="cls-1" d="M13.56,5.56s-.16.99.06,1.6.74.91.77.9-.04-.36-.09-1.25-.74-1.25-.74-1.25Z"/>
        </g>
        <path class="cls-7" d="M15.06,12.17c-.05-.06.35,2.7,2.91,3.47s5.89-1.48,6.45-3.08-.24-3.1-1.42-3.76-.73-1.72-.84-1.92-.41-.1-.41-.1c0,0,.02.54-.64.82s-1.51,0-1.59-.85.14-1.65-.7-2.55-1.83-1.11-1.98-1.05,1.16.67,1.58,1.96.91,2.55.08,3.13-1.61.51-2.18-.07-.43-1.16-.56-1.1-.34.86.34,1.69,2.05,2.13,1.05,3.11-1.87.57-2.09.31Z"/>
        <path class="cls-6" d="M15.64,12.83s1.38,3.45,4.96,2.34c3.58-1.11,4.04-3.66,3.52-4.69s-1.66-1.49-1.98-1.93-.24-1.12-.24-1.12"/>
      </g>
      <g>
        <g>
          <path class="cls-1" d="M1.04,25.05s-.58,1.9,1.64,2.78c2.22.88.7,2.64-.29,2s-1.13-1.28-1.13-1.28c0,0-.57,1.85.93,2.57s.84,1.91.07,1.6-.62-1.05-1.07-1.38-.91.04-.91.04c0,0,.83-.14,1.25,1.65s2.88,4.54,6.44,1.65c2.68-2.18,1.43-5.03-.02-5.49s-1.09-1.96-2.51-2.7c0,0,.82,1.88-.12,2.02s-.28-.76-1.18-1.54-2-.57-2.64-1.05-.48-.86-.48-.86Z"/>
          <path class="cls-1" d="M2.01,24.24s-.07,1.06.82,1.18,1.1.5,1.1.5c0,0,.72-1.12-.44-1.19s-1.35-.28-1.48-.49Z"/>
          <path class="cls-1" d="M0,29.02s.07.74.34,1.14.7.52.72.5-.1-.25-.29-.88S0,29.02,0,29.02Z"/>
        </g>
        <path class="cls-5" d="M2.31,33.5s.75,1.88,2.74,1.96,3.97-2.15,4.08-3.41-.75-2.19-1.72-2.44-.84-1.11-.96-1.23-.31,0-.31,0c0,0,.11.38-.31.71s-1.09.28-1.3-.32-.21-1.21-.98-1.71-1.52-.47-1.62-.39.96.27,1.5,1.12,1.13,1.67.63,2.24-1.06.66-1.58.35-.52-.76-.61-.69-.09.68.56,1.16,1.87,1.15,1.33,2.04-1.24.75-1.45.61Z"/>
        <path class="cls-4" d="M2.84,33.86s1.63,2.23,4,.77c2.37-1.46,2.24-3.38,1.67-4.03s-1.47-.76-1.78-1.03-.38-.76-.38-.76"/>
      </g>
      <g>
        <g>
          <path class="cls-1" d="M47.8,13.52s1.47,1.34,0,3.23.74,2.63,1.27,1.57.32-1.67.32-1.67c0,0,1.44,1.3.51,2.68s.25,2.07.76,1.42,0-1.22.21-1.73.8-.43.8-.43c0,0-.78.3-.23,2.05s-.16,5.38-4.7,4.71c-3.42-.51-3.79-3.6-2.78-4.74s-.06-2.24.78-3.6c0,0,.25,2.04,1.13,1.67s-.15-.8.23-1.93,1.43-1.51,1.73-2.25-.03-.98-.03-.98Z"/>
          <path class="cls-1" d="M46.56,13.3s.6.88-.1,1.43-.69,1-.69,1c0,0-1.19-.6-.23-1.25s1.02-.93,1.03-1.18Z"/>
          <path class="cls-1" d="M50.72,16.4s.32.67.29,1.15-.34.8-.36.8-.05-.27-.2-.91.27-1.04.27-1.04Z"/>
        </g>
        <path class="cls-2" d="M51.02,21.42c.02-.05.31,2-1.36,3.08-1.67,1.08-4.51.17-5.24-.86s-.47-2.26.23-2.98.16-1.38.2-1.55.27-.16.27-.16c0,0,.1.39.63.45s1.08-.31.96-.94-.44-1.15-.03-1.97,1.07-1.18,1.19-1.16-.68.72-.72,1.73-.12,2.01.6,2.25,1.25.03,1.54-.5.06-.92.17-.9.42.54.11,1.28-1.02,1.94-.11,2.44,1.45.02,1.56-.21Z"/>
        <path class="cls-3" d="M50.74,22.01s-.27,2.75-3.05,2.7-3.65-1.77-3.49-2.61.87-1.4,1.01-1.79-.06-.85-.06-.85"/>
      </g>
      <g>
        <path class="cls-8" d="M47.8,21.28c.42.19.84.38,1.27.56.08.04.1.07.06.15-.25.56-.5,1.12-.75,1.68-.03.06-.06.09-.12.12-.33.12-.66.25-.98.38-.06.02-.11.02-.17,0-.15-.07-.3-.13-.45-.2-.05-.03-.1-.03-.16,0-.07.03-.16.05-.22.09-.21.13-.41.07-.6-.04-.05-.03-.06-.05-.04-.1.04-.08.07-.16.11-.24.04-.07.02-.1-.05-.13-.18-.08-.36-.16-.55-.24-.07-.03-.08-.06-.05-.13.3-.66.59-1.33.9-1.99.09-.19.28-.31.42-.46.04-.04.08,0,.12.02.42.19.84.38,1.26.57ZM46.17,23.61l.02.03c.15-.06.31-.12.46-.19.06-.03.11-.02.17,0,.19.09.39.18.59.27.05.02.09.03.15,0,.17-.07.33-.13.5-.19.05-.02.08-.05.1-.09.19-.44.39-.87.59-1.31.03-.06.03-.1-.04-.13-.67-.3-1.35-.6-2.02-.9-.07-.03-.09-.01-.12.05-.26.58-.51,1.16-.78,1.73-.03.06-.02.1.05.13.14.05.27.12.4.18.08.03.1.07.06.15-.05.09-.08.18-.12.27Z"/>
        <path class="cls-8" d="M46.9,22.29c.05-.1.1-.21.14-.32.02-.05.05-.06.1-.04.21.08.21.08.12.28-.08.17-.16.34-.23.51-.03.08-.06.09-.14.06-.22-.1-.18-.07-.1-.26.03-.08.07-.16.11-.24Z"/>
        <path class="cls-9" d="M47.89,22.76c-.04.1-.09.19-.13.29-.03.07-.06.09-.13.05-.21-.1-.18-.06-.1-.25.08-.18.16-.35.24-.53.03-.07.06-.09.13-.05.21.11.18.05.1.26-.03.08-.07.15-.1.23Z"/>
      </g>
      <g>
        <path class="cls-8" d="M5.15,31.14c.33-.33.65-.65.98-.98.06-.06.1-.07.16,0,.43.44.86.87,1.3,1.3.05.05.06.09.06.16,0,.35,0,.7,0,1.05,0,.07-.02.11-.07.15-.12.11-.23.23-.35.34-.04.04-.07.08-.06.15,0,.08-.01.16,0,.24.05.25-.08.4-.25.55-.04.03-.07.04-.11,0-.06-.06-.13-.12-.18-.19-.05-.06-.09-.05-.14,0-.14.14-.28.28-.42.42-.05.06-.09.06-.14,0-.51-.52-1.03-1.03-1.54-1.55-.15-.15-.19-.37-.28-.56-.02-.05.03-.08.06-.11.33-.33.65-.65.98-.98ZM6.74,33.49h.04c0-.17,0-.34-.01-.5,0-.07.02-.11.07-.16.15-.15.3-.3.46-.45.04-.04.06-.08.06-.13,0-.18,0-.36,0-.54,0-.05-.02-.09-.05-.13-.34-.34-.68-.67-1.01-1.01-.05-.05-.08-.06-.13,0-.52.52-1.04,1.04-1.56,1.56-.05.05-.05.08,0,.13.45.45.9.89,1.34,1.34.05.05.08.06.13,0,.1-.11.21-.21.31-.31.06-.06.1-.07.16,0,.06.07.14.14.21.21Z"/>
        <path class="cls-8" d="M5.78,32.34c-.08-.08-.16-.16-.24-.24-.04-.04-.04-.07,0-.11.15-.17.15-.17.31-.01.13.13.26.27.4.39.06.06.06.09,0,.15-.18.17-.13.15-.28,0-.06-.06-.12-.12-.18-.18Z"/>
        <path class="cls-9" d="M6.57,31.58c.08.08.15.15.23.23.05.05.06.09,0,.14-.17.16-.12.15-.27,0-.14-.14-.27-.28-.41-.41-.05-.05-.06-.09,0-.14.17-.16.11-.15.27,0,.06.06.12.12.18.18Z"/>
      </g>
      <g>
        <path class="cls-8" d="M20.05,10.38c.52-.19,1.04-.38,1.55-.58.1-.04.14-.03.17.08.25.69.51,1.37.76,2.06.03.07.02.13,0,.2-.18.38-.35.76-.52,1.14-.03.07-.08.11-.15.13-.18.06-.37.14-.55.2-.07.02-.11.06-.14.13-.03.09-.09.17-.12.26-.07.29-.29.4-.55.47-.06.02-.1.01-.12-.05-.03-.1-.08-.19-.11-.3-.03-.09-.07-.1-.16-.07-.22.09-.45.16-.67.25-.09.03-.12.02-.15-.07-.3-.82-.61-1.63-.9-2.45-.08-.24-.03-.5-.03-.75,0-.06.07-.07.12-.08.52-.19,1.03-.38,1.55-.58ZM20.61,13.73h.04c.08-.17.16-.35.23-.54.03-.07.08-.11.15-.14.24-.09.48-.18.72-.27.06-.02.1-.05.13-.12.09-.2.18-.39.27-.58.03-.06.03-.11,0-.16-.2-.53-.4-1.07-.6-1.6-.03-.08-.06-.1-.14-.07-.82.31-1.65.62-2.47.92-.09.03-.09.07-.06.15.27.71.53,1.42.79,2.13.03.08.06.1.14.07.16-.07.33-.12.49-.19.1-.04.15-.03.18.08.03.11.08.22.12.33Z"/>
        <path class="cls-8" d="M20.14,12c-.05-.13-.09-.26-.14-.39-.03-.06,0-.09.05-.12.25-.11.25-.11.34.14.08.21.15.42.23.63.04.09.02.13-.07.17-.27.09-.21.1-.3-.13-.04-.1-.07-.2-.11-.29Z"/>
        <path class="cls-9" d="M21.37,11.57c.04.12.09.24.14.36.03.08.03.13-.07.16-.27.09-.2.1-.29-.13-.08-.22-.16-.44-.25-.65-.03-.08-.03-.12.07-.16.27-.09.2-.11.3.14.04.09.07.19.1.28Z"/>
      </g>
    </g>
  </g>
</svg>