<?xml version="1.0" encoding="UTF-8"?>
<svg id="Layer_2" data-name="Layer 2" xmlns="http://www.w3.org/2000/svg" xmlns:xlink="http://www.w3.org/1999/xlink" viewBox="0 0 15.53 19.62">
  <defs>
    <style>
      .cls-1 {
        fill: #2746d2;
      }

      .cls-2 {
        fill: url(#linear-gradient-2);
      }

      .cls-3 {
        fill: url(#linear-gradient);
      }

      .cls-4 {
        fill: #fafcfe;
      }

      .cls-5 {
        fill: #fdfefe;
      }
    </style>
    <linearGradient id="linear-gradient" x1="-621.18" y1="-160.38" x2="-622.29" y2="-174.89" gradientTransform="translate(616.19 -198.05) rotate(-34.07)" gradientUnits="userSpaceOnUse">
      <stop offset=".24" stop-color="#bc75ff"/>
      <stop offset=".68" stop-color="#21a6fa"/>
    </linearGradient>
    <linearGradient id="linear-gradient-2" x1="-621.57" y1="-166.65" x2="-621.21" y2="-161.47" gradientTransform="translate(616.19 -198.05) rotate(-34.07)" gradientUnits="userSpaceOnUse">
      <stop offset=".26" stop-color="#a94fff" stop-opacity="0"/>
      <stop offset="1" stop-color="#cd82ff"/>
    </linearGradient>
  </defs>
  <g id="Layer_1-2" data-name="Layer 1">
    <g>
      <g>
        <g>
          <path class="cls-1" d="M2.1,1.26s-1.13,3.09,2.45,4.74.92,4.43-.67,3.28c-1.59-1.16-1.74-2.21-1.74-2.21,0,0-1.12,3.01,1.3,4.32s1.21,3.23-.03,2.65-.92-1.8-1.63-2.38-1.5-.01-1.5-.01c0,0,1.38-.15,1.91,2.84.53,2.99,4.33,7.77,10.48,3.33,4.63-3.35,2.83-8.17.48-9.07s-1.62-3.33-3.89-4.7c0,0,1.18,3.18-.39,3.32s-.4-1.29-1.8-2.66-3.25-1.12-4.26-1.98-.71-1.47-.71-1.47Z"/>
          <path class="cls-1" d="M3.76,0s-.21,1.74,1.24,2.02,1.77.94,1.77.94c0,0,1.29-1.78-.61-2.01-1.9-.23-2.21-.59-2.4-.95Z"/>
          <path class="cls-1" d="M0,7.71s.05,1.23.45,1.91,1.11.92,1.14.9-.14-.43-.4-1.48S0,7.71,0,7.71Z"/>
        </g>
        <path class="cls-3" d="M3.39,15.31c-.07-.06,1.06,3.18,4.33,3.49,3.27.31,6.76-3.18,7.05-5.25.29-2.06-1.03-3.68-2.61-4.19s-1.29-1.9-1.47-2.12-.51-.03-.51-.03c0,0,.15.64-.58,1.14s-1.82.36-2.12-.64-.23-2.02-1.45-2.91-2.47-.91-2.64-.8,1.55.53,2.37,1.99,1.71,2.86.83,3.76-1.82,1-2.64.43-.79-1.3-.94-1.2-.2,1.12.81,1.96,2.97,2.08,2.01,3.5-2.12,1.13-2.45.87Z"/>
        <path class="cls-2" d="M4.25,15.97s2.49,3.84,6.54,1.65c4.05-2.19,4.01-5.38,3.13-6.49s-2.35-1.4-2.84-1.86-.56-1.3-.56-1.3"/>
      </g>
      <g>
        <path class="cls-4" d="M8.87,12.57c.45-.39.91-.78,1.36-1.18.09-.08.13-.08.21.01.52.61,1.04,1.21,1.57,1.81.06.06.08.13.07.21-.04.45-.07.91-.1,1.36,0,.09-.04.14-.1.19-.16.14-.32.28-.48.41-.06.05-.09.1-.09.18,0,.1-.03.21-.02.31.04.32-.14.52-.38.68-.06.04-.09.05-.14,0-.07-.09-.15-.17-.22-.26-.06-.09-.11-.08-.18,0-.19.17-.39.34-.58.51-.08.07-.12.06-.18-.01-.62-.72-1.25-1.43-1.86-2.15-.18-.21-.22-.5-.31-.75-.02-.06.05-.1.09-.13.45-.39.91-.79,1.36-1.18ZM10.72,15.77h.05c0-.22.02-.44.03-.65,0-.09.04-.14.1-.2.21-.18.42-.37.64-.55.05-.05.09-.09.09-.17.01-.23.03-.46.05-.7,0-.07-.01-.12-.06-.17-.41-.47-.82-.94-1.22-1.41-.06-.07-.1-.08-.17-.02-.72.63-1.44,1.26-2.17,1.88-.07.06-.07.1,0,.17.54.62,1.08,1.24,1.62,1.87.06.07.1.08.17.02.14-.13.29-.25.43-.38.08-.08.14-.09.21.01.08.1.16.19.25.29Z"/>
        <path class="cls-4" d="M9.57,14.19c-.1-.11-.19-.23-.29-.34-.05-.05-.04-.09,0-.14.21-.21.21-.21.4.01.16.18.31.37.48.55.07.08.07.13-.01.2-.24.2-.18.18-.36-.02-.08-.08-.15-.17-.22-.26Z"/>
        <path class="cls-5" d="M10.67,13.28c.09.11.18.21.28.31.07.07.07.12,0,.18-.24.2-.17.18-.35-.02-.17-.19-.33-.38-.5-.57-.07-.07-.07-.12,0-.18.24-.19.16-.19.36.03.07.08.14.16.21.25Z"/>
      </g>
    </g>
  </g>
</svg>