<?xml version="1.0" encoding="UTF-8"?>
<svg id="Layer_2" data-name="Layer 2" xmlns="http://www.w3.org/2000/svg" xmlns:xlink="http://www.w3.org/1999/xlink" viewBox="0 0 32.62 16.87">
  <defs>
    <style>
      .cls-1 {
        fill: #2746d2;
      }

      .cls-2 {
        fill: url(#linear-gradient-5);
      }

      .cls-3 {
        fill: url(#linear-gradient-6);
      }

      .cls-4 {
        fill: url(#linear-gradient-4);
      }

      .cls-5 {
        fill: url(#linear-gradient-3);
      }

      .cls-6 {
        fill: url(#linear-gradient-2);
      }

      .cls-7 {
        fill: url(#linear-gradient);
      }

      .cls-8 {
        fill: #fafcfe;
      }

      .cls-9 {
        fill: #fdfefe;
      }
    </style>
    <linearGradient id="linear-gradient" x1="-135.02" y1="-11.1" x2="-135.83" y2="-21.61" gradientTransform="translate(152.54 6.78) rotate(-7.62)" gradientUnits="userSpaceOnUse">
      <stop offset=".24" stop-color="#bc75ff"/>
      <stop offset=".68" stop-color="#21a6fa"/>
    </linearGradient>
    <linearGradient id="linear-gradient-2" x1="-135.3" y1="-15.65" x2="-135.04" y2="-11.9" gradientTransform="translate(152.54 6.78) rotate(-7.62)" gradientUnits="userSpaceOnUse">
      <stop offset=".26" stop-color="#a94fff" stop-opacity="0"/>
      <stop offset="1" stop-color="#cd82ff"/>
    </linearGradient>
    <linearGradient id="linear-gradient-3" x1="-421.22" y1="-101.44" x2="-421.82" y2="-109.26" gradientTransform="translate(434.01 -47.72) rotate(-21.99)" xlink:href="#linear-gradient"/>
    <linearGradient id="linear-gradient-4" x1="-421.42" y1="-104.82" x2="-421.23" y2="-102.04" gradientTransform="translate(434.01 -47.72) rotate(-21.99)" xlink:href="#linear-gradient-2"/>
    <linearGradient id="linear-gradient-5" x1="-302.78" y1="-55.76" x2="-303.38" y2="-63.58" gradientTransform="translate(-274.47 -47.72) rotate(-158.01) scale(1 -1)" xlink:href="#linear-gradient"/>
    <linearGradient id="linear-gradient-6" x1="-302.99" y1="-59.14" x2="-302.8" y2="-56.36" gradientTransform="translate(-274.47 -47.72) rotate(-158.01) scale(1 -1)" xlink:href="#linear-gradient-2"/>
  </defs>
  <g id="Layer_1-2" data-name="Layer 1">
    <g>
      <g>
        <g>
          <path class="cls-1" d="M16.06.28s-1.73,1.64.06,3.86c1.79,2.23-.83,3.17-1.49,1.91s-.41-2-.41-2c0,0-1.69,1.59-.55,3.22s-.26,2.49-.88,1.71-.02-1.46-.29-2.07-.97-.49-.97-.49c0,0,.94.35.32,2.45s.3,6.43,5.72,5.54c4.08-.68,4.47-4.38,3.24-5.73s.03-2.68-1.01-4.3c0,0-.26,2.44-1.32,2.03s.16-.96-.31-2.3-1.74-1.77-2.12-2.66.01-1.18.01-1.18Z"/>
          <path class="cls-1" d="M17.55,0s-.7,1.06.15,1.71.85,1.18.85,1.18c0,0,1.41-.74.25-1.5s-1.24-1.09-1.25-1.39Z"/>
          <path class="cls-1" d="M12.63,3.78s-.37.81-.32,1.38.42.95.45.95.05-.32.22-1.09-.35-1.24-.35-1.24Z"/>
        </g>
        <path class="cls-7" d="M12.37,9.8c-.03-.06-.34,2.4,1.68,3.66s5.4.12,6.26-1.13.52-2.72-.34-3.56-.22-1.65-.27-1.85-.33-.18-.33-.18c0,0-.11.47-.74.55s-1.3-.35-1.17-1.1.5-1.38,0-2.36-1.3-1.39-1.45-1.37.83.85.9,2.05.18,2.41-.67,2.7-1.5.06-1.85-.57-.09-1.1-.22-1.08-.49.66-.11,1.53,1.26,2.31.17,2.91-1.74.05-1.87-.22Z"/>
        <path class="cls-6" d="M12.71,10.51s.38,3.29,3.71,3.18c3.33-.11,4.33-2.19,4.12-3.2s-1.07-1.66-1.24-2.13.06-1.02.06-1.02"/>
        <g>
          <path class="cls-8" d="M16.55,8.94c.47-.17.93-.34,1.4-.52.09-.03.12-.02.16.07.22.62.45,1.24.68,1.85.02.07.02.12,0,.18-.16.34-.32.68-.47,1.02-.03.07-.07.1-.14.12-.17.06-.33.12-.49.18-.06.02-.1.05-.13.11-.03.08-.08.15-.1.23-.06.26-.26.36-.49.42-.06.01-.09.01-.11-.05-.03-.09-.07-.18-.1-.27-.02-.08-.06-.09-.14-.06-.2.08-.4.15-.6.22-.08.03-.11.02-.14-.06-.27-.74-.55-1.47-.8-2.21-.07-.21-.02-.45-.02-.67,0-.06.07-.06.11-.07.47-.17.93-.34,1.4-.51ZM17.04,11.96h.04c.07-.15.14-.32.21-.48.03-.07.07-.1.13-.12.22-.08.43-.16.65-.24.06-.02.09-.05.12-.1.08-.18.16-.35.24-.52.02-.05.03-.09,0-.15-.18-.48-.36-.96-.53-1.44-.03-.07-.05-.09-.13-.06-.74.28-1.48.55-2.23.82-.08.03-.08.06-.06.13.24.64.47,1.27.7,1.91.03.07.05.09.13.06.15-.06.3-.11.44-.17.09-.04.13-.03.16.07.03.1.07.2.11.3Z"/>
          <path class="cls-8" d="M16.62,10.4c-.04-.12-.08-.23-.13-.35-.02-.06,0-.08.05-.1.22-.1.22-.1.31.13.07.19.13.38.21.56.03.08.02.12-.07.15-.25.08-.19.09-.27-.12-.03-.09-.06-.18-.1-.26Z"/>
          <path class="cls-9" d="M17.73,10.02c.04.11.08.22.12.32.03.07.02.11-.06.14-.24.08-.18.09-.26-.11-.08-.19-.14-.39-.22-.59-.03-.07-.02-.11.06-.14.24-.08.18-.1.27.13.03.08.06.17.09.25Z"/>
        </g>
      </g>
      <g>
        <g>
          <path class="cls-1" d="M2.13,6.49s-.94,1.5.75,2.77-.02,2.43-.72,1.65-.67-1.36-.67-1.36c0,0-.93,1.46.2,2.42s.27,1.84-.32,1.39-.28-1.05-.59-1.44-.79-.18-.79-.18c0,0,.74.08.68,1.71s1.4,4.58,5.14,2.93c2.82-1.24,2.41-3.98,1.27-4.72s-.47-1.94-1.52-2.91c0,0,.26,1.81-.58,1.7s-.06-.72-.65-1.6-1.58-.96-2.02-1.52-.21-.85-.21-.85Z"/>
          <path class="cls-1" d="M3.15,6.02s-.31.89.43,1.2.83.69.83.69c0,0,.88-.79-.09-1.12s-1.1-.56-1.16-.77Z"/>
          <path class="cls-1" d="M.31,9.65s-.11.65.02,1.06.48.61.5.6-.02-.24-.04-.83-.48-.83-.48-.83Z"/>
        </g>
        <path class="cls-5" d="M1.23,14.03s.2,1.79,1.89,2.32,3.91-.91,4.3-1.97-.13-2.05-.9-2.5-.46-1.15-.53-1.28-.27-.07-.27-.07c0,0,0,.36-.43.53s-1-.02-1.05-.58.11-1.09-.44-1.7-1.19-.76-1.3-.72.76.46,1.03,1.31.57,1.7.02,2.07-1.07.32-1.44-.07-.27-.77-.36-.74-.23.56.21,1.12,1.33,1.43.66,2.07-1.24.36-1.39.18Z"/>
        <path class="cls-4" d="M1.61,14.47s.88,2.3,3.25,1.6,2.71-2.38,2.38-3.06-1.08-1-1.29-1.3-.15-.74-.15-.74"/>
        <g>
          <path class="cls-8" d="M4.17,12.74c.33-.2.66-.39.98-.59.06-.04.09-.03.13.03.26.44.52.87.79,1.3.03.05.03.09.02.14-.07.28-.14.56-.21.84-.01.05-.04.08-.09.11-.12.07-.23.14-.35.21-.04.02-.07.05-.08.1-.01.06-.04.13-.04.19-.01.21-.14.31-.31.39-.04.02-.06.02-.09-.02-.04-.06-.08-.12-.11-.19-.03-.06-.06-.06-.11-.03-.14.09-.28.17-.42.26-.05.03-.08.03-.11-.03-.31-.52-.63-1.03-.93-1.55-.09-.15-.08-.34-.12-.51,0-.04.04-.05.07-.07.33-.2.65-.4.98-.59ZM4.99,14.95h.03c.03-.13.06-.27.09-.4.01-.05.04-.09.08-.11.15-.09.3-.18.46-.27.04-.02.06-.05.08-.1.03-.14.07-.29.11-.43.01-.04,0-.08-.02-.11-.21-.34-.41-.68-.61-1.02-.03-.05-.05-.06-.11-.03-.52.32-1.04.63-1.57.95-.05.03-.05.06-.02.11.27.45.54.9.81,1.35.03.05.05.06.11.03.1-.07.21-.12.31-.19.06-.04.1-.04.13.03.04.07.08.14.12.21Z"/>
          <path class="cls-8" d="M4.44,13.84c-.05-.08-.1-.16-.15-.24-.03-.04-.02-.06.02-.09.16-.11.15-.11.25.05.08.13.16.27.24.4.04.06.03.09-.03.12-.17.1-.13.09-.22-.05-.04-.06-.07-.12-.11-.19Z"/>
          <path class="cls-9" d="M5.23,13.38c.05.08.09.15.14.23.03.05.03.08-.02.12-.17.1-.13.1-.22-.05-.09-.14-.16-.28-.25-.41-.03-.05-.03-.08.03-.11.17-.1.12-.1.22.06.04.06.07.12.11.18Z"/>
        </g>
      </g>
      <g>
        <g>
          <path class="cls-1" d="M30.49,4.51s.94,1.5-.75,2.77.02,2.43.72,1.65.67-1.36.67-1.36c0,0,.93,1.46-.2,2.42s-.27,1.84.32,1.39.28-1.05.59-1.44.79-.18.79-.18c0,0-.74.08-.68,1.71s-1.4,4.58-5.14,2.93c-2.82-1.24-2.41-3.98-1.27-4.72s.47-1.94,1.52-2.91c0,0-.26,1.81.58,1.7s.06-.72.65-1.6,1.58-.96,2.02-1.52.21-.85.21-.85Z"/>
          <path class="cls-1" d="M29.47,4.03s.31.89-.43,1.2-.83.69-.83.69c0,0-.88-.79.09-1.12s1.1-.56,1.16-.77Z"/>
          <path class="cls-1" d="M32.31,7.66s.11.65-.02,1.06-.48.61-.5.6.02-.24.04-.83.48-.83.48-.83Z"/>
        </g>
        <path class="cls-2" d="M31.39,12.05s-.2,1.79-1.89,2.32-3.91-.91-4.3-1.97.13-2.05.9-2.5.46-1.15.53-1.28.27-.07.27-.07c0,0,0,.36.43.53s1-.02,1.05-.58-.11-1.09.44-1.7,1.19-.76,1.3-.72-.76.46-1.03,1.31-.57,1.7-.02,2.07,1.07.32,1.44-.07.27-.77.36-.74.23.56-.21,1.12-1.33,1.43-.66,2.07,1.24.36,1.39.18Z"/>
        <path class="cls-3" d="M31.01,12.49s-.88,2.3-3.25,1.6-2.71-2.38-2.38-3.06,1.08-1,1.29-1.3.15-.74.15-.74"/>
        <g>
          <path class="cls-8" d="M28.46,10.92c.34.16.67.33,1.01.49.06.03.08.06.04.12-.22.45-.44.9-.65,1.34-.02.05-.05.07-.1.09-.27.09-.54.18-.81.28-.05.02-.09.01-.14-.01-.12-.06-.24-.11-.36-.18-.04-.02-.08-.03-.13,0-.06.02-.13.03-.18.07-.18.1-.33.05-.49-.05-.04-.02-.05-.04-.03-.08.03-.06.06-.13.09-.19.03-.06.02-.08-.04-.11-.15-.07-.29-.14-.44-.21-.06-.03-.07-.05-.04-.11.26-.53.51-1.07.78-1.6.08-.15.23-.25.36-.37.03-.03.07,0,.1.02.34.16.68.33,1.01.49ZM27.08,12.77l.02.03c.13-.05.25-.09.38-.14.05-.02.09-.02.14,0,.16.08.31.15.47.23.04.02.08.03.12.01.14-.05.27-.1.41-.14.04-.01.06-.04.08-.07.17-.35.34-.7.51-1.05.02-.05.02-.08-.03-.1-.54-.26-1.08-.52-1.62-.78-.06-.03-.08-.01-.1.04-.22.46-.45.93-.67,1.39-.03.05-.02.08.03.1.11.05.21.11.32.15.06.03.08.06.05.12-.04.07-.07.14-.11.21Z"/>
          <path class="cls-8" d="M27.7,11.72c.04-.08.08-.17.12-.25.02-.04.04-.05.08-.03.17.07.17.07.09.23-.07.14-.14.27-.2.41-.03.06-.06.07-.12.04-.18-.09-.15-.06-.08-.21.03-.06.06-.13.09-.19Z"/>
          <path class="cls-9" d="M28.5,12.13c-.04.08-.08.16-.11.24-.02.06-.05.07-.11.04-.17-.09-.15-.05-.08-.2.07-.14.14-.28.21-.43.03-.06.05-.07.11-.04.17.09.15.05.07.21-.03.06-.06.12-.09.18Z"/>
        </g>
      </g>
    </g>
  </g>
</svg>