<?xml version="1.0" encoding="UTF-8"?>
<svg xmlns="http://www.w3.org/2000/svg" xmlns:xlink="http://www.w3.org/1999/xlink" viewBox="0 0 16.32 17.75">
  <defs>
    <style>
      .cls-1 {
        fill: url(#linear-gradient-4);
      }

      .cls-2 {
        fill: url(#linear-gradient-3);
      }

      .cls-3 {
        fill: url(#linear-gradient-2);
      }

      .cls-4 {
        fill: url(#linear-gradient);
      }

      .cls-5 {
        isolation: isolate;
      }

      .cls-6 {
        fill: url(#linear-gradient-5);
      }

      .cls-6, .cls-7, .cls-8 {
        mix-blend-mode: overlay;
      }

      .cls-9 {
        fill: #fff;
      }

      .cls-10 {
        fill: #090b0a;
      }

      .cls-8 {
        fill: #383838;
        opacity: .54;
      }
    </style>
    <linearGradient id="linear-gradient" x1="17.22" y1=".51" x2="-2.84" y2="20.11" gradientUnits="userSpaceOnUse">
      <stop offset=".02" stop-color="#141312"/>
      <stop offset=".2" stop-color="#66615c"/>
      <stop offset=".45" stop-color="#141312"/>
      <stop offset=".66" stop-color="#66615c"/>
      <stop offset="1" stop-color="#141312"/>
    </linearGradient>
    <linearGradient id="linear-gradient-2" x1="16.16" y1="-.24" x2="-2.51" y2="18" xlink:href="#linear-gradient"/>
    <linearGradient id="linear-gradient-3" x1=".6" y1="11.85" x2="12.16" y2="11.85" xlink:href="#linear-gradient"/>
    <linearGradient id="linear-gradient-4" x1="2.74" y1="12.26" x2="10.94" y2="12.26" gradientUnits="userSpaceOnUse">
      <stop offset=".11" stop-color="#707070"/>
      <stop offset=".41" stop-color="#8f8e8c"/>
      <stop offset=".59" stop-color="#707070"/>
      <stop offset=".76" stop-color="#8f8e8c"/>
      <stop offset="1" stop-color="#707070"/>
    </linearGradient>
    <linearGradient id="linear-gradient-5" x1="5.25" y1="9.09" x2="8.78" y2="15.25" gradientUnits="userSpaceOnUse">
      <stop offset=".1" stop-color="#fff"/>
      <stop offset=".62" stop-color="#fff" stop-opacity="0"/>
    </linearGradient>
  </defs>
  <g class="cls-5">
    <g id="Layer_2" data-name="Layer 2">
      <g id="Layer_1-2" data-name="Layer 1">
        <g>
          <g>
            <g>
              <path class="cls-4" d="M13.99,4.32c-.18,0-.33-.06-.45-.17-.3-.29-.24-.84.14-1.23.22-.23.5-.36.77-.36.18,0,.33.06.45.17.15.14.21.35.18.58-.03.23-.14.46-.32.64-.22.23-.51.36-.77.36Z"/>
              <path class="cls-10" d="M14.45,2.64c.15,0,.29.05.4.15.27.26.21.76-.14,1.12-.21.22-.48.34-.72.34-.15,0-.29-.05-.4-.15-.27-.26-.21-.76.14-1.12.21-.22.48-.34.72-.34M14.45,2.49c-.29,0-.6.14-.83.39-.4.42-.46,1.02-.13,1.33.13.12.3.19.5.19.29,0,.6-.14.83-.39.4-.42.46-1.02.13-1.33-.13-.12-.3-.19-.5-.19h0Z"/>
            </g>
            <g class="cls-7">
              <path class="cls-9" d="M14.45,2.8c.08,0,.19.02.28.1.2.19.13.6-.14.89-.17.18-.4.29-.6.29-.08,0-.2-.02-.28-.1-.2-.19-.13-.6.14-.89.17-.18.4-.29.6-.29M14.45,2.64c-.24,0-.51.12-.72.34-.35.36-.41.87-.14,1.12.11.1.25.15.4.15.24,0,.51-.12.72-.34.35-.36.41-.87.14-1.12-.11-.1-.25-.15-.4-.15h0Z"/>
            </g>
            <g>
              <path class="cls-3" d="M.79,17.68s-.04,0-.05-.02l-.64-.61s-.03-.08,0-.11L11.62,4.87c-.99-1-.88-2.66.21-3.8.6-.63,1.41-1,2.21-1,.61,0,1.17.22,1.58.61.33.31.54.72.64,1.18,0,.03,0,.06-.04.08-.01,0-.02,0-.04,0-.02,0-.04,0-.05-.02-.35-.34-.79-.51-1.28-.51-.65,0-1.31.3-1.8.81-.82.86-.97,2.1-.34,2.89L.84,17.65s-.03.02-.05.02h0Z"/>
              <path class="cls-10" d="M14.03.15c.57,0,1.11.19,1.52.59.33.31.53.71.61,1.14,0,0-.01-.02-.02-.02-.35-.34-.82-.5-1.31-.5-.64,0-1.33.29-1.85.84-.86.9-.99,2.18-.35,2.99L.79,17.6l-.64-.61L11.72,4.86s-.04-.03-.06-.05c-.96-.91-.86-2.57.21-3.7.61-.64,1.41-.97,2.16-.97M14.03,0c-.82,0-1.65.37-2.27,1.02-1.11,1.16-1.22,2.87-.26,3.85L.04,16.89c-.06.06-.05.15,0,.21l.64.61s.06.04.1.04h0s.08-.02.1-.05L12.75,5.28c.05-.05.06-.14,0-.19-.6-.76-.46-1.96.34-2.79.48-.5,1.11-.79,1.74-.79.47,0,.89.16,1.21.46.03.03.08.05.12.05.02,0,.04,0,.06-.01.06-.03.1-.08.09-.15-.09-.48-.32-.9-.66-1.22-.42-.4-1-.63-1.63-.63h0Z"/>
            </g>
            <g class="cls-7">
              <path class="cls-9" d="M14.03.31c.55,0,1.04.19,1.41.54.17.17.31.36.41.58-.3-.17-.65-.25-1.02-.25-.72,0-1.43.32-1.97.89-.86.9-1.04,2.21-.44,3.09L.78,17.37l-.4-.38L11.84,4.98s.05-.08.05-.12c0-.04-.02-.09-.06-.12l-.05-.04c-.89-.85-.79-2.4.22-3.46.56-.59,1.3-.92,2.04-.92M14.03.15c-.75,0-1.55.33-2.16.97-1.08,1.13-1.17,2.78-.21,3.7.02.02.04.03.06.05L.15,16.99l.64.61L12.64,5.17c-.64-.81-.51-2.09.35-2.99.52-.55,1.21-.84,1.85-.84.49,0,.95.16,1.31.5,0,0,.01.02.02.02-.08-.43-.29-.83-.61-1.14-.41-.39-.96-.59-1.52-.59h0Z"/>
            </g>
          </g>
          <g>
            <path class="cls-2" d="M8.21,17.47c-1.84,0-4.66-.86-7.59-4.94-.01-.02-.02-.04,0-.07,0-.02.03-.04.05-.05.03-.01,3.25-1.1,2.76-5.78-.02-.03-.02-.08,0-.1.01-.01.03-.02.04-.02.01,0,.02,0,.03,0,.02,0,.03,0,.04.02,1.15.65,2.25.96,3.29.96,2.02,0,3.1-1.23,3.12-1.24.01-.02.04-.03.06-.03h0s.04.02.06.04c4.27,7.01.75,10.37.34,10.73h-.15s.03.06.03.06c-.27.12-1.02.41-2.08.41Z"/>
            <path class="cls-10" d="M10,6.31c4.29,7.05.67,10.36.35,10.64,0,0,0,0-.01,0,0,0,0,0,0,0-.02,0-.04.02-.08.04-.26.12-1,.4-2.05.4-1.83,0-4.61-.85-7.53-4.91,0,0,3.31-1.06,2.81-5.86v-.02s-.02-.01-.02-.01c0,0,.01,0,.02.01,0,0,0-.02,0-.03l.03.04c1.29.71,2.4.96,3.32.96,2.08,0,3.17-1.27,3.17-1.27M10,6.16s-.08.02-.11.05c-.01.01-1.08,1.22-3.06,1.22-1.01,0-2.1-.31-3.22-.92h0c-.03-.05-.07-.07-.12-.07-.01,0-.03,0-.04,0-.03,0-.06.02-.08.04-.06.05-.06.14-.02.2.47,4.58-2.58,5.63-2.71,5.67-.05.01-.08.05-.1.1-.01.05,0,.09.02.13,2.95,4.11,5.79,4.97,7.65,4.97,1.08,0,1.83-.29,2.11-.41.03-.01.05-.02.07-.03h0s.01,0,.02-.01h0s.04-.03.05-.04c.41-.36,3.97-3.76-.33-10.82-.02-.04-.07-.07-.11-.07,0,0,0,0-.01,0h0Z"/>
          </g>
          <g>
            <path class="cls-1" d="M8.09,16.25c-1.29,0-3.27-.6-5.31-3.44-.03-.05-.04-.1-.02-.16s.06-.1.11-.11c.09-.03,2.13-.74,1.81-3.84-.05-.07-.03-.13.02-.19.03-.03.06-.04.1-.04.02,0,.04,0,.06,0,.05,0,.1.02.14.07.72.39,1.46.61,2.15.61,1.32,0,2.04-.8,2.04-.81.03-.04.08-.06.13-.06,0,0,0,0,.01,0,.06,0,.11.04.14.08,2.95,4.84.6,7.19.23,7.52,0,.01-.02.02-.04.03-.01,0-.03.02-.03.02-.11.05-.68.32-1.54.32Z"/>
            <path d="M9.32,8.46c2.96,4.86.45,7.13.24,7.31h0s0,0,0,0c0,0,0,0,0,0h0c-.09.05-.64.3-1.46.3-1.26,0-3.17-.59-5.17-3.37,0,0,2.27-.73,1.93-4.02l-.02-.03s.01,0,.02,0c0,0,0-.01,0-.02l.02.03c.89.49,1.65.66,2.28.66,1.43,0,2.18-.87,2.18-.87M9.32,8.1c-.1,0-.2.04-.27.12-.03.03-.68.75-1.91.75-.65,0-1.35-.2-2.08-.6-.06-.04-.14-.07-.21-.07-.02,0-.05,0-.07,0-.07.01-.14.05-.2.11-.09.1-.12.25-.08.37.27,2.89-1.62,3.55-1.7,3.58-.11.04-.19.12-.23.23-.03.11-.02.22.05.32,2.09,2.91,4.12,3.52,5.46,3.52.83,0,1.41-.24,1.59-.32.04-.01.07-.03.1-.06h0s.02-.01.02-.02c.33-.28,2.9-2.72-.17-7.76-.06-.1-.16-.16-.27-.17,0,0-.02,0-.03,0h0Z"/>
          </g>
          <path class="cls-8" d="M10.25,17c-.71.32-4.99,1.88-9.58-4.51,0,0,3.31-1.06,2.81-5.86v-.02s.02,0,.02,0l6.74,10.38Z"/>
          <path class="cls-6" d="M7.45,15.65s-2.21-.23-4.08-2.78c0,0,2.29-1.24,1.71-3.84,0,0,2.5,1.32,4.1-.08,0,0,1.15,1.5,1.2,3.4s-.85,2.86-.85,2.86"/>
          <g class="cls-7">
            <path class="cls-9" d="M9.97,6.58c4,6.72.67,9.9.3,10.23,0,0,0,0-.01,0,0,0-.01,0-.01,0-.01,0-.03.01-.06.03-.26.12-.96.39-1.98.39-1.76,0-4.44-.82-7.27-4.67.72-.33,3.04-1.72,2.75-5.67,1.09.56,2.15.85,3.15.85,1.7,0,2.76-.81,3.14-1.17M10,6.31s-1.09,1.27-3.17,1.27c-.92,0-2.03-.25-3.32-.96l-.03-.04s0,.02,0,.03c0,0-.02,0-.02-.01h0s.01.04.01.04c.49,4.8-2.81,5.86-2.81,5.86,2.91,4.05,5.7,4.91,7.53,4.91,1.05,0,1.79-.28,2.05-.4.04-.01.06-.03.08-.04,0,0,0,0,0,0,0,0,.01,0,.01,0,.32-.28,3.94-3.59-.35-10.64h0Z"/>
          </g>
        </g>
      </g>
    </g>
  </g>
</svg>