<?xml version="1.0" encoding="UTF-8"?>
<svg xmlns="http://www.w3.org/2000/svg" xmlns:xlink="http://www.w3.org/1999/xlink" viewBox="0 0 32.69 17.71">
  <defs>
    <style>
      .cls-1 {
        fill: url(#radial-gradient-4);
      }

      .cls-2 {
        fill: url(#radial-gradient-3);
      }

      .cls-3 {
        fill: url(#radial-gradient-2);
      }

      .cls-4 {
        fill: #fff;
      }

      .cls-4, .cls-5 {
        mix-blend-mode: overlay;
      }

      .cls-6 {
        fill: url(#radial-gradient);
      }

      .cls-7 {
        isolation: isolate;
      }

      .cls-8 {
        fill: none;
        stroke: #5c4b44;
        stroke-linecap: round;
        stroke-linejoin: round;
        stroke-width: .39px;
      }

      .cls-9 {
        fill: #5c4b44;
      }
    </style>
    <radialGradient id="radial-gradient" cx="-507.17" cy="-203.17" fx="-507.17" fy="-203.17" r="19.82" gradientTransform="translate(554.89 -68.8) rotate(-30.75)" gradientUnits="userSpaceOnUse">
      <stop offset=".08" stop-color="#fffcfe"/>
      <stop offset="1" stop-color="#e1dedd"/>
    </radialGradient>
    <radialGradient id="radial-gradient-2" cx="12.54" cy="18.13" fx="12.54" fy="18.13" r="18.59" gradientUnits="userSpaceOnUse">
      <stop offset=".28" stop-color="#fffcfe"/>
      <stop offset="1" stop-color="#e1dedd"/>
    </radialGradient>
    <radialGradient id="radial-gradient-3" cx="389.79" cy="-18.6" fx="389.79" fy="-18.6" r="19.73" gradientTransform="translate(412.24 7.11) rotate(176.25) scale(1 -1)" xlink:href="#radial-gradient"/>
    <radialGradient id="radial-gradient-4" cx="25.71" cy="12.47" fx="25.71" fy="12.47" r="15.53" gradientTransform="matrix(1,0,0,1,0,0)" xlink:href="#radial-gradient"/>
  </defs>
  <g class="cls-7">
    <g id="Layer_2" data-name="Layer 2">
      <g id="Layer_1-2" data-name="Layer 1">
        <g>
          <g>
            <path class="cls-6" d="M8.94,17.51c-3.76,0-7.4-2.03-8.45-4.71-.6-1.53-.26-3.01.98-4.16,1.17-1.09,1.88-1.26,2.2-1.26.09,0,.15.01.17.02.02,0,2.75.7,5.47,1.68.27.1.58.19.9.29,1.22.38,2.49.77,2.85,1.6.74,1.66.69,3.47-.12,4.72-.54.83-1.67,1.83-3.97,1.83h-.03Z"/>
            <path class="cls-9" d="M3.67,7.57c.07,0,.11.01.11.01,0,0,2.72.69,5.47,1.67,1.27.46,3.21.82,3.63,1.78,1.24,2.81.3,6.26-3.91,6.27h-.03c-6.21,0-10.84-5.27-7.34-8.53,1.16-1.08,1.82-1.2,2.06-1.2M3.67,7.18c-.42,0-1.17.23-2.33,1.31C.03,9.7-.33,11.26.3,12.87c1.09,2.76,4.8,4.84,8.64,4.84,2.41,0,3.59-1.05,4.16-1.92.86-1.33.91-3.16.14-4.91-.4-.91-1.71-1.32-2.98-1.7-.31-.1-.61-.19-.89-.29-2.73-.98-5.48-1.68-5.5-1.69-.01,0-.09-.02-.21-.02h0Z"/>
          </g>
          <path class="cls-3" d="M12.82,15.5c-.66,1.07-1.91,1.81-3.85,1.81-5.75.01-10.17-4.51-8.01-7.78.17-.26.39-.51.65-.76,0,0,.01,0,.02,0,.23-.22.49-.43.74-.61,1.05-.75,2.14-1.16,2.14-1.16l.76.41c.25.32,1.77,1,2.96,1.5.32.11.66.23,1.02.36.88.31,2.06.58,2.86,1.03h0c.36.21.64.45.77.74.67,1.51.7,3.21-.06,4.46Z"/>
          <path class="cls-5" d="M8.97,17.31c-5.75.01-10.17-4.51-8.01-7.78.1,1.33.85,2.81,3.04,4.1,3.41,2.01,6.86,2.55,7.94.12.59-1.31.44-2.58.18-3.46.36.21.64.45.77.74,1.24,2.81.3,6.26-3.91,6.27Z"/>
          <path class="cls-4" d="M12.82,15.5c-.66,1.07-1.91,1.81-3.85,1.81-5.75.01-10.17-4.51-8.01-7.78.17-.26.39-.51.65-.76,0,0,.01,0,.02,0,.23-.22.49-.43.74-.61-.76.78-1.86,2.07-1.36,4.05.8,3.17,5.34,4.81,8.36,4.84,1.73,0,2.83-.83,3.45-1.55Z"/>
          <path class="cls-8" d="M12.59,15.99s-.52-1.01-1.95-1.04"/>
          <path class="cls-8" d="M13.53,13.33s-.64-.75-2.02-.78"/>
        </g>
        <g>
          <g>
            <path class="cls-2" d="M25.14,12.82c-2.04,0-3.72-1.65-4.18-4.09-.17-.89.65-1.93,1.45-2.93.2-.26.4-.51.57-.75,1.69-2.34,2.77-3.65,2.78-3.67.05-.05,1.07-1.19,2.82-1.19.2,0,.4.01.61.05,1.67.25,2.8,1.27,3.17,2.88.55,2.4-.78,6.26-4.32,8.68-.99.67-1.96,1.01-2.9,1.01h0Z"/>
            <path class="cls-9" d="M28.58.39c.19,0,.38.01.58.04,4.74.71,3.9,7.69-1.24,11.2-1,.69-1.94.98-2.79.98-2.08,0-3.58-1.79-3.99-3.93-.19-1.03,1.2-2.43,1.99-3.53,1.7-2.36,2.77-3.66,2.77-3.66,0,0,.99-1.11,2.67-1.11M28.58,0c-1.84,0-2.92,1.2-2.97,1.25-.02.02-1.1,1.34-2.79,3.69-.17.23-.37.48-.57.74-.82,1.04-1.67,2.11-1.49,3.09.48,2.55,2.23,4.26,4.37,4.26.98,0,1.99-.35,3.01-1.05,3.17-2.17,5.07-5.99,4.4-8.89-.39-1.69-1.57-2.77-3.33-3.03-.21-.03-.43-.05-.64-.05h0Z"/>
          </g>
          <path class="cls-1" d="M23.73,12.33c1.15.51,2.6.41,4.2-.69,4.75-3.25,5.83-9.48,2.2-10.95-.29-.12-.61-.2-.96-.26-.01,0-.01,0-.02,0-.32-.05-.64-.08-.95-.08-1.29-.03-2.42.25-2.42.25l-.4.77c-.02.4-.89,1.83-1.59,2.91-.2.27-.42.56-.64.87-.55.75-1.37,1.65-1.77,2.47h0c-.18.38-.27.73-.21,1.05.31,1.63,1.24,3.04,2.58,3.64Z"/>
          <path class="cls-5" d="M27.93,11.64c4.75-3.25,5.83-9.48,2.2-10.95.67,1.15.89,2.8-.18,5.09-1.67,3.58-4.21,5.99-6.48,4.6-1.23-.75-1.82-1.88-2.11-2.75-.18.37-.27.73-.21,1.05.57,3.02,3.3,5.33,6.78,2.95Z"/>
          <path class="cls-4" d="M23.73,12.33c1.15.51,2.6.41,4.2-.69,4.75-3.25,5.83-9.48,2.2-10.95-.29-.12-.61-.2-.96-.26-.01,0-.01,0-.02,0-.32-.05-.64-.08-.95-.08,1.07.21,2.71.66,3.41,2.57,1.13,3.06-1.67,6.99-4.15,8.72-1.42.99-2.8.92-3.72.68Z"/>
          <path class="cls-8" d="M24.2,12.61s-.15-1.13,1.01-1.96"/>
          <path class="cls-8" d="M21.91,10.95s.1-.98,1.22-1.79"/>
        </g>
      </g>
    </g>
  </g>
</svg>